<?xml version="1.0" encoding="UTF-8"?>
<svg width="1263px" height="5492px" viewBox="0 0 1263 5492" version="1.1" xmlns="http://www.w3.org/2000/svg" xmlns:xlink="http://www.w3.org/1999/xlink">
    <!-- Generator: Sketch 56.2 (81672) - https://sketch.com -->
    <title>Bubbles</title>
    <desc>Created with Sketch.</desc>
    <g id="Liquid" stroke="none" stroke-width="1" fill="none" fill-rule="evenodd">
        <g id="Green" transform="translate(-5.000000, -488.000000)">
            <g id="Bubbles" transform="translate(-48.000000, 423.000000)">
                <path d="M345.161673,631.559107 C378.164673,661.408339 415.270749,699.544074 419.998206,751.134239 C424.725662,802.724404 397.252895,867.679897 349.264749,891.02467 C301.365801,914.458544 232.951474,896.192596 180.681858,863.759401 C128.323044,831.326206 92.0197446,784.547559 76.231823,729.215102 C60.4439014,673.882645 65.1713582,609.907276 98.2635554,580.058044 C131.266555,550.297915 192.634296,554.57482 237.857325,567.494636 C283.080355,580.325351 312.158674,601.709875 345.161673,631.559107 Z" id="Path" fill="#F8FFF0" fill-rule="nonzero" transform="translate(244.023467, 729.617492) rotate(-75.000000) translate(-244.023467, -729.617492) "></path>
                <path d="M1078.02662,1579.49532 C1103.55019,1602.57642 1132.24696,1632.0651 1135.90303,1671.95749 C1139.55911,1711.84989 1118.31247,1762.0771 1081.19982,1780.12858 C1044.15616,1798.24896 991.246496,1784.12471 950.822685,1759.04555 C910.329892,1733.9664 882.253969,1697.79453 870.044047,1655.00839 C857.834124,1612.22225 861.490203,1562.75292 887.082752,1539.67183 C912.606318,1516.65964 960.066355,1519.96678 995.04054,1529.9571 C1030.01472,1539.87852 1052.50306,1556.41423 1078.02662,1579.49532 Z" id="Path-Copy-12" fill="#F8FFF0" fill-rule="nonzero"></path>
                <path d="M1056.56741,184.34638 C1118.05091,257.093073 1136.21311,368.667756 1105.99241,456.588606 C1075.92057,544.509456 997.614697,609.074005 909.781114,649.68719 C821.947531,690.449141 724.735107,707.408492 659.380967,670.960763 C594.026826,634.661799 560.679839,544.806988 530.608002,445.133605 C500.536165,345.311456 473.739479,235.670734 516.763047,167.089496 C559.786616,98.5082574 672.77931,70.9865023 781.603631,74.2593597 C890.427951,77.532217 995.083898,111.599687 1056.56741,184.34638 Z" id="Path" fill="#F8FFF0" fill-rule="nonzero" transform="translate(807.307734, 382.500000) rotate(-75.000000) translate(-807.307734, -382.500000) "></path>
                <path d="M777.567407,1093.34638 C839.050915,1166.09307 857.213113,1277.66776 826.992406,1365.58861 C796.920569,1453.50946 718.614697,1518.07401 630.781114,1558.68719 C542.947531,1599.44914 445.735107,1616.40849 380.380967,1579.96076 C315.026826,1543.6618 281.679839,1453.80699 251.608002,1354.1336 C221.536165,1254.31146 194.739479,1144.67073 237.763047,1076.0895 C280.786616,1007.50826 393.77931,979.986502 502.603631,983.25936 C611.427951,986.532217 716.083898,1020.59969 777.567407,1093.34638 Z" id="Path-Copy-24" fill="#F8FFF0" fill-rule="nonzero" transform="translate(528.307734, 1291.500000) rotate(-75.000000) translate(-528.307734, -1291.500000) "></path>
                <path d="M1281.24613,2509.2775 C1330.74723,2567.87573 1345.36983,2657.75031 1321.03878,2728.57149 C1296.82759,2799.39266 1233.78261,2851.40008 1163.06675,2884.11443 C1092.3509,2916.94861 1014.08402,2930.60955 961.466634,2901.25052 C908.849243,2872.01132 882.001189,2799.63232 857.789998,2719.34436 C833.578806,2638.93657 812.004477,2550.61981 846.643261,2495.3769 C881.282045,2440.13399 972.253798,2417.96493 1059.86955,2420.60125 C1147.48529,2423.23757 1231.74503,2450.67928 1281.24613,2509.2775 Z" id="Path-Copy-8" fill="#F8FFF0" fill-rule="nonzero" transform="translate(1080.564223, 2668.892333) rotate(-75.000000) translate(-1080.564223, -2668.892333) "></path>
                <path d="M845.567407,3782.34638 C907.050915,3855.09307 925.213113,3966.66776 894.992406,4054.58861 C864.920569,4142.50946 786.614697,4207.07401 698.781114,4247.68719 C610.947531,4288.44914 513.735107,4305.40849 448.380967,4268.96076 C383.026826,4232.6618 349.679839,4142.80699 319.608002,4043.1336 C289.536165,3943.31146 262.739479,3833.67073 305.763047,3765.0895 C348.786616,3696.50826 461.77931,3668.9865 570.603631,3672.25936 C679.427951,3675.53222 784.083898,3709.59969 845.567407,3782.34638 Z" id="Path-Copy-19" fill="#F8FFF0" fill-rule="nonzero" transform="translate(596.307734, 3980.500000) rotate(-75.000000) translate(-596.307734, -3980.500000) "></path>
                <path d="M415.558605,5238.77249 C455.532707,5286.05195 467.341037,5358.56645 447.69275,5415.70788 C428.141252,5472.8493 377.229926,5514.81103 320.124066,5541.20631 C263.018207,5567.69827 199.814602,5578.72048 157.323971,5555.03241 C114.83334,5531.44102 93.1524708,5473.04268 73.6009731,5408.26305 C54.0494753,5343.38675 36.6273486,5272.12916 64.5995409,5227.55691 C92.5717333,5182.98467 166.035034,5165.09776 236.788227,5167.22485 C307.541419,5169.35194 375.584503,5191.49304 415.558605,5238.77249 Z" id="Path-Copy-28" fill="#F8FFF0" fill-rule="nonzero" transform="translate(253.500000, 5367.556286) rotate(17.000000) translate(-253.500000, -5367.556286) "></path>
                <path d="M1288.6543,3229.84419 C1327.15516,3275.35508 1338.52829,3345.15707 1319.60414,3400.16104 C1300.77321,3455.16501 1251.73823,3495.55709 1196.737,3520.96502 C1141.73578,3546.46601 1080.86155,3557.07591 1039.93691,3534.27393 C999.012276,3511.56502 978.130456,3455.35115 959.299529,3392.9947 C940.468603,3330.54519 923.688569,3261.9531 950.629845,3219.04815 C977.571122,3176.14319 1048.32693,3158.92537 1116.47251,3160.97289 C1184.61809,3163.02042 1250.15345,3184.33329 1288.6543,3229.84419 Z" id="Path-Copy-18" fill="#F8FFF0" fill-rule="nonzero" transform="translate(1132.568371, 3353.810633) rotate(-158.000000) translate(-1132.568371, -3353.810633) "></path>
                <path d="M338.155044,3185.25781 C367.030685,3219.44994 375.560536,3271.89185 361.367424,3313.21607 C347.244229,3354.54029 310.467989,3384.88668 269.217073,3403.97553 C227.966157,3423.13431 182.310482,3431.10548 151.617004,3413.97446 C120.923526,3396.91336 105.262161,3354.68014 91.1389659,3307.83203 C77.0157709,3260.91401 64.4307457,3209.38109 84.6367028,3177.1468 C104.84266,3144.9125 157.909516,3131.97683 209.018702,3133.51513 C260.127888,3135.05342 309.279403,3151.06569 338.155044,3185.25781 Z" id="Path-Copy-14" fill="#F8FFF0" fill-rule="nonzero" transform="translate(221.090597, 3278.393225) rotate(-150.000000) translate(-221.090597, -3278.393225) "></path>
                <path d="M660.71859,1744.87376 C705.308866,1797.5768 718.480812,1878.40967 696.563558,1942.10597 C674.75427,2005.80228 617.963749,2052.57757 554.263355,2082.00073 C490.562961,2111.53168 420.060661,2123.81827 372.663249,2097.41287 C325.265837,2071.11524 301.081281,2006.01783 279.271993,1933.80713 C257.462706,1861.48865 238.028687,1782.05688 269.231084,1732.37161 C300.43348,1682.68634 382.380258,1662.74756 461.303967,1665.11866 C540.227675,1667.48976 616.128314,1692.17073 660.71859,1744.87376 Z" id="Path-Copy-11" fill="#F8FFF0" fill-rule="nonzero" transform="translate(479.945601, 1888.430760) rotate(-75.000000) translate(-479.945601, -1888.430760) "></path>
                <path d="M1212.18698,368.29788 C1227.5489,388.435551 1230.75634,417.155804 1222.99097,440.265979 C1215.1834,463.41802 1196.36083,480.959982 1173.36015,493.268662 C1150.31727,505.577342 1123.09628,512.610874 1097.14139,504.907482 C1071.14429,497.162224 1046.41329,474.680043 1044.21873,451.10934 C1042.06637,427.538636 1062.40826,402.921276 1082.45472,381.695083 C1102.45898,360.46889 1122.16782,342.717596 1145.75934,339.619493 C1169.35086,336.52139 1196.82506,348.118344 1212.18698,368.29788 Z" id="Path-Copy-4" fill="#E8FCD1" transform="translate(1135.561678, 423.622216) rotate(-165.000000) translate(-1135.561678, -423.622216) "></path>
                <path d="M907.186984,3127.29788 C922.548905,3147.43555 925.756339,3176.1558 917.990972,3199.26598 C910.183402,3222.41802 891.360829,3239.95998 868.360151,3252.26866 C845.31727,3264.57734 818.096284,3271.61087 792.141391,3263.90748 C766.144294,3256.16222 741.41329,3233.68004 739.21873,3210.10934 C737.066373,3186.53864 757.408257,3161.92128 777.454719,3140.69508 C797.458979,3119.46889 817.167816,3101.7176 840.759338,3098.61949 C864.350859,3095.52139 891.825063,3107.11834 907.186984,3127.29788 Z" id="Path-Copy-10" fill="#E8FCD1" transform="translate(830.561678, 3182.622216) rotate(-165.000000) translate(-830.561678, -3182.622216) "></path>
                <path d="M852.186984,4340.29788 C867.548905,4360.43555 870.756339,4389.1558 862.990972,4412.26598 C855.183402,4435.41802 836.360829,4452.95998 813.360151,4465.26866 C790.31727,4477.57734 763.096284,4484.61087 737.141391,4476.90748 C711.144294,4469.16222 686.41329,4446.68004 684.21873,4423.10934 C682.066373,4399.53864 702.408257,4374.92128 722.454719,4353.69508 C742.458979,4332.46889 762.167816,4314.7176 785.759338,4311.61949 C809.350859,4308.52139 836.825063,4320.11834 852.186984,4340.29788 Z" id="Path-Copy-20" fill="#E8FCD1" fill-rule="nonzero" transform="translate(775.561678, 4395.622216) rotate(-165.000000) translate(-775.561678, -4395.622216) "></path>
                <path d="M469.803562,3203.98107 C476.603101,3212.91791 478.022785,3225.66358 474.585655,3235.91957 C471.129846,3246.19415 462.798543,3253.97904 452.617915,3259.44148 C442.418607,3264.90391 430.369974,3268.0253 418.881742,3264.60663 C407.374831,3261.16939 396.428321,3251.19209 395.456958,3240.73172 C394.504275,3230.27135 403.50806,3219.34648 412.381084,3209.92657 C421.235429,3200.50667 429.959013,3192.62887 440.401161,3191.25397 C450.84331,3189.87908 463.004024,3195.02565 469.803562,3203.98107 Z" id="Path-Copy-15" fill="#E8FCD1" fill-rule="nonzero" transform="translate(435.887443, 3228.533289) rotate(-75.000000) translate(-435.887443, -3228.533289) "></path>
                <path d="M1133.49023,3967.0653 C1144.31913,3981.24508 1146.5801,4001.46822 1141.10616,4017.74106 C1135.60246,4034.04339 1122.33409,4046.39542 1106.1205,4055.06248 C1089.87715,4063.72954 1070.68859,4068.68214 1052.39252,4063.25786 C1034.0667,4057.8041 1016.63336,4041.97345 1015.08638,4025.37633 C1013.56914,4008.77921 1027.9085,3991.44509 1042.03962,3976.49883 C1056.14098,3961.55258 1070.0341,3949.05315 1086.66418,3946.87164 C1103.29427,3944.69014 1122.66134,3952.85604 1133.49023,3967.0653 Z" id="Path-Copy-23" fill="#F8FFF0" fill-rule="nonzero" transform="translate(1079.475670, 4006.021490) rotate(-75.000000) translate(-1079.475670, -4006.021490) "></path>
                <path d="M560.113968,5344.77429 C566.493782,5353.11533 567.825831,5365.0113 564.60087,5374.58356 C561.358382,5384.17316 553.541357,5391.43906 543.989163,5396.53733 C534.419442,5401.6356 523.114551,5404.5489 512.33547,5401.35814 C501.538862,5398.15005 491.268062,5388.8379 490.35666,5379.07489 C489.462785,5369.31188 497.91078,5359.11534 506.236087,5350.32342 C514.543867,5341.53151 522.728958,5334.1789 532.52653,5332.89566 C542.324101,5331.61243 553.734154,5336.4159 560.113968,5344.77429 Z" id="Path-Copy-25" fill="#FFF0F3" transform="translate(528.291436, 5367.689691) rotate(-187.000000) translate(-528.291436, -5367.689691) "></path>
                <path d="M454.989322,4972.28042 C465.818217,4986.4602 468.079195,5006.68334 462.605248,5022.95618 C457.101552,5039.25851 443.83318,5051.61054 427.619588,5060.2776 C411.376245,5068.94466 392.187681,5073.89726 373.891609,5068.47298 C355.565787,5063.01922 338.132456,5047.18857 336.585471,5030.59145 C335.068236,5013.99433 349.407596,4996.66021 363.538709,4981.71395 C377.640072,4966.7677 391.533188,4954.26827 408.163276,4952.08676 C424.793365,4949.90526 444.160427,4958.07116 454.989322,4972.28042 Z" id="Path-Copy-26" fill="#E8FCD1" fill-rule="nonzero" transform="translate(400.974762, 5011.236610) rotate(-280.000000) translate(-400.974762, -5011.236610) "></path>
                <path d="M645.49023,4595.0653 C656.319125,4609.24508 658.580103,4629.46822 653.106157,4645.74106 C647.60246,4662.04339 634.334089,4674.39542 618.120496,4683.06248 C601.877154,4691.72954 582.68859,4696.68214 564.392517,4691.25786 C546.066695,4685.8041 528.633364,4669.97345 527.086379,4653.37633 C525.569144,4636.77921 539.908505,4619.44509 554.039618,4604.49883 C568.140981,4589.55258 582.034096,4577.05315 598.664185,4574.87164 C615.294273,4572.69014 634.661336,4580.85604 645.49023,4595.0653 Z" id="Path-Copy-29" fill="#F8FFF0" fill-rule="nonzero" transform="translate(591.475670, 4634.021490) rotate(-75.000000) translate(-591.475670, -4634.021490) "></path>
                <path d="M1275.25061,716.375464 C1305.97445,757.155291 1312.38932,815.315294 1296.85859,862.114596 C1281.24345,908.99868 1243.5983,944.522064 1197.59695,969.447779 C1151.51118,994.373495 1097.06921,1008.61676 1045.15943,993.016993 C993.165232,977.332444 943.703224,931.804862 939.314104,884.072965 C935.00939,836.341067 975.693158,786.489636 1015.78608,743.505494 C1055.7946,700.521352 1095.21228,664.574062 1142.39532,658.300242 C1189.57836,652.026423 1244.52677,675.510855 1275.25061,716.375464 Z" id="Path" fill="#F8FFF0" fill-rule="nonzero" transform="translate(1122.000000, 828.410113) rotate(32.000000) translate(-1122.000000, -828.410113) "></path>
                <path d="M346.102951,2638.47519 C370.782758,2671.24359 375.935684,2717.97773 363.460178,2755.58305 C350.916869,2793.25649 320.677325,2821.8011 283.725416,2841.83002 C246.705706,2861.85893 202.97363,2873.30403 161.275604,2860.76892 C119.509777,2848.16569 79.7779996,2811.58226 76.2523129,2773.22757 C72.7944278,2734.87287 105.474832,2694.81504 137.680624,2660.27538 C169.818614,2625.73571 201.481993,2596.85047 239.383126,2591.80918 C277.284258,2586.76789 321.423144,2605.63867 346.102951,2638.47519 Z" id="Path-Copy-9" fill="#F8FFF0" fill-rule="nonzero" transform="translate(223.000000, 2728.500000) rotate(32.000000) translate(-223.000000, -2728.500000) "></path>
                <path d="M1283.56997,4349.70247 C1311.69151,4386.87971 1317.56305,4439.90171 1303.34776,4482.56665 C1289.05521,4525.30888 1254.59859,4557.69404 1212.49352,4580.41776 C1170.3112,4603.14148 1120.48043,4616.12646 1072.96738,4601.90481 C1025.37706,4587.60587 980.10446,4546.10031 976.087096,4502.58516 C972.146989,4459.07002 1009.38486,4413.62258 1046.08194,4374.43577 C1082.70176,4335.24895 1118.78078,4302.47733 1161.96744,4296.75775 C1205.15411,4291.03818 1255.44842,4312.44794 1283.56997,4349.70247 Z" id="Path-Copy-21" fill="#F8FFF0" fill-rule="nonzero" transform="translate(1143.299597, 4451.839704) rotate(-10.000000) translate(-1143.299597, -4451.839704) "></path>
                <path d="M332.237155,4575.88205 C356.916962,4608.53129 362.069889,4655.09548 349.594382,4692.56405 C337.051074,4730.1005 306.81153,4758.54131 269.859621,4778.4974 C232.83991,4798.45348 189.107835,4809.85696 147.409809,4797.36744 C105.643981,4784.81004 65.9122042,4748.35964 62.3865174,4710.14441 C58.9286324,4671.92919 91.6090362,4632.01702 123.814828,4597.60295 C155.952819,4563.18889 187.616198,4534.40869 225.51733,4529.38573 C263.418462,4524.36277 307.557348,4543.16493 332.237155,4575.88205 Z" id="Path-Copy-22" fill="#F8FFF0" fill-rule="nonzero" transform="translate(209.134205, 4665.579490) rotate(-10.000000) translate(-209.134205, -4665.579490) "></path>
                <path d="M1276.56997,5190.75757 C1304.69151,5227.9348 1310.56305,5280.95681 1296.34776,5323.62175 C1282.05521,5366.36398 1247.59859,5398.74914 1205.49352,5421.47286 C1163.3112,5444.19657 1113.48043,5457.18155 1065.96738,5442.95991 C1018.37706,5428.66097 973.10446,5387.15541 969.087096,5343.64026 C965.146989,5300.12512 1002.38486,5254.67768 1039.08194,5215.49086 C1075.70176,5176.30405 1111.78078,5143.53243 1154.96744,5137.81285 C1198.15411,5132.09328 1248.44842,5153.50304 1276.56997,5190.75757 Z" id="Path-Copy-27" fill="#F8FFF0" fill-rule="nonzero" transform="translate(1136.299597, 5292.894802) rotate(-10.000000) translate(-1136.299597, -5292.894802) "></path>
                <path d="M622.401682,2552.01909 C631.467733,2564.17319 633.360645,2581.50731 628.777806,2595.45546 C624.17006,2609.42888 613.061656,2620.01634 599.487486,2627.44525 C585.888408,2634.87415 569.823564,2639.11924 554.505922,2634.46986 C539.163373,2629.79521 524.568026,2616.22608 523.272876,2601.99997 C522.002633,2587.77387 534.007679,2572.91605 545.838378,2560.10498 C557.644171,2547.2939 569.275616,2536.58011 583.198481,2534.71025 C597.121346,2532.84038 613.33563,2539.83973 622.401682,2552.01909 Z" id="Path-Copy-13" fill="#F8FFF0" fill-rule="nonzero" transform="translate(577.180190, 2585.410113) rotate(32.000000) translate(-577.180190, -2585.410113) "></path>
                <path d="M1246.35123,3280.79461 C1255.41728,3292.94871 1257.31019,3310.28283 1252.72735,3324.23098 C1248.11961,3338.2044 1237.0112,3348.79186 1223.43703,3356.22077 C1209.83795,3363.64967 1193.77311,3367.89476 1178.45547,3363.24538 C1163.11292,3358.57073 1148.51757,3345.0016 1147.22242,3330.7755 C1145.95218,3316.54939 1157.95722,3301.69158 1169.78792,3288.8805 C1181.59372,3276.06943 1193.22516,3265.35563 1207.14803,3263.48577 C1221.07089,3261.6159 1237.28518,3268.61525 1246.35123,3280.79461 Z" id="Path-Copy-16" fill="#E8FCD1" transform="translate(1201.129735, 3314.185634) rotate(32.000000) translate(-1201.129735, -3314.185634) "></path>
                <path d="M407.507606,2355.4783 C410.865403,2360.0063 411.566482,2366.46411 409.869134,2371.66048 C408.162561,2376.86627 404.048338,2380.81061 399.020867,2383.57824 C393.984172,2386.34588 388.03423,2387.92738 382.361029,2386.19526 C376.678603,2384.45372 371.272919,2379.39855 370.793234,2374.09863 C370.322773,2368.79871 374.769087,2363.26345 379.150827,2358.49069 C383.523343,2353.71794 387.831286,2349.72652 392.987902,2349.02991 C398.144519,2348.3333 404.14981,2350.94089 407.507606,2355.4783 Z" id="Path-Copy-17" fill="#F8FFF0" fill-rule="nonzero" transform="translate(390.758906, 2367.918096) rotate(172.000000) translate(-390.758906, -2367.918096) "></path>
            </g>
        </g>
    </g>
</svg>