<?xml version="1.0" encoding="UTF-8"?>
<svg width="1262px" height="5481px" viewBox="0 0 1262 5481" version="1.1" xmlns="http://www.w3.org/2000/svg" xmlns:xlink="http://www.w3.org/1999/xlink">
    <!-- Generator: Sketch 56.2 (81672) - https://sketch.com -->
    <title>Bubbles</title>
    <desc>Created with Sketch.</desc>
    <g id="Liquid" stroke="none" stroke-width="1" fill="none" fill-rule="evenodd">
        <g id="Red" transform="translate(-14.000000, -488.000000)">
            <g id="Bubbles" transform="translate(-38.000000, 423.000000)">
                <path d="M295.739274,596.008963 C322.85222,620.565162 353.335965,651.938456 357.219712,694.380365 C361.103458,736.822274 338.533762,790.259497 299.110073,809.464644 C259.759662,828.743093 203.555258,813.716165 160.614213,787.034205 C117.599891,760.352245 87.7756501,721.868648 74.8054029,676.348052 C61.8351557,630.827455 65.718902,578.196556 92.9051264,553.640356 C120.018072,529.157459 170.433497,532.675959 207.58556,543.304762 C244.737624,553.860262 268.626328,571.452763 295.739274,596.008963 Z" id="Path" fill="#FFF6F8" fill-rule="nonzero" transform="translate(212.651229, 676.679088) rotate(-75.000000) translate(-212.651229, -676.679088) "></path>
                <path d="M1066.02662,1579.49532 C1091.55019,1602.57642 1120.24696,1632.0651 1123.90303,1671.95749 C1127.55911,1711.84989 1106.31247,1762.0771 1069.19982,1780.12858 C1032.15616,1798.24896 979.246496,1784.12471 938.822685,1759.04555 C898.329892,1733.9664 870.253969,1697.79453 858.044047,1655.00839 C845.834124,1612.22225 849.490203,1562.75292 875.082752,1539.67183 C900.606318,1516.65964 948.066355,1519.96678 983.04054,1529.9571 C1018.01472,1539.87852 1040.50306,1556.41423 1066.02662,1579.49532 Z" id="Path-Copy-12" fill="#FFF6F8" fill-rule="nonzero"></path>
                <path d="M1044.56741,184.34638 C1106.05091,257.093073 1124.21311,368.667756 1093.99241,456.588606 C1063.92057,544.509456 985.614697,609.074005 897.781114,649.68719 C809.947531,690.449141 712.735107,707.408492 647.380967,670.960763 C582.026826,634.661799 548.679839,544.806988 518.608002,445.133605 C488.536165,345.311456 461.739479,235.670734 504.763047,167.089496 C547.786616,98.5082574 660.77931,70.9865023 769.603631,74.2593597 C878.427951,77.532217 983.083898,111.599687 1044.56741,184.34638 Z" id="Path" fill="#FFF6F8" fill-rule="nonzero" transform="translate(795.307734, 382.500000) rotate(-75.000000) translate(-795.307734, -382.500000) "></path>
                <path d="M765.567407,1093.34638 C827.050915,1166.09307 845.213113,1277.66776 814.992406,1365.58861 C784.920569,1453.50946 706.614697,1518.07401 618.781114,1558.68719 C530.947531,1599.44914 433.735107,1616.40849 368.380967,1579.96076 C303.026826,1543.6618 269.679839,1453.80699 239.608002,1354.1336 C209.536165,1254.31146 182.739479,1144.67073 225.763047,1076.0895 C268.786616,1007.50826 381.77931,979.986502 490.603631,983.25936 C599.427951,986.532217 704.083898,1020.59969 765.567407,1093.34638 Z" id="Path-Copy-24" fill="#FFF6F8" fill-rule="nonzero" transform="translate(516.307734, 1291.500000) rotate(-75.000000) translate(-516.307734, -1291.500000) "></path>
                <path d="M1263.99089,2472.72212 C1319.48319,2535.6828 1335.87559,2632.24824 1308.59971,2708.34181 C1281.4582,2784.43539 1210.78277,2840.31459 1131.50805,2875.46441 C1052.23333,2910.74299 964.493685,2925.42094 905.507919,2893.87623 C846.522154,2862.46027 816.424633,2784.69289 789.283119,2698.42776 C762.141605,2612.03388 737.956097,2517.14223 776.787273,2457.78667 C815.618449,2398.43111 917.600673,2374.61163 1015.82071,2377.44422 C1114.04074,2380.2768 1208.49858,2409.76145 1263.99089,2472.72212 Z" id="Path-Copy-8" fill="#FFF6F8" fill-rule="nonzero" transform="translate(1039.020097, 2644.219747) rotate(-75.000000) translate(-1039.020097, -2644.219747) "></path>
                <path d="M833.567407,3782.34638 C895.050915,3855.09307 913.213113,3966.66776 882.992406,4054.58861 C852.920569,4142.50946 774.614697,4207.07401 686.781114,4247.68719 C598.947531,4288.44914 501.735107,4305.40849 436.380967,4268.96076 C371.026826,4232.6618 337.679839,4142.80699 307.608002,4043.1336 C277.536165,3943.31146 250.739479,3833.67073 293.763047,3765.0895 C336.786616,3696.50826 449.77931,3668.9865 558.603631,3672.25936 C667.427951,3675.53222 772.083898,3709.59969 833.567407,3782.34638 Z" id="Path-Copy-19" fill="#FFF6F8" fill-rule="nonzero" transform="translate(584.307734, 3980.500000) rotate(-75.000000) translate(-584.307734, -3980.500000) "></path>
                <path d="M356.65716,5312.57996 C385.925667,5347.2437 394.57157,5400.40895 380.185355,5442.30316 C365.870008,5484.19737 328.59341,5514.96233 286.781257,5534.31448 C244.969105,5553.73752 198.692264,5561.81863 167.581188,5544.45132 C136.470111,5527.15489 120.595667,5484.33915 106.280319,5436.84486 C91.9649721,5389.27969 79.208722,5337.03597 99.6895902,5304.35707 C120.170458,5271.67816 173.959313,5258.56407 225.763861,5260.12358 C277.56841,5261.6831 327.388653,5277.91622 356.65716,5312.57996 Z" id="Path-Copy-28" fill="#FFF6F8" fill-rule="nonzero" transform="translate(238.000000, 5407.000000) rotate(17.000000) translate(-238.000000, -5407.000000) "></path>
                <path d="M1283.20597,3224.06628 C1320.62644,3268.28023 1331.68043,3336.09304 1313.28732,3389.52954 C1294.98481,3442.96604 1247.3258,3482.20705 1193.86798,3506.89092 C1140.41016,3531.6652 1081.24414,3541.97275 1041.46789,3519.82056 C1001.69165,3497.75879 981.395802,3443.14687 963.093294,3382.56743 C944.790786,3321.89756 928.481621,3255.26017 954.666892,3213.57789 C980.852163,3171.89562 1049.62248,3155.16846 1115.85581,3157.15763 C1182.08914,3159.14681 1245.78549,3179.85232 1283.20597,3224.06628 Z" id="Path-Copy-18" fill="#FFF6F8" fill-rule="nonzero" transform="translate(1131.500000, 3344.500000) rotate(-158.000000) translate(-1131.500000, -3344.500000) "></path>
                <path d="M648.71859,1744.87376 C693.308866,1797.5768 706.480812,1878.40967 684.563558,1942.10597 C662.75427,2005.80228 605.963749,2052.57757 542.263355,2082.00073 C478.562961,2111.53168 408.060661,2123.81827 360.663249,2097.41287 C313.265837,2071.11524 289.081281,2006.01783 267.271993,1933.80713 C245.462706,1861.48865 226.028687,1782.05688 257.231084,1732.37161 C288.43348,1682.68634 370.380258,1662.74756 449.303967,1665.11866 C528.227675,1667.48976 604.128314,1692.17073 648.71859,1744.87376 Z" id="Path-Copy-11" fill="#FFF6F8" fill-rule="nonzero" transform="translate(467.945601, 1888.430760) rotate(-75.000000) translate(-467.945601, -1888.430760) "></path>
                <path d="M1200.18698,369.29788 C1215.5489,389.435551 1218.75634,418.155804 1210.99097,441.265979 C1203.1834,464.41802 1184.36083,481.959982 1161.36015,494.268662 C1138.31727,506.577342 1111.09628,513.610874 1085.14139,505.907482 C1059.14429,498.162224 1034.41329,475.680043 1032.21873,452.10934 C1030.06637,428.538636 1050.40826,403.921276 1070.45472,382.695083 C1090.45898,361.46889 1110.16782,343.717596 1133.75934,340.619493 C1157.35086,337.52139 1184.82506,349.118344 1200.18698,369.29788 Z" id="Path-Copy-4" fill="#FFF0F3" transform="translate(1123.561678, 424.622216) rotate(-165.000000) translate(-1123.561678, -424.622216) "></path>
                <path d="M895.186984,3127.29788 C910.548905,3147.43555 913.756339,3176.1558 905.990972,3199.26598 C898.183402,3222.41802 879.360829,3239.95998 856.360151,3252.26866 C833.31727,3264.57734 806.096284,3271.61087 780.141391,3263.90748 C754.144294,3256.16222 729.41329,3233.68004 727.21873,3210.10934 C725.066373,3186.53864 745.408257,3161.92128 765.454719,3140.69508 C785.458979,3119.46889 805.167816,3101.7176 828.759338,3098.61949 C852.350859,3095.52139 879.825063,3107.11834 895.186984,3127.29788 Z" id="Path-Copy-10" fill="#FFF0F3" transform="translate(818.561678, 3182.622216) rotate(-165.000000) translate(-818.561678, -3182.622216) "></path>
                <path d="M840.186984,4340.29788 C855.548905,4360.43555 858.756339,4389.1558 850.990972,4412.26598 C843.183402,4435.41802 824.360829,4452.95998 801.360151,4465.26866 C778.31727,4477.57734 751.096284,4484.61087 725.141391,4476.90748 C699.144294,4469.16222 674.41329,4446.68004 672.21873,4423.10934 C670.066373,4399.53864 690.408257,4374.92128 710.454719,4353.69508 C730.458979,4332.46889 750.167816,4314.7176 773.759338,4311.61949 C797.350859,4308.52139 824.825063,4320.11834 840.186984,4340.29788 Z" id="Path-Copy-20" fill="#FFF6F8" fill-rule="nonzero" transform="translate(763.561678, 4395.622216) rotate(-165.000000) translate(-763.561678, -4395.622216) "></path>
                <path d="M457.803562,3203.98107 C464.603101,3212.91791 466.022785,3225.66358 462.585655,3235.91957 C459.129846,3246.19415 450.798543,3253.97904 440.617915,3259.44148 C430.418607,3264.90391 418.369974,3268.0253 406.881742,3264.60663 C395.374831,3261.16939 384.428321,3251.19209 383.456958,3240.73172 C382.504275,3230.27135 391.50806,3219.34648 400.381084,3209.92657 C409.235429,3200.50667 417.959013,3192.62887 428.401161,3191.25397 C438.84331,3189.87908 451.004024,3195.02565 457.803562,3203.98107 Z" id="Path-Copy-15" fill="#FFF6F8" fill-rule="nonzero" transform="translate(423.887443, 3228.533289) rotate(-75.000000) translate(-423.887443, -3228.533289) "></path>
                <path d="M1121.49023,3967.0653 C1132.31913,3981.24508 1134.5801,4001.46822 1129.10616,4017.74106 C1123.60246,4034.04339 1110.33409,4046.39542 1094.1205,4055.06248 C1077.87715,4063.72954 1058.68859,4068.68214 1040.39252,4063.25786 C1022.0667,4057.8041 1004.63336,4041.97345 1003.08638,4025.37633 C1001.56914,4008.77921 1015.9085,3991.44509 1030.03962,3976.49883 C1044.14098,3961.55258 1058.0341,3949.05315 1074.66418,3946.87164 C1091.29427,3944.69014 1110.66134,3952.85604 1121.49023,3967.0653 Z" id="Path-Copy-23" fill="#FFF6F8" fill-rule="nonzero" transform="translate(1067.475670, 4006.021490) rotate(-75.000000) translate(-1067.475670, -4006.021490) "></path>
                <path d="M548.113968,5344.77429 C554.493782,5353.11533 555.825831,5365.0113 552.60087,5374.58356 C549.358382,5384.17316 541.541357,5391.43906 531.989163,5396.53733 C522.419442,5401.6356 511.114551,5404.5489 500.33547,5401.35814 C489.538862,5398.15005 479.268062,5388.8379 478.35666,5379.07489 C477.462785,5369.31188 485.91078,5359.11534 494.236087,5350.32342 C502.543867,5341.53151 510.728958,5334.1789 520.52653,5332.89566 C530.324101,5331.61243 541.734154,5336.4159 548.113968,5344.77429 Z" id="Path-Copy-25" fill="#FFF0F3" transform="translate(516.291436, 5367.689691) rotate(-187.000000) translate(-516.291436, -5367.689691) "></path>
                <path d="M442.989322,4972.28042 C453.818217,4986.4602 456.079195,5006.68334 450.605248,5022.95618 C445.101552,5039.25851 431.83318,5051.61054 415.619588,5060.2776 C399.376245,5068.94466 380.187681,5073.89726 361.891609,5068.47298 C343.565787,5063.01922 326.132456,5047.18857 324.585471,5030.59145 C323.068236,5013.99433 337.407596,4996.66021 351.538709,4981.71395 C365.640072,4966.7677 379.533188,4954.26827 396.163276,4952.08676 C412.793365,4949.90526 432.160427,4958.07116 442.989322,4972.28042 Z" id="Path-Copy-26" fill="#FFF6F8" fill-rule="nonzero" transform="translate(388.974762, 5011.236610) rotate(-280.000000) translate(-388.974762, -5011.236610) "></path>
                <path d="M633.49023,4595.0653 C644.319125,4609.24508 646.580103,4629.46822 641.106157,4645.74106 C635.60246,4662.04339 622.334089,4674.39542 606.120496,4683.06248 C589.877154,4691.72954 570.68859,4696.68214 552.392517,4691.25786 C534.066695,4685.8041 516.633364,4669.97345 515.086379,4653.37633 C513.569144,4636.77921 527.908505,4619.44509 542.039618,4604.49883 C556.140981,4589.55258 570.034096,4577.05315 586.664185,4574.87164 C603.294273,4572.69014 622.661336,4580.85604 633.49023,4595.0653 Z" id="Path-Copy-29" fill="#FFF0F3" transform="translate(579.475670, 4634.021490) rotate(-75.000000) translate(-579.475670, -4634.021490) "></path>
                <path d="M1277.25061,716.375464 C1307.97445,757.155291 1314.38932,815.315294 1298.85859,862.114596 C1283.24345,908.99868 1245.5983,944.522064 1199.59695,969.447779 C1153.51118,994.373495 1099.06921,1008.61676 1047.15943,993.016993 C995.165232,977.332444 945.703224,931.804862 941.314104,884.072965 C937.00939,836.341067 977.693158,786.489636 1017.78608,743.505494 C1057.7946,700.521352 1097.21228,664.574062 1144.39532,658.300242 C1191.57836,652.026423 1246.52677,675.510855 1277.25061,716.375464 Z" id="Path" fill="#FFF6F8" fill-rule="nonzero" transform="translate(1124.000000, 828.410113) rotate(32.000000) translate(-1124.000000, -828.410113) "></path>
                <path d="M399.250612,2632.37546 C429.974453,2673.15529 436.389321,2731.31529 420.858588,2778.1146 C405.243449,2824.99868 367.598303,2860.52206 321.596947,2885.44778 C275.511185,2910.37349 221.069213,2924.61676 169.159426,2909.01699 C117.165232,2893.33244 67.703224,2847.80486 63.3141038,2800.07296 C59.0093897,2752.34107 99.6931578,2702.48964 139.786083,2659.50549 C179.794602,2616.52135 219.212277,2580.57406 266.39532,2574.30024 C313.578362,2568.02642 368.526771,2591.51086 399.250612,2632.37546 Z" id="Path-Copy-9" fill="#FFF6F8" fill-rule="nonzero" transform="translate(246.000000, 2744.410113) rotate(32.000000) translate(-246.000000, -2744.410113) "></path>
                <path d="M1274.27522,4313.17836 C1306.0064,4355.12191 1312.63159,4414.94161 1296.59166,4463.07641 C1280.46455,4511.29841 1241.58513,4547.83552 1194.07554,4573.47253 C1146.47876,4599.10955 1090.25181,4613.75927 1036.64006,4597.71434 C982.941142,4581.5822 931.857428,4534.75541 927.324402,4485.6614 C922.87855,4436.56739 964.896212,4385.29336 1006.30366,4341.08259 C1047.62393,4296.87182 1088.33399,4259.89872 1137.06402,4253.44586 C1185.79405,4246.99301 1242.54404,4271.14761 1274.27522,4313.17836 Z" id="Path-Copy-21" fill="#FFF6F8" fill-rule="nonzero" transform="translate(1116.000000, 4428.410113) rotate(-10.000000) translate(-1116.000000, -4428.410113) "></path>
                <path d="M391.275222,4519.23346 C423.006403,4561.17701 429.631594,4620.99671 413.591657,4669.13151 C397.464546,4717.35351 358.585132,4753.89062 311.075535,4779.52763 C263.478764,4805.16465 207.25181,4819.81437 153.640063,4803.76943 C99.9411417,4787.6373 48.8574281,4740.81051 44.3244023,4691.7165 C39.87855,4642.62249 81.8962122,4591.34846 123.303659,4547.13769 C164.623933,4502.92692 205.333991,4465.95381 254.064019,4459.50096 C302.794046,4453.04811 359.544042,4477.20271 391.275222,4519.23346 Z" id="Path-Copy-22" fill="#FFF6F8" fill-rule="nonzero" transform="translate(233.000000, 4634.465211) rotate(-10.000000) translate(-233.000000, -4634.465211) "></path>
                <path d="M610.401682,2552.01909 C619.467733,2564.17319 621.360645,2581.50731 616.777806,2595.45546 C612.17006,2609.42888 601.061656,2620.01634 587.487486,2627.44525 C573.888408,2634.87415 557.823564,2639.11924 542.505922,2634.46986 C527.163373,2629.79521 512.568026,2616.22608 511.272876,2601.99997 C510.002633,2587.77387 522.007679,2572.91605 533.838378,2560.10498 C545.644171,2547.2939 557.275616,2536.58011 571.198481,2534.71025 C585.121346,2532.84038 601.33563,2539.83973 610.401682,2552.01909 Z" id="Path-Copy-13" fill="#FFF6F8" fill-rule="nonzero" transform="translate(565.180190, 2585.410113) rotate(32.000000) translate(-565.180190, -2585.410113) "></path>
                <path d="M1234.35123,3280.79461 C1243.41728,3292.94871 1245.31019,3310.28283 1240.72735,3324.23098 C1236.11961,3338.2044 1225.0112,3348.79186 1211.43703,3356.22077 C1197.83795,3363.64967 1181.77311,3367.89476 1166.45547,3363.24538 C1151.11292,3358.57073 1136.51757,3345.0016 1135.22242,3330.7755 C1133.95218,3316.54939 1145.95722,3301.69158 1157.78792,3288.8805 C1169.59372,3276.06943 1181.22516,3265.35563 1195.14803,3263.48577 C1209.07089,3261.6159 1225.28518,3268.61525 1234.35123,3280.79461 Z" id="Path-Copy-16" fill="#FFF0F3" transform="translate(1189.129735, 3314.185634) rotate(32.000000) translate(-1189.129735, -3314.185634) "></path>
                <path d="M395.507606,2355.4783 C398.865403,2360.0063 399.566482,2366.46411 397.869134,2371.66048 C396.162561,2376.86627 392.048338,2380.81061 387.020867,2383.57824 C381.984172,2386.34588 376.03423,2387.92738 370.361029,2386.19526 C364.678603,2384.45372 359.272919,2379.39855 358.793234,2374.09863 C358.322773,2368.79871 362.769087,2363.26345 367.150827,2358.49069 C371.523343,2353.71794 375.831286,2349.72652 380.987902,2349.02991 C386.144519,2348.3333 392.14981,2350.94089 395.507606,2355.4783 Z" id="Path-Copy-17" fill="#FFF6F8" fill-rule="nonzero" transform="translate(378.758906, 2367.918096) rotate(172.000000) translate(-378.758906, -2367.918096) "></path>
            </g>
        </g>
    </g>
</svg>