<?xml version="1.0" encoding="UTF-8" standalone="no"?><!DOCTYPE svg PUBLIC "-//W3C//DTD SVG 1.1//EN" "http://www.w3.org/Graphics/SVG/1.1/DTD/svg11.dtd"><svg width="100%" height="100%" viewBox="0 0 4857 1999" version="1.1" xmlns="http://www.w3.org/2000/svg" xmlns:xlink="http://www.w3.org/1999/xlink" xml:space="preserve" xmlns:serif="http://www.serif.com/" style="fill-rule:evenodd;clip-rule:evenodd;stroke-linejoin:round;stroke-miterlimit:2;"><rect id="Artboard1" x="0" y="0" width="4856.76" height="1998.15" style="fill:none;"/><clipPath id="_clip1"><rect x="0" y="0" width="4856.76" height="1998.15"/></clipPath><g clip-path="url(#_clip1)"><g><clipPath id="_clip2"><path d="M21.922,-22.293l4808.33,-6.731c18.407,-0.025 33.353,14.879 33.379,33.286l2.767,1975c0.025,18.411 -14.879,33.353 -33.291,33.383l-4808.33,6.73c-18.409,0.025 -33.354,-14.879 -33.379,-33.286l-2.765,-1975c-0.026,-18.411 14.877,-33.357 33.287,-33.382Z"/></clipPath><g clip-path="url(#_clip2)"><g><g><g><clipPath id="_clip3"><path d="M-47.043,2022.21l4911.87,78.859l34.246,-2133.06l-4911.87,-78.86l-34.246,2133.06Z" clip-rule="nonzero"/></clipPath><g clip-path="url(#_clip3)"><path d="M4887.31,2033.4l-4916.66,6.883l-2.916,-2083.33l4916.66,-6.883l2.916,2083.33Z" style="fill:#f0f3ff;"/><g><clipPath id="_clip4"><path d="M72.69,1051.91c92.047,-0.126 166.771,74.387 166.9,166.434l1.866,1333.33c0.129,92.047 -74.386,166.773 -166.433,166.9c-92.047,0.131 -166.771,-74.387 -166.9,-166.434l-1.866,-1333.33c-0.129,-92.047 74.386,-166.769 166.433,-166.9Z"/></clipPath><g clip-path="url(#_clip4)"><clipPath id="_clip5"><path d="M-47.043,2022.21l4911.87,78.859l34.246,-2133.06l-4911.87,-78.86l-34.246,2133.06Z" clip-rule="nonzero"/></clipPath><g clip-path="url(#_clip5)"><path d="M262.552,2739.15l-374.994,0.526l-2.397,-1708.33l374.994,-0.526l2.397,1708.33Z" style="fill:#d1dcff;"/></g></g></g><g><clipPath id="_clip6"><path d="M1485.51,1562.16c92.048,-0.127 166.772,74.386 166.9,166.434l1.867,1333.33c0.128,92.047 -74.386,166.773 -166.433,166.899c-92.048,0.131 -166.772,-74.386 -166.9,-166.434l-1.867,-1333.33c-0.129,-92.048 74.386,-166.77 166.433,-166.9Z"/></clipPath><g clip-path="url(#_clip6)"><clipPath id="_clip7"><path d="M-47.043,2022.21l4911.87,78.859l34.246,-2133.06l-4911.87,-78.86l-34.246,2133.06Z" clip-rule="nonzero"/></clipPath><g clip-path="url(#_clip7)"><path d="M1675.38,3249.4l-374.995,0.526l-2.396,-1708.33l374.994,-0.526l2.397,1708.33Z" style="fill:#f6f8ff;"/></g></g></g><g><clipPath id="_clip8"><path d="M2260.71,-1298.05c46.024,-0.066 83.386,37.193 83.45,83.217l2.1,1500c0.064,46.023 -37.193,83.384 -83.217,83.449c-46.023,0.066 -83.385,-37.193 -83.45,-83.217l-2.1,-1500c-0.064,-46.024 37.193,-83.385 83.217,-83.45Z"/></clipPath><g clip-path="url(#_clip8)"><clipPath id="_clip9"><path d="M-47.043,2022.21l4911.87,78.859l34.246,-2133.06l-4911.87,-78.86l-34.246,2133.06Z" clip-rule="nonzero"/></clipPath><g clip-path="url(#_clip9)"><path d="M2367.24,389.3l-208.32,0.293l-2.404,-1708.33l208.32,-0.293l2.404,1708.33Z" style="fill:#dde5ff;"/></g></g></g><g><clipPath id="_clip10"><path d="M4568.47,-465.065c46.024,-0.066 83.385,37.193 83.45,83.217l2.1,1500c0.066,46.024 -37.193,83.385 -83.217,83.45c-46.023,0.066 -83.384,-37.193 -83.449,-83.217l-2.101,-1500c-0.065,-46.023 37.194,-83.384 83.217,-83.449Z"/></clipPath><g clip-path="url(#_clip10)"><clipPath id="_clip11"><path d="M-47.043,2022.21l4911.87,78.859l34.246,-2133.06l-4911.87,-78.86l-34.246,2133.06Z" clip-rule="nonzero"/></clipPath><g clip-path="url(#_clip11)"><path d="M4674.99,1222.29l-208.321,0.293l-2.404,-1708.33l208.321,-0.293l2.404,1708.33Z" style="fill:#f6f8ff;"/></g></g></g><g><clipPath id="_clip12"><path d="M166.206,-619.087c46.024,-0.066 83.385,37.193 83.45,83.217l0.933,666.667c0.064,46.024 -37.193,83.385 -83.217,83.45c-46.023,0.061 -83.385,-37.193 -83.45,-83.217l-0.933,-666.668c-0.064,-46.023 37.193,-83.384 83.217,-83.449Z"/></clipPath><g clip-path="url(#_clip12)"><clipPath id="_clip13"><path d="M-47.043,2022.21l4911.87,78.859l34.246,-2133.06l-4911.87,-78.86l-34.246,2133.06Z" clip-rule="nonzero"/></clipPath><g clip-path="url(#_clip13)"><path d="M271.568,234.935l-208.327,0.293l-1.231,-875.003l208.327,-0.293l1.231,875.003Z" style="fill:#4875ff;"/></g></g></g><g><clipPath id="_clip14"><path d="M807.171,-311.471c92.047,-0.127 166.771,74.387 166.9,166.434l1.866,1333.33c0.129,92.047 -74.386,166.773 -166.433,166.9c-92.048,0.13 -166.771,-74.387 -166.9,-166.434l-1.866,-1333.33c-0.129,-92.048 74.386,-166.769 166.433,-166.9Z"/></clipPath><g clip-path="url(#_clip14)"><clipPath id="_clip15"><path d="M-47.043,2022.21l4911.87,78.859l34.246,-2133.06l-4911.87,-78.86l-34.246,2133.06Z" clip-rule="nonzero"/></clipPath><g clip-path="url(#_clip15)"><path d="M997.033,1375.77l-374.994,0.526l-2.397,-1708.33l374.994,-0.526l2.397,1708.33Z" style="fill:#f6f8ff;"/></g></g></g><g><clipPath id="_clip16"><path d="M2746.91,-695.595c138.071,-0.192 250.156,111.58 250.35,249.651l1.632,1166.66c0.194,138.071 -111.578,250.158 -249.649,250.35c-138.071,0.196 -250.157,-111.576 -250.35,-249.647l-1.633,-1166.67c-0.193,-138.071 111.579,-250.158 249.65,-250.35Z"/></clipPath><g clip-path="url(#_clip16)"><clipPath id="_clip17"><path d="M-47.043,2022.21l4911.87,78.859l34.246,-2133.06l-4911.87,-78.86l-34.246,2133.06Z" clip-rule="nonzero"/></clipPath><g clip-path="url(#_clip17)"><path d="M3020.1,991.525l-541.664,0.759l-2.393,-1708.33l541.663,-0.759l2.394,1708.33Z" style="fill:#4875ff;"/></g></g></g><g><clipPath id="_clip18"><path d="M4043.81,546.218c138.071,-0.192 250.158,111.58 250.35,249.651l1.635,1166.66c0.191,138.07 -111.581,250.157 -249.651,250.349c-138.072,0.196 -250.158,-111.576 -250.351,-249.647l-1.633,-1166.67c-0.193,-138.071 111.579,-250.158 249.65,-250.349Z"/></clipPath><g clip-path="url(#_clip18)"><clipPath id="_clip19"><path d="M-47.043,2022.21l4911.87,78.859l34.246,-2133.06l-4911.87,-78.86l-34.246,2133.06Z" clip-rule="nonzero"/></clipPath><g clip-path="url(#_clip19)"><path d="M4317,2233.34l-541.663,0.759l-2.393,-1708.33l541.663,-0.759l2.393,1708.33Z" style="fill:#4875ff;"/></g></g></g><g><clipPath id="_clip20"><path d="M4699.45,1496.55c207.106,-0.292 375.237,167.366 375.524,374.473l1.286,916.667c0.287,207.107 -167.371,375.233 -374.477,375.525c-207.106,0.288 -375.232,-167.37 -375.524,-374.477l-1.281,-916.663c-0.292,-207.107 167.366,-375.237 374.472,-375.525Z"/></clipPath><g clip-path="url(#_clip20)"><clipPath id="_clip21"><path d="M-47.043,2022.21l4911.87,78.859l34.246,-2133.06l-4911.87,-78.86l-34.246,2133.06Z" clip-rule="nonzero"/></clipPath><g clip-path="url(#_clip21)"><path d="M5097.65,3183.49l-791.667,1.108l-2.392,-1708.33l791.668,-1.108l2.391,1708.33Z" style="fill:#07102a;"/></g></g></g><g><clipPath id="_clip22"><path d="M2120.42,1727.99c138.071,-0.192 250.156,111.58 250.349,249.651l1.633,1166.66c0.194,138.071 -111.578,250.158 -249.65,250.35c-138.071,0.196 -250.156,-111.576 -250.349,-249.647l-1.633,-1166.67c-0.194,-138.071 111.578,-250.158 249.65,-250.35Z"/></clipPath><g clip-path="url(#_clip22)"><clipPath id="_clip23"><path d="M-47.043,2022.21l4911.87,78.859l34.246,-2133.06l-4911.87,-78.86l-34.246,2133.06Z" clip-rule="nonzero"/></clipPath><g clip-path="url(#_clip23)"><path d="M2393.62,3415.11l-541.664,0.759l-2.394,-1708.33l541.664,-0.759l2.394,1708.33Z" style="fill:#4875ff;"/></g></g></g></g></g></g></g></g></g></g></svg>