<?xml version="1.0" encoding="UTF-8" standalone="no"?><!DOCTYPE svg PUBLIC "-//W3C//DTD SVG 1.1//EN" "http://www.w3.org/Graphics/SVG/1.1/DTD/svg11.dtd"><svg width="100%" height="100%" viewBox="0 0 1465 625" version="1.1" xmlns="http://www.w3.org/2000/svg" xmlns:xlink="http://www.w3.org/1999/xlink" xml:space="preserve" xmlns:serif="http://www.serif.com/" style="fill-rule:evenodd;clip-rule:evenodd;stroke-linejoin:round;stroke-miterlimit:2;"><g><clipPath id="_clip1"><rect x="-1.083" y="-0.208" width="1467" height="625.5" clip-rule="nonzero"/></clipPath><g clip-path="url(#_clip1)"><path d="M1467.66,642.644l-1470,1.097l-0.496,-664.499l1470,-1.097l0.496,664.499Z" style="fill:#07102a;"/><g><clipPath id="_clip2"><path d="M92.314,556.385c10.914,15.358 19.969,30.172 18.898,45.514c-1.071,15.344 -12.267,31.247 -27.372,38.66c-15.139,7.381 -34.186,6.271 -54.727,-0.102c-20.51,-6.407 -42.515,-18.077 -50.015,-36.957c-7.501,-18.879 -0.499,-44.97 14.696,-61.874c15.195,-16.903 38.55,-24.621 56.661,-20.544c18.111,4.076 30.915,19.977 41.859,35.303Z" clip-rule="nonzero"/></clipPath><g clip-path="url(#_clip2)"><clipPath id="_clip3"><path d="M-1.083,625.292l1467,0l0,-625.5l-1467,0l0,625.5Z" clip-rule="nonzero"/></clipPath><g clip-path="url(#_clip3)"><path d="M119.726,652.14l-149.977,2.619l-2.461,-140.979l149.976,-2.619l2.462,140.979Z" style="fill:#4875ff;"/></g></g></g><g><clipPath id="_clip4"><path d="M-30.346,120.195c-15.051,-34.882 -9.297,-77.847 10.391,-108.666c19.765,-30.862 53.526,-49.563 91.469,-59.131c38.004,-9.554 80.175,-9.912 115.156,10.719c35.026,20.706 62.863,62.403 57.503,97.504c-5.421,35.087 -43.96,63.534 -80.839,87.153c-36.818,23.636 -71.945,42.32 -107.405,38.267c-35.461,-4.052 -71.239,-30.9 -86.275,-65.846Z" clip-rule="nonzero"/></clipPath><g clip-path="url(#_clip4)"><clipPath id="_clip5"><path d="M-1.083,625.292l1467,0l0,-625.5l-1467,0l0,625.5Z" clip-rule="nonzero"/></clipPath><g clip-path="url(#_clip5)"><path d="M-6.718,-97.8l280.9,70.037l-64.956,260.524l-280.9,-70.036l64.956,-260.525Z" style="fill:#273356;"/></g></g></g><g><clipPath id="_clip6"><path d="M1189.41,343.962c56.369,49.274 119.88,112.376 129.344,199.073c9.465,86.698 -34.82,196.839 -114.822,237.54c-79.849,40.851 -195.418,12.112 -284.257,-40.944c-88.99,-53.055 -151.405,-130.728 -179.577,-223.401c-28.171,-92.672 -22.102,-200.495 32.662,-251.708c54.618,-51.061 157.928,-45.663 234.345,-25.243c76.416,20.269 125.937,55.41 182.305,104.683Z" clip-rule="nonzero"/></clipPath><g clip-path="url(#_clip6)"><clipPath id="_clip7"><path d="M-1.083,625.292l1467,0l0,-625.5l-1467,0l0,625.5Z" clip-rule="nonzero"/></clipPath><g clip-path="url(#_clip7)"><path d="M1331.69,803.682l-608.534,10.623l-10.369,-594.021l608.534,-10.623l10.369,594.021Z" style="fill:#18254a;"/></g></g></g><g><clipPath id="_clip8"><path d="M1279.15,85.695c-15.051,-34.882 -9.297,-77.847 10.391,-108.666c19.765,-30.862 53.526,-49.563 91.469,-59.131c38.004,-9.554 80.175,-9.912 115.155,10.719c35.027,20.706 62.864,62.403 57.504,97.504c-5.421,35.087 -43.96,63.534 -80.839,87.153c-36.818,23.636 -71.945,42.32 -107.405,38.267c-35.461,-4.052 -71.239,-30.9 -86.275,-65.846Z" clip-rule="nonzero"/></clipPath><g clip-path="url(#_clip8)"><clipPath id="_clip9"><path d="M-1.083,625.292l1467,0l0,-625.5l-1467,0l0,625.5Z" clip-rule="nonzero"/></clipPath><g clip-path="url(#_clip9)"><path d="M1302.78,-132.3l280.9,70.037l-64.956,260.524l-280.9,-70.036l64.956,-260.525Z" style="fill:#18254a;"/></g></g></g><g><clipPath id="_clip10"><path d="M1046.26,-275.32c47.146,60.357 58.29,147.415 36.222,218.01c-22.191,70.725 -77.721,124.987 -146.06,163.573c-68.465,38.591 -149.743,61.377 -228.004,39.339c-78.39,-22.161 -153.764,-89.148 -161.596,-160.62c-7.705,-71.473 52.006,-147.304 111.011,-212.82c58.878,-65.514 117.055,-120.459 187.654,-131.103c70.6,-10.645 153.625,23.138 200.773,83.621Z" clip-rule="nonzero"/></clipPath><g clip-path="url(#_clip10)"><clipPath id="_clip11"><path d="M-1.083,625.292l1467,0l0,-625.5l-1467,0l0,625.5Z" clip-rule="nonzero"/></clipPath><g clip-path="url(#_clip11)"><path d="M1105.92,155.933l-563.913,9.844l-9.222,-528.271l563.912,-9.845l9.223,528.272Z" style="fill:#4875ff;"/></g></g></g></g></g></svg>