<?xml version="1.0" encoding="utf-8"?>
<svg viewBox="0 0 500 136" fill="none" xmlns="http://www.w3.org/2000/svg">
  <defs>
    <filter id="filter0_d" x="196" y="28" width="108" height="108" filterUnits="userSpaceOnUse" color-interpolation-filters="sRGB">
      <feFlood flood-opacity="0" result="BackgroundImageFix"/>
      <feColorMatrix in="SourceAlpha" type="matrix" values="0 0 0 0 0 0 0 0 0 0 0 0 0 0 0 0 0 0 127 0"/>
      <feOffset dy="2"/>
      <feGaussianBlur stdDeviation="2"/>
      <feColorMatrix type="matrix" values="0 0 0 0 0.953205 0 0 0 0 0.953205 0 0 0 0 0.953205 0 0 0 0.5 0"/>
      <feBlend mode="normal" in2="BackgroundImageFix" result="effect1_dropShadow"/>
      <feBlend mode="normal" in="SourceGraphic" in2="effect1_dropShadow" result="shape"/>
    </filter>
  </defs>
  <path d="M0 4C0 1.79086 1.79086 0 4 0H496C498.209 0 500 1.79086 500 4V80H0V4Z" fill="#F8F8F8"/>
  <g filter="url(#filter0_d)">
    <rect x="200" y="30" width="100" height="100" rx="49.5" fill="white"/>
  </g>
  <path d="M265 63H235C232.242 63 230 65.2422 230 68V90.5C230 93.2578 232.242 95.5 235 95.5H242.5V102.062C242.5 102.828 243.375 103.273 243.992 102.82L253.75 95.5H265C267.758 95.5 270 93.2578 270 90.5V68C270 65.2422 267.758 63 265 63ZM258.914 75.7969L248.68 85.9531C248.344 86.2891 247.797 86.2891 247.461 85.9453L241.547 79.9844C241.211 79.6484 241.219 79.1016 241.555 78.7656L243.586 76.75C243.922 76.4141 244.469 76.4219 244.805 76.7578L248.094 80.0781L255.688 72.5469C256.023 72.2109 256.57 72.2188 256.906 72.5547L258.922 74.5859C259.25 74.9219 259.25 75.4688 258.914 75.7969Z" fill="#AF7FDD"/>
</svg>