<svg class="hub-configs-service-icon hub-configs-service-icon--left" xmlns="http://www.w3.org/2000/svg" viewBox="0 0 180 180">
  <rect width="100%" height="100%" fill="#1A325E"/>
  <path fill="#1A325E" d="M0 90c0-23.262 0-34.893 2.943-44.338a65 65 0 0142.72-42.719C55.106 0 66.737 0 90 0c23.262 0 34.893 0 44.338 2.943a65 65 0 0142.719 42.72C180 55.106 180 66.737 180 90c0 23.262 0 34.893-2.943 44.338a65 65 0 01-42.719 42.719C124.893 180 113.262 180 90 180s-34.893 0-44.338-2.943a65 65 0 01-42.719-42.719C0 124.893 0 113.262 0 90z"/>
  <path fill="#fff" d="M69.988 129.902a44.435 44.435 0 01-14.001-10.765 44.77 44.77 0 01-8.74-15.398 44.973 44.973 0 012.758-34.652 44.65 44.65 0 0111.064-13.8 44.322 44.322 0 0115.525-8.385 44.138 44.138 0 0117.543-1.648 44.209 44.209 0 0116.799 5.347l-4.086 7.912a35.322 35.322 0 00-25.767-2.73 35.552 35.552 0 00-20.758 15.609 35.958 35.958 0 00-4.708 25.645 35.79 35.79 0 0013.845 22.044 35.363 35.363 0 0025.035 6.72 35.463 35.463 0 0022.912-12.178 35.906 35.906 0 008.603-24.6 35.889 35.889 0 00-9.102-22.685v8.002h-4.5v-18h18v4.5h-6.417a44.849 44.849 0 0110.888 26.194 44.906 44.906 0 01-8.536 29.776 44.387 44.387 0 01-25.722 17.034 44.152 44.152 0 01-30.546-3.897l-.089-.045z"/>
  <path fill="#fff" d="M108.36 75.51l-4.734 6.78L91.17 62.64l-7.605 4.86 4.353 6.84H67.455v9h7.965L64.125 99.495l7.38 5.13L86.4 83.34h7.245l4.409 6.929-4.589 6.571H86.22l-4.41-6.93-5.58 7.965 12.465 19.665 7.605-4.86-4.353-6.84h20.463v-9h-7.965l11.295-16.155-7.38-5.175z"/>
</svg>
