<svg width="16" height="16" viewBox="0 0 16 16" fill="none" xmlns="http://www.w3.org/2000/svg">
<path d="M5.87799 2H9.64632L5.73432 13.591C5.65199 13.8353 5.42299 13.9997 5.16499 13.9997H2.23232C1.90099 13.9997 1.63232 13.731 1.63232 13.3997C1.63232 13.3343 1.64299 13.2697 1.66366 13.2077L5.30866 2.409C5.39099 2.16467 5.61999 2 5.87799 2Z" fill="url(#paint0_linear_10707_58470)"/>
<path d="M11.354 9.77539H5.37832C5.22565 9.77506 5.10165 9.89906 5.10132 10.0517C5.10132 10.1287 5.13299 10.2021 5.18932 10.2544L9.02932 13.8384C9.14098 13.9427 9.28832 14.0007 9.44132 14.0007H12.825L11.354 9.77539Z" fill="#0078D4"/>
<path d="M5.87803 2C5.61703 1.999 5.38603 2.168 5.30737 2.41667L1.66837 13.1983C1.5567 13.5097 1.7187 13.853 2.03003 13.9647C2.09537 13.988 2.16437 14 2.23403 14H5.2427C5.4707 13.9593 5.65937 13.799 5.73637 13.5803L6.46203 11.4417L9.05403 13.8593C9.1627 13.9493 9.29903 13.999 9.44003 14H12.8114L11.3327 9.77467L7.02237 9.77567L9.66003 2H5.87803Z" fill="url(#paint1_linear_10707_58470)"/>
<path d="M10.6913 2.40833C10.6089 2.16433 10.3803 2 10.1226 2H5.92261C6.17994 2 6.40894 2.16433 6.49094 2.408L10.1359 13.2077C10.2419 13.5217 10.0733 13.862 9.75927 13.968C9.69761 13.9893 9.63294 14 9.56761 14H13.7676C14.0989 14 14.3676 13.7313 14.3676 13.3997C14.3676 13.3343 14.3569 13.2697 14.3359 13.208L10.6913 2.40833Z" fill="url(#paint2_linear_10707_58470)"/>
<defs>
<linearGradient id="paint0_linear_10707_58470" x1="7.25155" y1="2.88942" x2="3.33801" y2="14.4509" gradientUnits="userSpaceOnUse">
<stop stop-color="#114A8B"/>
<stop offset="1" stop-color="#0669BC"/>
</linearGradient>
<linearGradient id="paint1_linear_10707_58470" x1="8.47399" y1="8.27692" x2="7.56878" y2="8.58317" gradientUnits="userSpaceOnUse">
<stop stop-opacity="0.3"/>
<stop offset="0.071" stop-opacity="0.2"/>
<stop offset="0.321" stop-opacity="0.1"/>
<stop offset="0.623" stop-opacity="0.05"/>
<stop offset="1" stop-opacity="0"/>
</linearGradient>
<linearGradient id="paint2_linear_10707_58470" x1="8.00411" y1="2.5415" x2="12.2999" y2="13.9868" gradientUnits="userSpaceOnUse">
<stop stop-color="#3CCBF4"/>
<stop offset="1" stop-color="#2892DF"/>
</linearGradient>
</defs>
</svg>
