<svg width="30" height="30" viewBox="0 0 30 30" fill="none" xmlns="http://www.w3.org/2000/svg">
<rect width="30" height="30" rx="4" fill="#1C2549"/>
<path d="M12.878 9H16.6463L12.7343 20.591C12.652 20.8353 12.423 20.9997 12.165 20.9997H9.23232C8.90099 20.9997 8.63232 20.731 8.63232 20.3997C8.63232 20.3343 8.64299 20.2697 8.66366 20.2077L12.3087 9.409C12.391 9.16467 12.62 9 12.878 9Z" fill="url(#paint0_linear_10545_192628)"/>
<path d="M18.3542 16.7754H12.3786C12.2259 16.7751 12.1019 16.8991 12.1016 17.0517C12.1016 17.1287 12.1332 17.2021 12.1896 17.2544L16.0296 20.8384C16.1412 20.9427 16.2886 21.0007 16.4416 21.0007H19.8252L18.3542 16.7754Z" fill="#0078D4"/>
<path d="M12.8778 9C12.6168 8.999 12.3858 9.168 12.3071 9.41667L8.66812 20.1983C8.55646 20.5097 8.71846 20.853 9.02979 20.9647C9.09512 20.988 9.16412 21 9.23379 21H12.2425C12.4705 20.9593 12.6591 20.799 12.7361 20.5803L13.4618 18.4417L16.0538 20.8593C16.1625 20.9493 16.2988 20.999 16.4398 21H19.8111L18.3325 16.7747L14.0221 16.7757L16.6598 9H12.8778Z" fill="url(#paint1_linear_10545_192628)"/>
<path d="M17.6915 9.40833C17.6092 9.16433 17.3805 9 17.1229 9H12.9229C13.1802 9 13.4092 9.16433 13.4912 9.408L17.1362 20.2077C17.2422 20.5217 17.0735 20.862 16.7595 20.968C16.6979 20.9893 16.6332 21 16.5679 21H20.7679C21.0992 21 21.3679 20.7313 21.3679 20.3997C21.3679 20.3343 21.3572 20.2697 21.3362 20.208L17.6915 9.40833Z" fill="url(#paint2_linear_10545_192628)"/>
<defs>
<linearGradient id="paint0_linear_10545_192628" x1="14.2516" y1="9.88942" x2="10.338" y2="21.4509" gradientUnits="userSpaceOnUse">
<stop stop-color="#114A8B"/>
<stop offset="1" stop-color="#0669BC"/>
</linearGradient>
<linearGradient id="paint1_linear_10545_192628" x1="15.4737" y1="15.2769" x2="14.5685" y2="15.5832" gradientUnits="userSpaceOnUse">
<stop stop-opacity="0.3"/>
<stop offset="0.071" stop-opacity="0.2"/>
<stop offset="0.321" stop-opacity="0.1"/>
<stop offset="0.623" stop-opacity="0.05"/>
<stop offset="1" stop-opacity="0"/>
</linearGradient>
<linearGradient id="paint2_linear_10545_192628" x1="15.0044" y1="9.5415" x2="19.3002" y2="20.9868" gradientUnits="userSpaceOnUse">
<stop stop-color="#3CCBF4"/>
<stop offset="1" stop-color="#2892DF"/>
</linearGradient>
</defs>
</svg>
