<svg width="130" height="130" viewBox="0 0 130 130" fill="none" xmlns="http://www.w3.org/2000/svg">
<circle cx="65" cy="65" r="64" fill="#A5A0D2"/>
<mask id="mask0_801_146921" style="mask-type:luminance" maskUnits="userSpaceOnUse" x="1" y="1" width="128" height="128">
<circle cx="65" cy="65" r="64" fill="white"/>
</mask>
<g mask="url(#mask0_801_146921)">
<path d="M78.0128 33.3369C78.0403 33.2805 78.0633 33.2199 78.083 33.1571C78.1426 33.1268 78.188 33.0686 78.2082 32.9901C78.2234 32.9571 78.233 32.92 78.2307 32.875C78.2302 32.8603 78.228 32.847 78.227 32.8324C78.2417 32.5778 78.2399 32.2801 78.144 32.0476C78.1468 32.0444 78.15 32.0435 78.1527 32.0403C78.5344 31.5967 79.6119 29.9034 78.3977 29.813C78.1133 29.7919 77.2812 29.9653 77.0688 30.2061C76.6486 30.6831 77.038 31.472 77.0146 32.0618C76.983 32.1568 76.9724 32.2618 76.9954 32.3732C77.0064 32.4274 77.0344 32.4691 77.0697 32.5017C76.966 32.6971 76.928 32.9342 76.9458 33.1401C76.9564 33.2603 76.9867 33.3589 77.0243 33.4538C76.9413 33.5974 76.8867 33.7754 76.8564 33.968C76.5023 34.6367 76.1408 35.4128 77.038 35.6678C77.5669 35.8182 79.4702 36.0141 79.405 35.0504C79.3812 34.7051 78.6165 33.7561 78.0128 33.3369Z" fill="#3E225E"/>
<path d="M77.1133 31.4051C76.6903 31.3455 76.1812 31.4189 75.7532 31.4221C75.3628 31.4253 74.9665 31.4092 74.577 31.4427C74.572 31.4432 74.5692 31.4464 74.5647 31.4473C74.2073 31.3964 73.7303 31.3281 73.5523 31.6569C73.3592 32.0124 73.55 32.7687 73.6926 33.1118C73.8702 33.5402 74.1339 33.5727 74.5871 33.5503C75.0954 33.5255 75.6564 33.5195 76.1862 33.4727C76.4211 33.5149 76.6729 33.5594 76.8692 33.5489C77.4481 33.5172 77.466 32.8513 77.5124 32.3857C77.5532 31.9793 77.6069 31.4748 77.1133 31.4051Z" fill="#666666"/>
<mask id="mask1_801_146921" style="mask-type:luminance" maskUnits="userSpaceOnUse" x="39" y="6" width="36" height="50">
<path fill-rule="evenodd" clip-rule="evenodd" d="M74.7488 6H39.1262V55.4634H74.7488V6V6Z" fill="white"/>
</mask>
<g mask="url(#mask1_801_146921)">
<path d="M47.8155 55.4633C47.3174 55.3285 41.5958 48.4867 39.6018 38.9883C37.6078 29.4904 42.5293 25.1841 42.5293 25.1841C42.5293 25.1841 41.033 17.4029 53.461 13.4809C65.8889 9.5594 72.2307 7.60552 73.8481 5.99976C75.6394 7.44866 75.4137 19.5627 66.9848 21.9276C58.5559 24.2924 47.8155 55.4633 47.8155 55.4633Z" fill="#FEF202"/>
</g>
<path d="M69.7559 16.3605C67.5068 17.1384 65.3091 16.5265 63.0073 16.3834C60.7243 16.2417 58.6344 16.4761 56.4706 17.2434C54.511 17.9383 52.6087 18.8735 50.9532 20.1316C50.1532 20.7393 49.4426 21.4892 48.7027 22.1717C48.3334 22.512 47.2844 23.9568 46.6036 24.365C46.5266 24.3581 46.4481 24.387 46.3903 24.4608C46.3399 24.4741 46.2917 24.4801 46.249 24.4723C46.1541 24.4553 46.1293 24.6278 46.2206 24.6512C46.2477 24.6581 46.2734 24.6562 46.2995 24.659C46.2467 24.8273 46.3839 24.9741 46.5371 25.0016C46.9821 25.0823 46.6238 28.4337 46.5591 28.8612C46.3766 30.0661 46.1816 31.4315 45.6101 32.5231C45.5243 32.6873 45.6376 32.9602 45.855 32.896C46.999 32.5603 47.3981 32.2415 47.65 31.0224C47.9389 29.623 48.0821 28.1673 48.5495 26.8069C49.1169 25.152 50.1692 24.0113 51.7252 23.2917C53.1445 22.6354 54.6862 21.9662 56.211 21.6075C59.6068 20.8085 63.3678 21.0727 66.7692 21.7144C67.9445 21.9359 68.3867 22.0744 68.888 20.9415C69.4587 19.6532 69.8229 18.1832 70.144 16.8132C70.1958 16.593 70.0289 16.266 69.7559 16.3605Z" fill="#FFE113"/>
<path d="M43.3244 41.4212C43.3244 41.4212 41.2648 49.5688 44.0616 51.4548C46.8584 53.3408 49.3602 43.8448 49.3602 43.8448C49.3602 43.8448 46.8235 38.5321 46.6882 38.3303C46.5528 38.1285 43.3244 41.4212 43.3244 41.4212Z" fill="#DEB18A"/>
<path d="M48.2821 41.5939C46.7372 41.6255 45.4844 42.2539 44.5276 43.6436C43.9665 44.4582 43.5257 45.3462 43.1496 46.2566C42.9812 46.6643 42.9592 47.2766 42.5005 47.8509V47.8527C42.5005 48.0454 42.5876 48.2343 42.6087 48.421C42.6129 48.4591 42.7445 48.4962 42.7491 48.5338C42.772 48.7187 42.5005 48.9008 42.9592 49.0764V49.0778C42.9592 48.7907 43.1092 48.4981 43.222 48.2018C43.4211 47.7816 43.545 47.3441 43.712 46.9028C44.1528 45.9424 44.6257 45.0389 45.2601 44.1885C45.628 43.6954 45.8349 43.2661 46.4101 43.0088C47.0037 42.7433 47.6629 42.6635 48.3097 42.6873C48.4771 42.6933 48.6459 42.6979 48.817 42.7024C48.6574 42.3695 48.4725 41.9897 48.2821 41.5939Z" fill="#BA8F6D"/>
<path d="M20.5311 97.8845C20.5311 97.8845 18.6775 105.042 25.372 111.309C27.533 113.16 24.5275 117.989 33.7187 136.248C38.3353 143.664 46.6398 152.711 46.6398 152.711C46.6398 152.711 52.0646 148.415 52.1467 147.31C52.2284 146.205 46.6398 111.309 46.6398 111.309L28.6775 91.4229C28.6775 91.4229 22.3811 87.8504 20.5311 97.8845Z" fill="#3E225E"/>
<path d="M50.1244 142.71C49.1285 137.783 46.212 130.949 45.2771 128.276C44.3427 125.603 42.5817 120.499 42.5817 120.499C42.5817 120.499 35.4799 116.325 29.5689 104.717C26.5537 100.993 20.5312 97.8844 20.5312 97.8844C20.5312 97.8844 21.578 89.3744 27.367 86.4096L31.0813 85.3245C31.0813 85.3245 37.1299 73.4805 58.8363 67.0657C80.5427 60.6509 73.7331 58.7906 89.5813 59.5529C101.959 56.3198 117.656 47.7622 125.352 63.9491C122.542 65.9053 111.064 79.2339 110.534 88.1553C110.004 97.0762 103.731 105.129 101.01 108.251C98.2886 111.373 98.9147 128.791 99.3721 129.424C102.459 132.775 107.432 139.903 106.431 152.711C105.429 165.518 68.8771 150.844 68.8771 150.844L50.1244 142.71Z" fill="#977558"/>
<path d="M75.2859 71.7116C76.4762 71.0947 77.3372 69.6431 77.9872 68.5244C78.8556 67.0301 79.8859 65.6381 80.6505 64.0837C81.0326 63.3067 81.3404 62.5142 81.5946 61.6867C81.7854 61.0643 82.2877 60.1025 82.3258 59.4279C77.7391 59.6251 76.5102 60.6451 71.3478 62.7628C70.4753 63.9397 69.595 65.1125 68.6657 66.244C68.0726 66.965 67.4391 67.6534 66.8418 68.3703C66.5547 68.7152 66.2909 69.0757 66.0258 69.4367C66.0446 69.411 65.5482 70.1811 65.5684 70.1765C65.4849 70.1958 65.4423 70.2591 65.4331 70.3297C65.3914 70.3109 65.3533 70.3673 65.3845 70.4017C65.4065 70.4265 65.4313 70.4435 65.4551 70.4618C65.4891 70.532 65.557 70.5829 65.6524 70.5636C65.6556 70.5627 65.6588 70.5604 65.662 70.5595C65.8904 70.6177 66.1515 70.5797 66.3602 70.7237C66.4593 70.7925 66.5528 70.7397 66.5964 70.6558C68.1597 70.8223 69.6684 71.2768 71.2097 71.5786C72.5914 71.8492 73.9648 72.3964 75.2859 71.7116Z" fill="#886752"/>
<path d="M125.352 63.9489C125.352 63.9489 140.244 69.4046 146.036 94.3198C143.112 105.322 140.207 107.768 137.914 108.839C135.62 109.909 127.593 106.809 120.292 103.084C112.99 99.3596 106.776 85.5998 108.507 76.1207C110.238 66.6421 125.352 63.9489 125.352 63.9489Z" fill="#977558"/>
<path d="M125.352 103.084C126.114 105.84 123.87 105.339 126.424 110.722C128.978 116.106 128.188 116.569 143.169 127.491C158.15 138.412 158.636 136.953 158.636 136.953C158.636 136.953 157.001 130.301 155.333 121.758C153.665 113.214 150.948 98.4529 146.036 94.3199C141.125 90.1865 125.352 103.084 125.352 103.084Z" fill="#977558"/>
<path d="M154.619 118.089C153.592 117.762 152.255 115.987 151.744 115.67C150.978 115.194 150.008 112.932 149.142 112.718C147.911 112.413 146.741 111.868 145.213 112.159C143.983 112.393 140.087 111.949 138.994 112.554C138.101 110.079 137.551 110.188 136.6 107.748C135.881 105.903 134.812 103.118 136.827 101.85C138.101 101.048 139.677 100.679 140.933 99.8436C142.069 99.0891 142.131 97.1536 140.549 96.8559C137.297 96.2436 134.814 99.113 132.384 100.641C131.973 100.899 131.58 101.076 131.146 101.296C130.931 101.404 130.048 102.087 130.242 101.703C130.493 101.206 131.175 100.742 131.507 100.273C132.478 98.8992 133.245 97.3104 133.886 95.7588C135.025 92.9981 133.312 90.3677 132.234 87.7612C130.787 84.2639 129.09 80.9161 126.351 78.2513C123.71 75.6819 120.711 73.4932 117.492 71.7045C116.39 71.0917 115.075 70.1106 113.757 70.1689C115.498 75.0559 113.857 77.4537 112.641 80.8478C112.946 81.7495 107.078 83.2516 107.72 83.6773C108.528 84.2134 108.748 84.129 109.492 84.8276C110.877 86.1288 111.484 88.2914 112.338 89.9944C114.105 93.5182 116.493 96.9481 119.326 99.6955C122.148 102.433 125.611 104.235 128.027 107.417C130.425 110.576 132.397 114.356 133.885 118.065C133.495 118.343 137.493 123.071 138.251 122.28C139.315 121.169 135.456 120.802 136.671 120.013C138.246 119.276 139.899 118.572 141.539 118.019C143.504 117.356 145.113 116.475 147.266 117.165C147.977 117.394 148.641 117.734 149.301 118.087C149.669 118.45 149.551 118.722 150.268 118.995C150.655 119.143 151.125 119.194 151.628 119.185C151.747 119.21 151.857 119.204 151.955 119.171C153.156 119.091 154.487 118.708 155.35 118.41C156.072 118.16 155.431 118.348 154.619 118.089Z" fill="#886752"/>
<path d="M47.5474 70.4972C47.5474 70.4972 43.6699 71.9512 44.0942 74.0711C44.5181 76.1914 45.2685 76.9478 49.2341 81.0665C53.2002 85.1857 54.0883 88.9408 55.4772 88.5018C56.8662 88.0629 57.6222 84.6051 61.9447 80.6707C66.2676 76.7363 78.2231 62.9202 79.8809 61.1965C81.5383 59.4724 76.9905 59.1697 76.1424 59.2908C75.2942 59.4119 47.5474 70.4972 47.5474 70.4972Z" fill="#3B3F47"/>
<path d="M76.1425 59.2907C75.9824 59.3136 74.8622 59.7278 73.1517 60.3841C72.9567 60.6222 72.7599 60.8584 72.576 61.1056C71.292 62.8306 70.0315 64.5818 68.6654 66.2439C68.0723 66.965 67.4388 67.6534 66.8416 68.3703C66.5544 68.7152 66.2907 69.0762 66.0255 69.4367C66.0448 69.411 65.5485 70.1811 65.5682 70.1769C65.4847 70.1957 65.442 70.2595 65.4329 70.3297C65.3911 70.3113 65.353 70.3673 65.3842 70.4021C65.4063 70.4264 65.431 70.4434 65.4549 70.4618C65.4888 70.5319 65.5567 70.5829 65.6521 70.5636C65.6553 70.5627 65.6586 70.5604 65.6618 70.5595C65.8902 70.6177 66.1512 70.5796 66.3599 70.7237C66.459 70.7925 66.5526 70.7397 66.5962 70.6558C67.981 70.803 69.3232 71.1764 70.6829 71.4694C74.8769 66.8246 78.9618 62.1523 79.8806 61.1964C81.5384 59.4723 76.9907 59.1696 76.1425 59.2907Z" fill="#222838"/>
<path d="M126.424 110.723C128.491 115.08 128.371 116.215 136.191 122.28C137.293 121.521 138.57 121.022 139.887 120.723C140.164 120.66 140.206 120.25 139.985 120.099C138.902 119.362 138.047 118.384 137.085 117.506C136.153 116.655 135.139 115.894 134.257 114.989C133.323 114.028 132.394 113.029 131.514 112.018C130.621 110.991 130.235 109.833 129.657 108.631C129.17 107.619 128.524 106.668 127.98 105.684C127.472 104.765 126.932 103.826 126.124 103.135C125.986 103.018 125.838 102.916 125.691 102.812C125.475 102.983 125.352 103.084 125.352 103.084C126.114 105.84 123.87 105.339 126.424 110.723Z" fill="#3E225E"/>
<path d="M120.291 103.084C123.111 104.522 126.037 105.866 128.7 106.913C128.455 106.505 128.209 106.097 127.98 105.684C127.472 104.765 126.933 103.826 126.124 103.136C125.336 102.463 124.368 102.054 123.531 101.451C122.594 100.777 121.556 99.9308 120.832 99.0328C119.122 96.9096 119.584 94.2558 119.216 91.7662C119.056 90.6806 118.714 89.6743 118.194 88.7107C117.629 87.6649 117.234 86.5852 116.601 85.5785C116.051 84.7043 115.971 83.7746 115.221 83.0127C114.431 82.2096 113.401 81.6835 112.641 80.8479C111.754 79.8728 110.691 78.1922 109.137 78.8481C108.8 78.9903 108.497 79.2146 108.22 79.4893C108.204 88.5914 113.817 99.7817 120.291 103.084Z" fill="#3E225E"/>
<path d="M110.534 88.1552C110.667 85.9252 111.483 83.4196 112.678 80.8846C112.666 80.8722 112.653 80.8607 112.641 80.8479C111.754 79.8728 110.691 78.1922 109.137 78.8481C107.802 79.4114 106.979 81.2712 106.311 82.4527C105.87 83.2324 105.378 84.0686 104.568 84.5167C103.409 85.1593 101.679 84.8799 100.397 84.8712C97.8478 84.8538 95.1845 84.6378 92.6488 84.9226C89.9194 85.2294 87.3382 85.5051 84.6648 86.1793C82.1882 86.8035 79.613 87.1136 77.1896 87.9355C76.1749 88.2795 75.2359 88.7423 74.3089 89.2771C73.179 89.9288 72.007 90.4444 70.8474 91.0347C68.6478 92.1538 66.73 93.7197 64.5419 94.864C63.5322 95.3919 62.429 95.7171 61.4469 96.2744C60.3543 96.894 59.3689 97.6476 58.3754 98.4076C57.1795 99.3226 55.7928 99.956 54.3492 100.374C53.0304 100.756 51.6859 100.926 50.4098 101.459C48.9084 102.085 47.4749 102.843 45.957 103.444C44.702 103.94 43.4928 104.494 42.3277 105.179C39.6639 106.742 37.0336 108.392 34.4079 110.019C33.9951 110.275 33.5878 110.535 33.1841 110.8C38.0313 117.82 42.5818 120.499 42.5818 120.499C42.5818 120.499 44.3428 125.603 45.2772 128.276C46.2121 130.949 47.841 137.109 48.8373 142.037L60.8552 148.327C69.1712 147.492 76.8951 157.69 85.1923 156.688C92.174 155.845 99.1561 155.012 106.138 154.176C106.288 153.703 106.391 153.215 106.431 152.71C107.432 139.903 102.459 132.775 99.3722 129.424C98.9148 128.791 98.2887 111.373 101.01 108.251C103.731 105.129 110.004 97.0766 110.534 88.1552Z" fill="#661E88"/>
<path d="M91.56 109.053C80.3151 112.66 72.8568 109.194 57.0476 115.26C52.6279 118.841 50.1174 124.596 47.7614 123.707C45.4054 122.818 41.4802 122.47 46.6398 119.051C51.7995 115.632 58.5297 108.385 74.1646 106.728C89.7999 105.072 100.775 106.097 91.56 109.053Z" fill="#661E88"/>
<path d="M53.9005 92.9343L54.3698 93.1774L48.7129 99.4633L48.24 99.2253L53.9005 92.9343Z" fill="#89664B"/>
<path d="M48.24 99.2252L48.7129 99.4633L51.451 102.602L50.979 102.366L48.24 99.2252Z" fill="#977154"/>
<path d="M53.9005 92.9343L50.979 102.366L48.24 99.2253L53.9005 92.9343Z" fill="#52166E"/>
<path d="M53.9006 92.9343L54.3698 93.1774L51.4515 102.602L50.979 102.366L53.9006 92.9343Z" fill="#5C1B7B"/>
<path d="M56.9527 91.0902L57.4206 91.3351L55.9615 96.046L55.4922 95.8043L56.9527 91.0902Z" fill="#9C7657"/>
<path d="M47.7197 102.888L48.1931 103.123L49.4688 110.996L48.9945 110.766L47.7197 102.888Z" fill="#A87F5E"/>
<path d="M54.5193 98.9535L54.9895 99.1929L53.2831 104.702L52.8115 104.466L54.5193 98.9535Z" fill="#9C7657"/>
<path d="M47.7197 102.888L53.2133 109.205L48.9945 110.766L47.7197 102.888Z" fill="#52166E"/>
<path d="M47.7197 102.888L48.1931 103.123L53.6853 109.437L53.2133 109.205L47.7197 102.888Z" fill="#5A1A77"/>
<path d="M53.2134 109.205L53.6855 109.437L49.4689 110.996L48.9946 110.765L53.2134 109.205Z" fill="#3D1153"/>
<path d="M59.4613 97.1141L59.9287 97.3554L54.9893 99.1928L54.5195 98.9534L59.4613 97.1141Z" fill="#6B503A"/>
<path d="M52.8118 104.466L53.2833 104.701L56.4884 108.369L56.0177 108.135L52.8118 104.466Z" fill="#977154"/>
<path d="M63.9682 92.6178L64.4329 92.8627L57.4205 91.3349L56.9526 91.09L63.9682 92.6178Z" fill="#553D2C"/>
<path d="M56.9527 91.0902L63.9683 92.618L55.4922 95.8043L56.9527 91.0902Z" fill="#52166E"/>
<path d="M63.9681 92.6177L64.4328 92.8626L55.9612 96.0457L55.4919 95.8044L63.9681 92.6177Z" fill="#3D1155"/>
<path d="M59.4561 97.1041L59.9235 97.3454L63.2487 101.114L62.7822 100.875L59.4561 97.1041Z" fill="#331A4F"/>
<path d="M66.545 94.4484L67.0087 94.6924L62.7505 96.2867L62.2844 96.0445L66.545 94.4484Z" fill="#6C503A"/>
<path d="M61.0656 106.3L61.5335 106.536L56.5004 108.396L56.0298 108.163L61.0656 106.3Z" fill="#211137"/>
<path d="M59.456 97.1041L62.7822 100.875L61.0657 106.3L56.0299 108.163L52.812 104.466L54.5194 98.9534L59.456 97.1041Z" fill="#2F184A"/>
<path d="M62.7819 100.875L63.2485 101.114L61.5333 106.536L61.0654 106.3L62.7819 100.875Z" fill="#351C53"/>
<path d="M60.0568 109.485L60.5256 109.718L52.0049 112.857L51.532 112.627L60.0568 109.485Z" fill="#6B4F39"/>
<path d="M58.5505 114.25L59.0207 114.48L52.0051 112.857L51.5317 112.627L58.5505 114.25Z" fill="#2F0E41"/>
<path d="M60.0568 109.485L58.5508 114.25L51.532 112.627L60.0568 109.485Z" fill="#52166E"/>
<path d="M60.0567 109.485L60.5256 109.718L59.021 114.48L58.5508 114.25L60.0567 109.485Z" fill="#5C1B7B"/>
<path d="M59.6862 115.784L60.1564 116.013L48.9619 113.262L48.4875 113.033L59.6862 115.784Z" fill="#553D2C"/>
<path d="M64.6415 102.977L65.1076 103.215L62.1319 112.626L61.6631 112.394L64.6415 102.977Z" fill="#9C7557"/>
<path d="M62.2844 96.0446L62.7505 96.2867L68.3551 102.607L67.8908 102.368L62.2844 96.0446Z" fill="#956F53"/>
<path d="M66.545 94.4484L67.8908 102.368L62.2844 96.0445L66.545 94.4484Z" fill="#52166E"/>
<path d="M66.5449 94.4484L67.0087 94.6924L68.355 102.607L67.8908 102.368L66.5449 94.4484Z" fill="#631D84"/>
<path d="M64.6415 102.977L67.3796 106.08L61.6631 112.394L64.6415 102.977Z" fill="#52166E"/>
<path d="M64.6416 102.977L65.1077 103.215L67.8448 106.316L67.3797 106.08L64.6416 102.977Z" fill="#571976"/>
<path d="M67.3796 106.08L67.8447 106.316L62.1319 112.626L61.6631 112.394L67.3796 106.08Z" fill="#50166B"/>
<path d="M69.3253 105.152L69.7895 105.389L60.156 116.013L59.6863 115.784L69.3253 105.152Z" fill="#87664B"/>
<path fill-rule="evenodd" clip-rule="evenodd" d="M67.1161 92.179L55.6303 89.6853L46.4408 99.9051L46.3752 99.9537L48.4872 113.033L59.6863 115.784L69.3252 105.152L67.1161 92.179ZM55.4922 95.8043L56.9528 91.0902L63.9684 92.618L55.4922 95.8043ZM48.9945 110.766L47.7197 102.888L53.2133 109.205L48.9945 110.766ZM67.8908 102.368L66.545 94.4485L62.2844 96.0446L67.8908 102.368ZM60.0569 109.486L58.5491 114.263L51.5317 112.627L60.0569 109.486ZM61.6633 112.394L67.3798 106.08L64.6418 102.977L61.6633 112.394ZM48.2399 99.2254L53.9005 92.9344L50.9794 102.366L48.2399 99.2254ZM62.7821 100.875L59.461 97.1142L54.5193 98.9534L52.8119 104.466L56.0179 108.136L61.0656 106.3L62.7821 100.875Z" fill="#8C684D"/>
<path d="M67.1162 92.1788L67.5795 92.4242L69.7896 105.389L69.3254 105.152L67.1162 92.1788Z" fill="#A87E5E"/>
<path d="M74.4143 63.244C71.157 62.8445 65.3341 45.4357 65.3341 45.4357C65.3341 45.4357 46.8575 55.2078 46.2634 61.6336C45.6634 68.1241 46.5538 71.6232 46.5538 71.6232C46.6231 71.7792 48.7896 78.4045 55.0726 82.4806C64.9689 71.2077 76.9946 61.7469 76.9946 61.7469L74.4143 63.244Z" fill="#FBC39C"/>
<path d="M55.0726 82.4805C55.1749 82.3636 55.279 82.2484 55.3822 82.1319C54.7327 81.6054 54.1593 81.0458 53.501 80.523C52.4666 79.7011 51.2583 78.5471 50.5496 77.4215C50.0125 76.568 49.4813 75.6731 48.968 74.803C48.968 74.803 46.4276 70.8962 46.468 71.22C46.4611 71.2649 46.506 71.5727 46.5969 71.7401C46.9308 72.6538 49.2088 78.6764 55.0726 82.4805Z" fill="#DEB18A"/>
<path d="M75.0319 62.8855L74.414 63.2437C74.1658 63.2135 73.9012 63.074 73.6269 62.8612C73.3158 62.9071 73.0044 62.9685 72.6924 63.0144C71.4388 63.1983 70.1869 63.3451 68.9246 63.4547C66.4741 63.6671 64.0351 63.9946 61.5842 64.2046C59.1191 64.4161 56.6553 64.5055 54.1814 64.5055C53.0938 64.5055 51.9622 64.3817 50.881 64.4977C50.0314 64.5885 49.0869 64.5183 48.2622 64.7133C47.9539 64.7862 47.8626 65.2091 48.0603 65.4334C48.2576 65.6576 48.4842 65.8278 48.7273 65.9718C49.3172 66.558 50.1975 66.8291 50.9649 67.1121C52.4782 67.6702 54.0058 68.1358 55.5424 68.6206C58.3947 69.5209 61.1686 70.6593 63.9603 71.7262C64.2796 71.8482 64.675 72.0202 65.0869 72.16C69.3695 68.106 73.1553 64.8912 75.2539 63.1589C75.2314 63.0369 75.1603 62.9341 75.0319 62.8855Z" fill="#BA8F6D"/>
<path d="M46.6884 42.1879L46.1164 63.6797L46.1953 64.3228C46.1953 64.3228 44.5843 66.3794 56.5778 66.6252C68.5714 66.8715 74.0425 65.2676 75.5443 64.8076C77.0462 64.3471 80.6512 58.551 80.4214 55.7165C80.1921 52.8824 73.9141 42.3714 71.5141 32.5533C69.1145 22.7353 68.6485 19.6476 66.4898 17.9822C64.3306 16.3168 47.6609 21.5079 47.1893 24.5057C47.1989 30.7315 46.0558 31.0975 45.5512 33.9623C45.465 38.454 46.6884 42.1879 46.6884 42.1879Z" fill="#FBC39C"/>
<path d="M61.5976 38.1188C62.3471 37.0933 63.0393 36.003 63.8412 35.0206C64.1329 34.6633 64.4265 34.2643 64.7682 33.9533C65.2503 33.5144 65.8824 33.3057 66.487 33.0722C66.693 32.9924 66.7072 32.631 66.4467 32.6232C64.5893 32.5691 63.2701 34.4895 62.3912 35.8792C61.7806 36.8433 61.0691 37.7858 60.3769 38.6967C59.7017 39.5856 58.7659 40.2993 57.937 41.0414C56.9696 41.9064 55.9921 42.8669 54.6357 43.037C53.5035 43.1788 52.3063 42.8719 51.1971 42.6747C50.5769 42.5646 49.9655 42.3793 49.3522 42.2165C49.6077 42.1092 49.5907 41.6812 49.2705 41.6404C48.2756 41.5143 47.3879 41.5945 46.604 41.9092C46.6554 42.0849 46.6884 42.1881 46.6884 42.1881L46.6691 42.9109C47.1912 42.7297 47.7526 42.6673 48.304 42.6875C48.5462 42.6962 48.793 42.7022 49.0416 42.7091C49.3159 42.7958 49.5898 42.8848 49.8682 42.9531C50.8237 43.187 51.7935 43.3443 52.7627 43.5067C54.6623 43.825 56.1806 43.3769 57.6714 42.1486C59.176 40.9089 60.4526 39.6852 61.5976 38.1188Z" fill="#DEB18A"/>
<path d="M50.528 29.534C50.528 29.534 52.8904 23.3077 57.0216 23.8934C57.995 22.8729 55.5776 20.947 54.2546 20.8709C52.9317 20.7947 49.0221 23.2508 50.528 29.534Z" fill="#DEB18A"/>
<path d="M64.1805 22.6832C62.9342 23.6652 64.4378 18.8181 65.3337 18.4462C66.2296 18.0742 68.7089 18.3517 68.5323 23.2914C67.9906 23.9721 66.0057 21.2453 64.1805 22.6832Z" fill="#DEB18A"/>
<path d="M50.0693 27.2407C50.0693 27.2407 52.4317 21.0144 56.5629 21.6001C57.5363 20.5796 55.1188 18.6537 53.7959 18.5775C52.473 18.5014 48.5633 20.9575 50.0693 27.2407Z" fill="#FEC100"/>
<path d="M65.5567 19.9313C64.3104 20.9133 65.8141 16.0662 66.7099 15.6942C67.6058 15.3222 70.0852 15.5997 69.9086 20.5395C69.3668 21.2201 67.382 18.4934 65.5567 19.9313Z" fill="#FEC100"/>
<path d="M54.9628 51.2842C54.8972 51.1411 55.01 50.9843 55.1802 50.9806C56.9435 50.9425 65.9774 50.4027 71.3614 48.324C72.1403 48.0067 71.2692 48.6671 71.3137 49.2547C71.3586 49.8422 71.8618 54.4898 70.2632 55.8181C68.6641 57.1459 62.1797 56.1455 59.7811 55.2305C56.4696 53.9674 55.3008 52.0227 54.9628 51.2842Z" fill="#3B3F47"/>
<path d="M70.2632 48.9987C70.2632 48.9987 62.5412 51.2993 55.6265 51.3488C55.5701 51.7066 57.3935 54.9121 64.1224 55.9203C67.5316 56.4308 69.9004 55.7157 69.9004 55.7157L69.6669 52.8009L70.6338 52.5569L70.2632 48.9987Z" fill="#F0F2F2"/>
<path d="M71.432 44.2715C71.4774 44.4797 71.3467 44.6843 71.138 44.7279C69.7715 45.015 65.1329 45.964 64.86 45.6915C64.5398 45.3718 69.6123 40.6022 69.6123 40.6022C69.6123 40.6022 69.0206 36.7834 68.9036 36.6835C68.7866 36.5839 66.4898 32.8729 66.4898 32.8729C66.4898 32.8729 70.549 35.2635 71.5141 36.256C72.4793 37.2485 73.5137 39.3139 73.5137 39.3139C73.5137 39.3139 73.8875 40.4481 72.5559 40.6022C71.2238 40.7563 70.6329 40.6022 70.6329 40.6022L71.432 44.2715Z" fill="#BA8F6D"/>
<path d="M53.2417 49.2074C52.7238 49.7317 55.955 45.7409 57.9435 44.6483C59.2059 44.0911 60.7573 43.6746 60.6504 43.8448C60.5435 44.0149 60.0518 44.6396 58.5775 45.4359C57.1032 46.2316 55.8857 46.5293 53.2417 49.2074Z" fill="#DEB18A"/>
<path d="M51.0131 52.6034C51.025 52.7272 51.1016 54.8719 50.9489 55.4631C50.7957 56.0544 51.503 55.2609 51.608 54.0335C51.7131 52.8057 50.958 52.0269 51.0131 52.6034Z" fill="#DEB18A"/>
<path d="M59.4302 58.4147C58.4251 58.0647 64.9815 59.4912 66.4898 59.2637C67.9981 59.0357 69.0779 58.9954 69.7228 59.3022C70.3678 59.609 70.7481 59.9659 70.3476 60.1122C69.9476 60.259 67.6187 59.8003 64.8458 59.7622C62.0728 59.7237 60.61 58.8257 59.4302 58.4147Z" fill="#DEB18A"/>
<path d="M66.4897 32.8731C66.4897 32.8731 68.4488 34.2069 70.0961 37.8019C70.9984 38.9889 73.3787 39.7406 74.4144 38.6352C75.4498 37.5294 74.2461 36.2562 74.2461 36.2562C74.2461 36.2562 75.9103 33.7698 75.4039 30.6748C74.8975 27.5797 73.2273 22.5134 71.9043 21.9277C70.5809 21.342 66.8608 22.0864 63.6832 24.9764C63.0282 29.2424 65.1346 32.1466 66.4897 32.8731Z" fill="#2C3341"/>
<path d="M75.2486 32.8427C73.9 33.6752 72.2848 34.3434 70.7339 34.2613C70.3894 34.0967 70.0399 33.8999 69.7078 33.8311C69.5968 33.8082 69.3046 33.7857 68.9986 33.7495C68.705 33.5334 68.4715 33.2509 68.255 32.9482C68.2458 32.4272 67.8871 32.0194 67.5536 31.6419C67.1344 30.8333 66.6637 29.9729 66.1169 29.2665C65.9344 29.0308 65.6156 29.1757 65.5312 29.4129C65.4151 29.7403 65.3454 30.0481 65.6156 30.3407C65.7055 30.438 65.8504 30.4604 65.9559 30.5288C66.2573 31.3851 66.6683 32.1469 67.2156 32.9569C67.2665 33.0326 67.3174 33.1074 67.3679 33.1817C67.3812 33.2087 67.3945 33.2362 67.4073 33.2633C67.3995 33.2835 67.3931 33.3032 67.394 33.322C67.4023 33.5206 67.4477 33.677 67.5128 33.8128C67.6192 33.9274 67.7316 34.054 67.849 34.1921C67.8779 34.2109 67.9023 34.2338 67.9335 34.2508C67.9789 34.3237 68.0261 34.3953 68.0747 34.4664C68.1802 34.5984 68.289 34.7397 68.4 34.8902C68.7302 35.2731 69.1247 35.5914 69.6188 35.7827C70.9215 36.2872 72.1559 36.2739 73.3252 35.5543C74.0009 35.1387 74.5945 34.5503 75.2055 34.0013C75.3151 33.5967 75.4036 33.1509 75.4536 32.6716C75.3848 32.728 75.316 32.784 75.2486 32.8427Z" fill="#222838"/>
<mask id="mask2_801_146921" style="mask-type:luminance" maskUnits="userSpaceOnUse" x="75" y="27" width="4" height="2">
<path fill-rule="evenodd" clip-rule="evenodd" d="M78.5252 27.4014L75.4802 28.9462C75.5316 28.9402 75.5784 28.9265 75.6188 28.9063L78.6637 27.3611C78.6233 27.3813 78.5766 27.395 78.5252 27.4014Z" fill="white"/>
</mask>
<g mask="url(#mask2_801_146921)">
<path d="M78.6639 27.3611L75.619 28.9063C75.5781 28.9269 75.5314 28.9402 75.48 28.9462L78.5254 27.401C78.5768 27.395 78.6236 27.3817 78.6639 27.3611Z" fill="#4C392A"/>
</g>
<path d="M78.5252 27.4012L75.4803 28.9465L75.1023 28.991L78.1477 27.4457L78.5252 27.4012Z" fill="#4A3728"/>
<mask id="mask3_801_146921" style="mask-type:luminance" maskUnits="userSpaceOnUse" x="72" y="22" width="4" height="3">
<path fill-rule="evenodd" clip-rule="evenodd" d="M72.6506 24.4014C72.6832 24.3443 72.7285 24.3018 72.7811 24.2748L75.826 22.7299H75.826C75.773 22.7569 75.7278 22.8 75.6954 22.8571L72.6506 24.4017V24.4014Z" fill="white"/>
</mask>
<g mask="url(#mask3_801_146921)">
<path d="M75.6956 22.8569L72.6506 24.4021C72.6832 24.3448 72.7286 24.3017 72.7814 24.2746L75.8263 22.7299C75.7736 22.7565 75.7282 22.7996 75.6956 22.8569Z" fill="#4C392A"/>
</g>
<path d="M75.4453 23.204L72.4004 24.7492L72.6508 24.402L75.6958 22.8568L75.4453 23.204Z" fill="#4D3A2A"/>
<mask id="mask4_801_146921" style="mask-type:luminance" maskUnits="userSpaceOnUse" x="70" y="23" width="6" height="3">
<path fill-rule="evenodd" clip-rule="evenodd" d="M70.9995 24.6408C71.5394 24.8224 72.0564 25.1169 72.5229 25.5012C73.5376 24.9862 74.5527 24.4716 75.5679 23.956C75.1013 23.5717 74.5844 23.2777 74.0445 23.0956C73.0298 23.6102 72.0146 24.1253 70.9995 24.6408Z" fill="white"/>
</mask>
<g mask="url(#mask4_801_146921)">
<path d="M75.7193 32.0217L72.6743 33.5669C74.2069 32.7891 74.9963 30.8411 74.4918 28.7006C73.878 26.0936 71.5729 24.191 69.3372 24.4548C68.9372 24.502 68.5665 24.6158 68.2312 24.7859L71.2762 23.2407C71.6115 23.0705 71.9821 22.9568 72.3821 22.9096C74.6179 22.6458 76.9229 24.5483 77.5372 27.1554C78.0413 29.2959 77.2518 31.2438 75.7193 32.0217Z" fill="#4C392A"/>
</g>
<mask id="mask5_801_146921" style="mask-type:luminance" maskUnits="userSpaceOnUse" x="74" y="31" width="5" height="3">
<path fill-rule="evenodd" clip-rule="evenodd" d="M74.6936 33.1928C74.7857 33.2714 74.8938 33.2993 74.9923 33.2874C75.0317 33.2828 75.0698 33.2718 75.1047 33.2539L78.1496 31.7087V31.7087C78.1147 31.7266 78.0767 31.7376 78.0372 31.7422C77.9381 31.7536 77.8303 31.7261 77.7386 31.6472L74.6936 33.1922V33.1928Z" fill="white"/>
</mask>
<g mask="url(#mask5_801_146921)">
<path d="M78.1496 31.7089L75.1046 33.2541C75.0698 33.2715 75.0317 33.2825 74.9922 33.2876C74.8936 33.2991 74.7853 33.2711 74.6936 33.1922L77.7386 31.647C77.8303 31.7259 77.9386 31.7538 78.0372 31.7424C78.0766 31.7378 78.1147 31.7268 78.1496 31.7089Z" fill="#4C392A"/>
</g>
<path d="M77.7385 31.6472L74.6935 33.1924L74.3247 32.9181L77.3697 31.3729L77.7385 31.6472Z" fill="#4C392A"/>
<mask id="mask6_801_146921" style="mask-type:luminance" maskUnits="userSpaceOnUse" x="68" y="21" width="4" height="3">
<path fill-rule="evenodd" clip-rule="evenodd" d="M68.838 22.9942C68.7059 23.0612 68.6696 23.2387 68.7173 23.4405L71.7623 21.8952C71.7146 21.6934 71.7508 21.5159 71.8829 21.449L68.838 22.9942Z" fill="white"/>
</mask>
<g mask="url(#mask6_801_146921)">
<path d="M71.7623 21.8956L68.7173 23.4408C68.6696 23.239 68.7059 23.061 68.838 22.9941L71.8834 21.4489C71.7508 21.5163 71.7146 21.6938 71.7623 21.8956Z" fill="#A78A72"/>
</g>
<path d="M71.8659 22.3354L68.821 23.8806L68.7173 23.4407L71.7622 21.8955L71.8659 22.3354Z" fill="#A78A72"/>
<mask id="mask7_801_146921" style="mask-type:luminance" maskUnits="userSpaceOnUse" x="68" y="22" width="10" height="12">
<path fill-rule="evenodd" clip-rule="evenodd" d="M68.2313 24.7857L71.2766 23.241C71.6119 23.0708 71.9821 22.9566 72.3826 22.9098C72.5216 22.8933 72.6606 22.8855 72.7995 22.8855C73.2202 22.8855 73.639 22.9589 74.0445 23.0956C73.0298 23.6102 72.0147 24.1253 70.9995 24.6408C70.4596 24.4587 69.8963 24.389 69.3376 24.455C68.9372 24.5018 68.5665 24.616 68.2312 24.7857L68.2313 22.8851H77.689V33.5669H68.2313V24.7857Z" fill="white"/>
</mask>
<g mask="url(#mask7_801_146921)">
<path d="M75.7193 32.0217L72.6743 33.5669C74.2069 32.7891 74.9963 30.8411 74.4918 28.7006C73.878 26.0936 71.5729 24.191 69.3372 24.4548C68.9372 24.502 68.5665 24.6158 68.2312 24.7859L71.2762 23.2407C71.6115 23.0705 71.9821 22.9568 72.3821 22.9096C74.6179 22.6458 76.9229 24.5483 77.5372 27.1554C78.0413 29.2959 77.2518 31.2438 75.7193 32.0217Z" fill="#4C392A"/>
</g>
<mask id="mask8_801_146921" style="mask-type:luminance" maskUnits="userSpaceOnUse" x="72" y="23" width="6" height="11">
<path fill-rule="evenodd" clip-rule="evenodd" d="M72.5229 25.5013C73.4551 26.27 74.1849 27.3974 74.4922 28.7004C74.9963 30.841 74.2069 32.7894 72.6739 33.5668L75.7193 32.0216C77.2518 31.2441 78.0413 29.2962 77.5367 27.1552C77.2303 25.8521 76.5 24.7248 75.5679 23.9561C74.5528 24.4716 73.5376 24.9862 72.5229 25.5013Z" fill="white"/>
</mask>
<g mask="url(#mask8_801_146921)">
<path d="M75.7193 32.0217L72.6743 33.5669C74.2069 32.7891 74.9963 30.8411 74.4918 28.7006C73.878 26.0936 71.5729 24.191 69.3372 24.4548C68.9372 24.502 68.5665 24.6158 68.2312 24.7859L71.2762 23.2407C71.6115 23.0705 71.9821 22.9568 72.3821 22.9096C74.6179 22.6458 76.9229 24.5483 77.5372 27.1554C78.0413 29.2959 77.2518 31.2438 75.7193 32.0217Z" fill="#4C392A"/>
</g>
<mask id="mask9_801_146921" style="mask-type:luminance" maskUnits="userSpaceOnUse" x="71" y="32" width="6" height="3">
<path fill-rule="evenodd" clip-rule="evenodd" d="M76.0736 32.5913L73.0284 34.136C72.7348 34.285 72.3885 34.4011 71.9656 34.4832L75.0105 32.938C75.4338 32.8559 75.7797 32.7399 76.0736 32.5913V32.5913Z" fill="white"/>
</mask>
<g mask="url(#mask9_801_146921)">
<path d="M76.0736 32.5908L73.0286 34.136C72.7346 34.2851 72.3887 34.4011 71.9653 34.4832L75.0103 32.938C75.4337 32.8559 75.7796 32.7399 76.0736 32.5908Z" fill="#4C392A"/>
</g>
<path d="M74.4855 33.456L71.4405 35.0012L71.3359 34.5572L74.3809 33.0125L74.4855 33.456Z" fill="#513C2C"/>
<mask id="mask10_801_146921" style="mask-type:luminance" maskUnits="userSpaceOnUse" x="71" y="33" width="4" height="3">
<path fill-rule="evenodd" clip-rule="evenodd" d="M71.4407 35.0022C71.4972 35.2394 71.6526 35.4238 71.8561 35.4C71.8905 35.3958 71.9208 35.3867 71.9469 35.3734L74.992 33.8287V33.8287C74.9655 33.842 74.9353 33.8506 74.9015 33.8548C74.6969 33.8791 74.5419 33.6933 74.4854 33.4562L71.4407 35.0013V35.0022V35.0022Z" fill="white"/>
</mask>
<g mask="url(#mask10_801_146921)">
<path d="M74.992 33.8284L71.9471 35.3736C71.9205 35.3869 71.8907 35.3961 71.8563 35.4002C71.6521 35.424 71.4966 35.2387 71.4407 35.0012L74.4856 33.4559C74.5416 33.6935 74.6971 33.8788 74.9012 33.855C74.9356 33.8508 74.9654 33.8417 74.992 33.8284Z" fill="#4C392A"/>
</g>
<mask id="mask11_801_146921" style="mask-type:luminance" maskUnits="userSpaceOnUse" x="66" y="22" width="5" height="4">
<path fill-rule="evenodd" clip-rule="evenodd" d="M67.9515 24.1945C67.385 24.4816 66.8873 24.9119 66.5208 25.4425L69.5657 23.8978C69.9322 23.3666 70.4304 22.9364 70.9969 22.6493L67.9515 24.1945Z" fill="white"/>
</mask>
<g mask="url(#mask11_801_146921)">
<path d="M69.5657 23.8974L66.5208 25.4426C66.8873 24.9119 67.385 24.4817 67.9519 24.1941L70.9969 22.6489C70.4299 22.9365 69.9322 23.3667 69.5657 23.8974Z" fill="#4C392A"/>
</g>
<mask id="mask12_801_146921" style="mask-type:luminance" maskUnits="userSpaceOnUse" x="65" y="23" width="4" height="3">
<path fill-rule="evenodd" clip-rule="evenodd" d="M65.7866 25.0948C65.7339 25.1219 65.6889 25.165 65.6541 25.2228L68.699 23.678C68.7339 23.6198 68.7793 23.5767 68.832 23.55L65.7866 25.0948Z" fill="white"/>
</mask>
<g mask="url(#mask12_801_146921)">
<path d="M68.699 23.6779L65.6541 25.2231C65.6889 25.1649 65.7343 25.1217 65.7871 25.0951L68.832 23.5499C68.7793 23.5765 68.7339 23.6196 68.699 23.6779Z" fill="#A78A72"/>
</g>
<mask id="mask13_801_146921" style="mask-type:luminance" maskUnits="userSpaceOnUse" x="66" y="23" width="10" height="11">
<path fill-rule="evenodd" clip-rule="evenodd" d="M66.2598 28.35C66.2693 26.7525 67.0187 25.4012 68.2312 24.7857L71.2762 23.241C69.745 24.0179 68.9523 25.9695 69.456 28.1082C70.0711 30.7194 72.3789 32.6173 74.6074 32.3545C75.01 32.3068 75.3823 32.1927 75.7194 32.0217L72.6743 33.5667C72.3376 33.7378 71.9652 33.852 71.5624 33.8993C69.3335 34.1625 67.0257 32.2646 66.411 29.6535C66.3111 29.2296 66.2622 28.8131 66.2598 28.4116V28.35Z" fill="white"/>
</mask>
<g mask="url(#mask13_801_146921)">
<path d="M75.7194 32.0217L72.6744 33.567C72.3377 33.7376 71.9648 33.8522 71.5625 33.8995C69.3336 34.1623 67.0258 32.2644 66.4111 29.6537C65.907 27.515 66.6997 25.5634 68.2313 24.7859L71.2763 23.2407C69.7446 24.0181 68.9524 25.9697 69.4561 28.1085C70.0712 30.7191 72.3786 32.6175 74.6075 32.3543C75.0102 32.307 75.3827 32.1928 75.7194 32.0217Z" fill="#3F2A16"/>
</g>
<path d="M69.1929 24.601L66.1479 26.1462L65.7988 25.8371L68.8438 24.2919L69.1929 24.601Z" fill="#A78A72"/>
<mask id="mask14_801_146921" style="mask-type:luminance" maskUnits="userSpaceOnUse" x="65" y="23" width="4" height="3">
<path fill-rule="evenodd" clip-rule="evenodd" d="M65.6035 25.4206C65.6047 25.3509 65.621 25.2829 65.6541 25.2229L68.699 23.6781C68.594 23.8694 68.6582 24.1427 68.8435 24.2922L65.7995 25.8372H65.7987C65.6758 25.7382 65.606 25.5849 65.6035 25.437V25.4206V25.4206Z" fill="white"/>
</mask>
<g mask="url(#mask14_801_146921)">
<path d="M68.8437 24.292L65.7988 25.8372C65.613 25.6882 65.5488 25.4148 65.6543 25.2231L68.6992 23.6779C68.5937 23.8696 68.6584 24.1429 68.8437 24.292Z" fill="#A78A72"/>
</g>
<mask id="mask15_801_146921" style="mask-type:luminance" maskUnits="userSpaceOnUse" x="68" y="32" width="7" height="3">
<path fill-rule="evenodd" clip-rule="evenodd" d="M74.3811 33.0124L71.3358 34.5575C70.3721 34.5772 69.3221 34.2332 68.4441 33.6076L71.489 32.0624L74.3811 32.0624V33.0124Z" fill="white"/>
</mask>
<g mask="url(#mask15_801_146921)">
<path d="M74.381 33.0123L71.336 34.5575C70.3718 34.5772 69.3223 34.2327 68.4438 33.6076L71.4888 32.0624C72.3672 32.688 73.4172 33.0324 74.381 33.0123Z" fill="#4C392A"/>
</g>
<mask id="mask16_801_146921" style="mask-type:luminance" maskUnits="userSpaceOnUse" x="65" y="24" width="5" height="6">
<path fill-rule="evenodd" clip-rule="evenodd" d="M65.7898 29.3318C65.6118 28.2205 65.738 27.0496 66.1476 26.1461L69.1928 24.6009V24.6013C69.1929 24.6012 69.193 24.601 69.193 24.6008L65.7898 29.3318Z" fill="white"/>
</mask>
<g mask="url(#mask16_801_146921)">
<path d="M68.8345 27.7867L65.7896 29.3319C65.6116 28.221 65.7377 27.0496 66.1478 26.1461L69.1928 24.6008C68.7831 25.5044 68.6565 26.6758 68.8345 27.7867Z" fill="#4C392A"/>
</g>
<path d="M72.3824 22.9097C74.6177 22.6459 76.9228 24.5485 77.537 27.1555C78.1521 29.7662 76.8425 32.0906 74.6072 32.3544C72.3787 32.6172 70.0709 30.7193 69.4558 28.1086C68.842 25.5016 70.1535 23.1725 72.3824 22.9097Z" fill="#4C392A"/>
<path d="M70.6206 31.8352L67.5757 33.3804L67.7661 33.0158L70.811 31.4706L70.6206 31.8352Z" fill="#A78A72"/>
<mask id="mask17_801_146921" style="mask-type:luminance" maskUnits="userSpaceOnUse" x="65" y="28" width="6" height="4">
<path fill-rule="evenodd" clip-rule="evenodd" d="M65.9634 30.069L69.0083 28.5238C69.3495 29.6148 70.0094 30.7099 70.8111 31.4703L65.9634 30.069Z" fill="white"/>
</mask>
<g mask="url(#mask17_801_146921)">
<path d="M70.8111 31.4707L67.7661 33.0159C66.9643 32.2554 66.3042 31.1606 65.9634 30.0685L69.0083 28.5233C69.3496 29.6154 70.0093 30.7102 70.8111 31.4707Z" fill="#4C392A"/>
</g>
<mask id="mask18_801_146921" style="mask-type:luminance" maskUnits="userSpaceOnUse" x="67" y="31" width="5" height="4">
<path fill-rule="evenodd" clip-rule="evenodd" d="M67.5254 33.5722C67.5271 33.5035 67.5434 33.4373 67.5758 33.3801L70.6208 31.8353L71.1652 31.8354V32.5307C71.1345 32.5463 71.1015 32.5563 71.0675 32.56C70.9689 32.5719 70.8639 32.5394 70.7685 32.4614C70.5818 32.3082 70.5143 32.023 70.6207 31.8354L67.5254 33.5722ZM67.5254 33.5972C67.5292 33.7473 67.6003 33.9056 67.723 34.0066C67.8009 34.0702 67.8854 34.1036 67.9675 34.1075H67.5254V33.5972V33.5972ZM68.0001 34.1075C68.0076 34.1072 68.0151 34.1066 68.0226 34.1057C68.0565 34.1016 68.0896 34.0915 68.1198 34.0759L71.1652 32.5307V34.1075H68.0001Z" fill="white"/>
</mask>
<g mask="url(#mask18_801_146921)">
<path d="M71.1652 32.5307L68.1202 34.0759C68.0895 34.0915 68.0565 34.1011 68.023 34.1052C67.9239 34.1167 67.8184 34.0846 67.723 34.0062C67.5368 33.853 67.4698 33.5677 67.5758 33.3801L70.6207 31.8353C70.5147 32.0229 70.5817 32.3082 70.7684 32.4609C70.8638 32.5394 70.9693 32.5719 71.068 32.56C71.1014 32.5563 71.1345 32.5462 71.1652 32.5307Z" fill="#A78A72"/>
</g>
<path d="M69.0081 28.5236L65.9632 30.0688L65.5889 30.1128L68.6338 28.5676L69.0081 28.5236Z" fill="#4A3728"/>
<path fill-rule="evenodd" clip-rule="evenodd" d="M78.809 26.9891C78.7531 26.7515 78.559 26.6401 78.3517 26.6644L77.9737 26.7089C77.6361 25.6168 76.9834 24.5376 76.1815 23.7767L76.3705 23.4208C76.4733 23.2336 76.4068 22.952 76.2237 22.7988C76.1283 22.7204 76.0228 22.6878 75.9279 22.6993C75.8324 22.7103 75.7476 22.7653 75.6957 22.8571L75.4453 23.2043C74.5678 22.5828 73.7765 22.2076 72.4953 22.2613L72.3916 21.8214C72.3347 21.5797 72.1801 21.3985 71.9728 21.4228C71.7687 21.4472 71.7054 21.654 71.7623 21.8957L71.8659 22.3356C70.9457 22.5415 70.1104 23.1084 69.5655 23.8973L69.2265 23.6157C69.132 23.5414 69.0265 23.5093 68.9311 23.5203C68.8357 23.5318 68.7545 23.5859 68.699 23.6781C68.5939 23.8693 68.6581 24.1427 68.8434 24.2922L69.1925 24.6009C68.7829 25.5044 68.6568 26.6759 68.8347 27.7867L68.4604 27.8308C68.2526 27.8555 68.1168 28.0055 68.1728 28.2436C68.2297 28.4853 68.4265 28.5921 68.6338 28.5678L69.0081 28.5238C69.3494 29.6154 70.0095 30.7102 70.8109 31.4707L70.6205 31.8353C70.5145 32.0229 70.5815 32.3082 70.7682 32.4614C70.8636 32.5393 70.9691 32.5719 71.0678 32.56C71.1595 32.5494 71.2444 32.4944 71.2962 32.4031L71.4889 32.0628C72.3673 32.688 73.4168 33.0324 74.3811 33.0122L74.4857 33.4562C74.5416 33.6938 74.6971 33.8791 74.9012 33.8548C75.1086 33.8305 75.171 33.6195 75.115 33.3819L75.0104 32.9379C76.248 32.6985 76.8256 32.166 77.3696 31.373L77.7384 31.6473C77.8301 31.7261 77.9384 31.7541 78.037 31.7422C78.1357 31.7307 78.2251 31.6794 78.2792 31.5835C78.3829 31.4 78.3279 31.1216 78.1416 30.9684L77.7962 30.6469C78.2026 29.7438 78.3288 28.5564 78.1476 27.4459L78.5251 27.4015C78.7324 27.3767 78.8659 27.2308 78.809 26.9891ZM77.537 27.1556C78.1522 29.7663 76.8425 32.0908 74.6072 32.3545C72.3783 32.6173 70.071 30.7194 69.4558 28.1082C68.8416 25.5017 70.1535 23.1726 72.3824 22.9098C74.6178 22.6461 76.9228 24.5486 77.537 27.1556Z" fill="#977558"/>
<mask id="mask19_801_146921" style="mask-type:luminance" maskUnits="userSpaceOnUse" x="65" y="27" width="4" height="4">
<path fill-rule="evenodd" clip-rule="evenodd" d="M65.1155 29.6735C65.1192 29.5532 65.1813 29.4648 65.2777 29.4163L68.3226 27.8711C68.1978 27.9344 68.1309 28.0637 68.1731 28.2435C68.2299 28.4848 68.4263 28.5921 68.6341 28.5678L65.5887 30.113C65.5734 30.1148 65.5581 30.1159 65.543 30.1163H65.5202C65.3397 30.1119 65.1783 30.0035 65.1281 29.7883C65.1205 29.7561 65.1164 29.7256 65.1155 29.6967V29.6735Z" fill="white"/>
</mask>
<g mask="url(#mask19_801_146921)">
<path d="M68.6341 28.5677L65.5891 30.1129C65.3813 30.1372 65.185 30.0303 65.1281 29.7886C65.0859 29.6088 65.1529 29.4795 65.2777 29.4162L68.3226 27.871C68.1978 27.9343 68.1309 28.0641 68.1731 28.2434C68.2299 28.4851 68.4263 28.592 68.6341 28.5677Z" fill="#A78A72"/>
</g>
<path d="M45.9772 42.4018C45.9772 42.4018 47.5047 41.5561 49.3607 42.4798C51.2162 43.4031 54.6006 44.0787 57.0079 42.4798C59.4157 40.8805 64.3364 33.0296 66.4896 32.8732C64.913 29.6236 64.49 24.7233 64.49 24.7233C64.49 24.7233 60.4983 22.596 54.9969 24.3422C49.496 26.0887 45.2267 32.8732 45.2267 32.8732L43.6841 37.3346L45.9772 42.4018Z" fill="#2C3341"/>
<path d="M59.8431 35.9953C59.7519 35.9669 59.6601 35.9385 59.5684 35.9096C59.2872 35.822 59.0876 36.1605 59.1849 36.388C58.6652 36.8145 57.9014 37.1576 57.2812 37.4098C57.2129 37.1603 57.061 36.964 56.7069 36.9792C56.4326 36.9906 56.3156 37.1324 56.2463 37.3186C56.1665 37.3144 56.0885 37.3392 56.028 37.3906C55.9982 37.3433 55.9592 37.3016 55.9064 37.27C55.8257 37.2213 55.739 37.1736 55.6477 37.1259C55.6454 37.1218 55.6431 37.1168 55.6408 37.1131C55.5601 36.9906 55.4087 36.9154 55.2762 36.9402C54.7174 36.6673 54.1078 36.3747 53.7977 35.9449C53.6789 35.7802 53.5119 35.7775 53.3711 35.8522C53.0395 35.1188 52.4817 34.4226 52.1473 33.6883C51.5606 32.3999 51.3257 31.1427 51.3551 29.7287C51.3711 29.209 50.6858 29.2081 50.6193 29.703C50.5381 30.3052 50.5404 30.9281 50.6202 31.5418C50.6064 31.556 50.5904 31.5652 50.5775 31.5821C50.022 32.3137 49.7771 33.1576 49.6422 34.0575C49.5335 34.7859 49.3555 35.6454 49.3977 36.4086C49.3716 36.3256 49.3308 36.2481 49.2638 36.199C49.2629 36.1536 49.2679 36.1109 49.2606 36.0623C49.2271 35.8371 48.9179 35.7192 48.761 35.8999C48.6968 35.9733 48.6395 36.0545 48.583 36.1371C48.5477 36.1559 48.5078 36.1747 48.4762 36.1949C48.4757 36.105 48.4734 36.0155 48.4564 35.9261C48.4294 35.783 48.2385 35.7481 48.1652 35.8743C48.0308 36.1059 48.0262 36.1008 48.0028 36.2724C47.8257 36.2866 47.6491 36.4146 47.6482 36.6338C47.6473 36.6521 47.6427 36.6691 47.6418 36.687C47.633 36.6948 47.6239 36.698 47.6161 36.7076C47.6028 36.7232 47.5918 36.7402 47.5794 36.7563C47.5794 36.7558 47.5789 36.7558 47.5789 36.7558C47.5785 36.7572 47.5775 36.7581 47.5766 36.7595C47.4817 36.8773 47.3973 37.0012 47.322 37.1305C47.0468 37.4695 46.6913 37.7836 46.4418 38.1102C46.0858 38.5767 45.7541 39.061 45.4087 39.5357C45.2583 39.7426 45.1115 39.9517 44.9624 40.159L45.1945 40.6718C45.3583 40.442 45.5184 40.2104 45.6844 39.9815C46.1303 39.3674 46.5537 38.7363 47.0289 38.1442C47.0537 38.1134 47.0821 38.0832 47.1078 38.0524C47.2138 38.1905 47.4243 38.2267 47.5555 38.0327C47.572 38.0084 47.5849 37.9827 47.6005 37.9584C47.7615 38.0547 48.0083 37.9818 48.0812 37.7681C48.1161 37.6662 48.1427 37.5717 48.173 37.475C48.2179 37.4686 48.2642 37.4507 48.3078 37.4108C48.3881 37.3374 48.4606 37.2567 48.5289 37.1727C48.6184 37.2525 48.7372 37.281 48.8592 37.1924C49.0051 37.2525 49.1863 37.2131 49.2918 37.0503C49.3308 36.9906 49.3574 36.9416 49.3789 36.8948C50.1968 37.0365 51.0115 37.3076 51.8528 37.3654C52.7881 37.4296 53.7431 37.6364 54.684 37.7103C54.5684 37.9556 54.511 38.2221 54.556 38.5125C54.6019 38.8115 55.011 38.8776 55.1578 38.6193C55.2587 38.4418 55.3275 38.2593 55.3927 38.0754C55.506 38.3409 55.6239 38.5982 55.8629 38.7831C56.0463 38.9248 56.2739 38.7776 56.3376 38.5923C56.3505 38.5556 56.3578 38.5276 56.3679 38.4946C56.4652 38.4877 56.5574 38.445 56.6037 38.3437C56.7413 38.0446 56.706 38.0891 56.6977 37.8731C56.7051 38.0579 56.8665 38.3097 57.0927 38.224C57.9945 37.8809 59.356 37.3842 59.9725 36.6232C60.1294 36.4301 60.1225 36.0825 59.8431 35.9953Z" fill="#222838"/>
<mask id="mask20_801_146921" style="mask-type:luminance" maskUnits="userSpaceOnUse" x="61" y="28" width="4" height="3">
<path fill-rule="evenodd" clip-rule="evenodd" d="M61.2673 30.7046L64.602 29.0128C64.656 29.0068 64.7059 28.9922 64.7494 28.9702V28.9702L61.4148 30.6625C61.3713 30.6841 61.3214 30.6987 61.2673 30.7047V30.7046Z" fill="white"/>
</mask>
<g mask="url(#mask20_801_146921)">
<path d="M64.7494 28.9701L61.4146 30.6621C61.3715 30.6841 61.3215 30.6988 61.2673 30.7052L64.6017 29.0132C64.6563 29.0068 64.7059 28.9921 64.7494 28.9701Z" fill="#4C392A"/>
</g>
<path d="M64.6018 29.0129L61.267 30.7049L60.8486 30.7545L64.1835 29.0625L64.6018 29.0129Z" fill="#4A3728"/>
<mask id="mask21_801_146921" style="mask-type:luminance" maskUnits="userSpaceOnUse" x="58" y="23" width="4" height="3">
<path fill-rule="evenodd" clip-rule="evenodd" d="M58.1643 25.7285C58.2001 25.6658 58.2505 25.619 58.3083 25.5897L61.6427 23.8977C61.5849 23.9266 61.5344 23.9738 61.4991 24.0367L58.1645 25.7285H58.1643H58.1643Z" fill="white"/>
</mask>
<g mask="url(#mask21_801_146921)">
<path d="M61.4992 24.0365L58.1643 25.7285C58.2001 25.6657 58.2505 25.6189 58.3083 25.5895L61.6427 23.8971C61.5849 23.9264 61.5349 23.9737 61.4992 24.0365Z" fill="#4C392A"/>
</g>
<path d="M61.2289 24.4187L57.894 26.1107L58.1642 25.7286L61.4991 24.0366L61.2289 24.4187Z" fill="#4D3A2A"/>
<mask id="mask22_801_146921" style="mask-type:luminance" maskUnits="userSpaceOnUse" x="60" y="33" width="5" height="3">
<path fill-rule="evenodd" clip-rule="evenodd" d="M60.4004 35.3556C60.5036 35.4372 60.6206 35.4725 60.7293 35.4592C60.7715 35.4542 60.8119 35.4423 60.8495 35.423L64.1839 33.731C64.1467 33.7503 64.1064 33.7622 64.0642 33.7672C63.955 33.7801 63.838 33.7448 63.7353 33.6636L60.4004 35.3556Z" fill="white"/>
</mask>
<g mask="url(#mask22_801_146921)">
<path d="M64.1839 33.7312L60.849 35.4232C60.8119 35.442 60.7715 35.4544 60.7293 35.4594C60.6206 35.4723 60.5036 35.437 60.4004 35.3558L63.7353 33.6633C63.8385 33.745 63.955 33.7798 64.0637 33.767C64.1064 33.7624 64.1467 33.75 64.1839 33.7312Z" fill="#4C392A"/>
</g>
<path d="M63.7354 33.6633L60.4005 35.3553L60.0005 35.0526L63.3354 33.3601L63.7354 33.6633Z" fill="#4C392A"/>
<mask id="mask23_801_146921" style="mask-type:luminance" maskUnits="userSpaceOnUse" x="53" y="22" width="5" height="3">
<path fill-rule="evenodd" clip-rule="evenodd" d="M53.8591 24.6728C53.8078 24.455 53.8445 24.2606 53.9908 24.1863L57.3245 22.4941H57.3246C57.1787 22.5687 57.1422 22.7629 57.1935 22.9809L53.8594 24.6728H53.8591Z" fill="white"/>
</mask>
<g mask="url(#mask23_801_146921)">
<path d="M57.1937 22.9808L53.8588 24.6728C53.8074 24.4549 53.8446 24.2604 53.9905 24.1861L57.3253 22.4941C57.179 22.568 57.1423 22.7625 57.1937 22.9808Z" fill="#A78A72"/>
</g>
<path d="M57.3078 23.4641L53.9729 25.1561L53.8591 24.6727L57.194 22.9807L57.3078 23.4641Z" fill="#A78A72"/>
<mask id="mask24_801_146921" style="mask-type:luminance" maskUnits="userSpaceOnUse" x="57" y="34" width="5" height="3">
<path fill-rule="evenodd" clip-rule="evenodd" d="M57.4158 36.7701L60.7499 35.078C61.2104 34.9877 61.5874 34.8607 61.908 34.6979L58.5738 36.3898C58.2531 36.5528 57.8771 36.6798 57.4169 36.7701H57.4158Z" fill="white"/>
</mask>
<g mask="url(#mask24_801_146921)">
<path d="M61.9082 34.6979L58.5733 36.3899C58.2527 36.5527 57.8756 36.6797 57.415 36.7701L60.7494 35.0781C61.2105 34.9877 61.5875 34.8607 61.9082 34.6979Z" fill="#4C392A"/>
</g>
<path d="M60.1764 35.6425L56.8415 37.3345L56.7278 36.851L60.0626 35.1591L60.1764 35.6425Z" fill="#513C2C"/>
<mask id="mask25_801_146921" style="mask-type:luminance" maskUnits="userSpaceOnUse" x="56" y="35" width="5" height="3">
<path fill-rule="evenodd" clip-rule="evenodd" d="M56.8418 37.3352C56.9034 37.5963 57.0694 37.7964 57.2972 37.7694C57.3343 37.7652 57.3669 37.7552 57.3958 37.7409L60.7302 36.0489C60.7018 36.0632 60.6687 36.0733 60.632 36.0774C60.404 36.104 60.238 35.904 60.1761 35.6426L56.8418 37.3345V37.3352V37.3352Z" fill="white"/>
</mask>
<g mask="url(#mask25_801_146921)">
<path d="M60.7303 36.0486L57.3955 37.7406C57.367 37.7553 57.3345 37.7649 57.2973 37.7695C57.0693 37.7965 56.9033 37.5961 56.8418 37.3347L60.1762 35.6422C60.2381 35.9041 60.4042 36.1041 60.6322 36.0775C60.6689 36.0729 60.7019 36.0633 60.7303 36.0486Z" fill="#4C392A"/>
</g>
<mask id="mask26_801_146921" style="mask-type:luminance" maskUnits="userSpaceOnUse" x="51" y="23" width="6" height="4">
<path fill-rule="evenodd" clip-rule="evenodd" d="M51.4529 26.87C51.8538 26.2863 52.3987 25.8144 53.0188 25.4994L56.3536 23.8074C55.733 24.1225 55.1889 24.5944 54.788 25.1783L51.4529 26.8702V26.87Z" fill="white"/>
</mask>
<g mask="url(#mask26_801_146921)">
<path d="M54.7877 25.1782L51.4529 26.8702C51.8538 26.2863 52.3983 25.8143 53.0189 25.4997L56.3538 23.8073C55.7332 24.1223 55.1887 24.5943 54.7877 25.1782Z" fill="#4C392A"/>
</g>
<mask id="mask27_801_146921" style="mask-type:luminance" maskUnits="userSpaceOnUse" x="50" y="24" width="4" height="3">
<path fill-rule="evenodd" clip-rule="evenodd" d="M50.5044 26.628C50.5388 26.5643 50.5878 26.5186 50.6442 26.4897L53.979 24.7977V24.7977C53.9221 24.8262 53.8731 24.872 53.8391 24.9362L50.5047 26.628H50.5044H50.5044Z" fill="white"/>
</mask>
<g mask="url(#mask27_801_146921)">
<path d="M53.839 24.936L50.5042 26.628C50.5386 26.5642 50.5876 26.5184 50.6441 26.4895L53.9789 24.7975C53.9225 24.8259 53.8734 24.8718 53.839 24.936Z" fill="#A78A72"/>
</g>
<path d="M61.5239 34.0743L58.189 35.7663C57.8211 35.953 57.4142 36.0782 56.9743 36.13C54.5312 36.418 52.0051 34.3339 51.3321 31.4778C50.7803 29.135 51.6463 27.0004 53.3234 26.1491L56.6583 24.4572C54.9812 25.308 54.1147 27.443 54.6665 29.7854C55.3395 32.6419 57.8661 34.7261 60.3087 34.438C60.7486 34.3862 61.156 34.261 61.5239 34.0743Z" fill="#3F2A16"/>
<path d="M54.3771 25.9433L51.0422 27.6353L50.6628 27.3014L53.9977 25.6094L54.3771 25.9433Z" fill="#A78A72"/>
<mask id="mask28_801_146921" style="mask-type:luminance" maskUnits="userSpaceOnUse" x="50" y="24" width="4" height="4">
<path fill-rule="evenodd" clip-rule="evenodd" d="M50.4485 26.8401C50.4501 26.7648 50.468 26.6918 50.5041 26.6281L53.839 24.9362C53.7229 25.1407 53.7935 25.442 53.9976 25.6094V25.6095L50.663 27.3014H50.6627C50.5284 27.1909 50.4518 27.0225 50.4485 26.8618V26.8401Z" fill="white"/>
</mask>
<g mask="url(#mask28_801_146921)">
<path d="M53.9976 25.6093L50.6627 27.3013C50.4591 27.1339 50.3884 26.833 50.504 26.628L53.8389 24.936C53.7228 25.1411 53.7939 25.4419 53.9976 25.6093Z" fill="#A78A72"/>
</g>
<mask id="mask29_801_146921" style="mask-type:luminance" maskUnits="userSpaceOnUse" x="53" y="34" width="8" height="3">
<path fill-rule="evenodd" clip-rule="evenodd" d="M56.6505 36.8519C56.6505 36.8519 56.6505 36.8519 56.6505 36.8519C56.6764 36.8519 56.7021 36.8516 56.7279 36.8512L60.0623 35.1592C59.0036 35.1784 57.8554 34.8005 56.893 34.1157L53.5583 35.8081V36.8519H56.6505Z" fill="white"/>
</mask>
<g mask="url(#mask29_801_146921)">
<path d="M60.0625 35.1592L56.7276 36.8512C55.6689 36.8704 54.5203 36.4925 53.5583 35.8082L56.8932 34.1157C57.8551 34.8005 59.0038 35.178 60.0625 35.1592Z" fill="#4C392A"/>
</g>
<mask id="mask30_801_146921" style="mask-type:luminance" maskUnits="userSpaceOnUse" x="50" y="25" width="5" height="7">
<path fill-rule="evenodd" clip-rule="evenodd" d="M54.377 25.9436C53.9284 26.9329 53.7895 28.2152 53.9894 29.4337L50.6546 31.1257C50.455 29.9075 50.5936 28.6247 51.0422 27.6353L54.3771 25.9434L54.377 31.1258H50.5654V25.9434H54.377V25.9436Z" fill="white"/>
</mask>
<g mask="url(#mask30_801_146921)">
<path d="M53.9894 29.4337L50.6545 31.1257C50.455 29.9075 50.5935 28.6247 51.0421 27.6353L54.377 25.9434C53.9283 26.9327 53.7898 28.2156 53.9894 29.4337Z" fill="#4C392A"/>
</g>
<path d="M61.5239 34.0744L58.1891 35.7664C59.8684 34.9147 60.734 32.7768 60.1822 30.434C59.5093 27.5775 56.984 25.4975 54.5377 25.786C54.0983 25.8378 53.6914 25.9626 53.3235 26.1492L56.6583 24.4572C57.0262 24.2706 57.4327 24.1458 57.8721 24.094C60.3189 23.8055 62.8441 25.8855 63.5171 28.742C64.0689 31.0849 63.2028 33.2222 61.5239 34.0744Z" fill="#4C392A"/>
<path d="M62.5372 29.0799C61.8642 26.2234 59.339 24.1434 56.8927 24.4319C56.7954 24.4433 56.7028 24.4644 56.6092 24.4828C54.9642 25.3501 54.1202 27.4659 54.6665 29.7858C55.3394 32.6419 57.8656 34.726 60.3087 34.438C60.406 34.4265 60.4991 34.4054 60.5931 34.3871C62.2399 33.5184 63.0835 31.3998 62.5372 29.0799Z" fill="#661E88"/>
<path d="M58.6695 25.0978C57.9186 27.1461 56.8659 29.0917 56.087 31.1369C56.0833 31.1465 56.0796 31.1557 56.076 31.1649C56.0783 31.1653 56.081 31.1658 56.0833 31.1663C56.0058 31.4772 56.3833 31.8368 56.6214 31.5373C57.2026 30.8058 57.3608 29.5798 57.6893 28.7056C58.1223 27.553 58.7081 26.4091 59.0154 25.2147C59.0769 24.9762 58.7572 24.8588 58.6695 25.0978Z" fill="#654E7E"/>
<path d="M58.8206 28.1962C58.7376 28.8237 58.206 29.5442 57.9193 30.1088C57.6578 30.6248 57.367 31.1316 57.1789 31.6802C57.0885 31.9444 57.4899 32.1801 57.6174 31.9004C57.9394 31.1936 58.2188 30.4661 58.5284 29.7534C58.7376 29.2718 59.0578 28.7356 59.0844 28.2054C59.0936 28.0197 58.844 28.0187 58.8206 28.1962Z" fill="#654E7E"/>
<path d="M61.2521 27.2051L61.2314 27.2482C61.2296 27.2519 61.231 27.2556 61.2296 27.2592C60.6855 28.793 59.7099 30.1731 59.2722 31.7422C59.1686 32.1128 59.6622 32.2838 59.8066 31.9229C60.3929 30.4579 61.1975 28.8774 61.4943 27.3267C61.5209 27.1868 61.3314 27.0414 61.2521 27.2051Z" fill="#654E7E"/>
<path d="M55.9435 33.8697L52.6086 35.5617L52.8146 35.159L56.1495 33.4666L55.9435 33.8697Z" fill="#A78A72"/>
<path d="M56.1493 33.4668L52.8145 35.1588C51.9374 34.33 51.214 33.1287 50.8452 31.9344L54.1796 30.2419C54.5484 31.4363 55.2723 32.638 56.1493 33.4668Z" fill="#4C392A"/>
<mask id="mask31_801_146921" style="mask-type:luminance" maskUnits="userSpaceOnUse" x="52" y="33" width="5" height="4">
<path fill-rule="evenodd" clip-rule="evenodd" d="M52.5532 35.7719C52.5548 35.6963 52.5727 35.6238 52.6088 35.5619L55.9436 33.8699C55.8267 34.0708 55.9001 34.3836 56.1042 34.551C56.2083 34.6363 56.3248 34.6716 56.4303 34.6588C56.4688 34.6546 56.5063 34.6437 56.5416 34.6263V34.6263L53.2069 36.3182C53.1721 36.3356 53.1345 36.3466 53.0955 36.3512C52.99 36.3641 52.8735 36.3287 52.7693 36.2434C52.6346 36.1323 52.5566 35.9578 52.5532 35.7942V35.7719Z" fill="white"/>
</mask>
<g mask="url(#mask31_801_146921)">
<path d="M56.5416 34.626L53.2067 36.3179C53.1719 36.3358 53.1347 36.3468 53.0957 36.3514C52.9902 36.3638 52.8732 36.3285 52.7691 36.2432C52.5654 36.0758 52.492 35.763 52.609 35.5616L55.9434 33.8696C55.8264 34.0705 55.9003 34.3838 56.104 34.5512C56.2081 34.6365 56.3246 34.6718 56.4301 34.659C56.4691 34.6544 56.5067 34.6434 56.5416 34.626Z" fill="#A78A72"/>
</g>
<path d="M54.1797 30.2421L50.8448 31.9341L50.4297 31.9831L53.7646 30.2911L54.1797 30.2421Z" fill="#4A3728"/>
<mask id="mask32_801_146921" style="mask-type:luminance" maskUnits="userSpaceOnUse" x="49" y="29" width="5" height="3">
<path fill-rule="evenodd" clip-rule="evenodd" d="M49.9119 31.499C49.9158 31.3674 49.9834 31.2717 50.0877 31.2188L53.4221 29.5269C53.2877 29.5952 53.2139 29.7342 53.2602 29.9309C53.3231 30.1965 53.54 30.3171 53.7647 30.291V30.291L50.4299 31.9834C50.4167 31.985 50.4035 31.986 50.3904 31.9865H50.3502C50.1558 31.9787 49.9803 31.8573 49.9254 31.6234C49.9172 31.5884 49.9128 31.5552 49.9119 31.5239V31.499Z" fill="white"/>
</mask>
<g mask="url(#mask32_801_146921)">
<path d="M53.7647 30.291L50.4298 31.983C50.2055 32.0096 49.9881 31.8885 49.9257 31.6234C49.8794 31.4266 49.9532 31.2872 50.0876 31.2188L53.4225 29.5269C53.2876 29.5952 53.2138 29.7346 53.2601 29.9309C53.323 30.1965 53.5399 30.3176 53.7647 30.291Z" fill="#A78A72"/>
</g>
<path fill-rule="evenodd" clip-rule="evenodd" d="M64.9105 28.5569C64.8486 28.2955 64.6357 28.1781 64.411 28.2047L63.9926 28.2542C63.6229 27.0558 62.9073 25.8738 62.0293 25.0409L62.238 24.6496C62.3513 24.4492 62.2788 24.1401 62.0784 23.9722C61.9743 23.8869 61.8573 23.8516 61.7522 23.864C61.65 23.8763 61.5559 23.9364 61.499 24.0364L61.2288 24.4185C60.2633 23.7346 59.3972 23.3237 57.9949 23.3828L57.8807 22.8999C57.8192 22.638 57.6499 22.4384 57.4252 22.4646C57.1972 22.4916 57.1321 22.7191 57.1935 22.9806L57.3073 23.464C56.2972 23.6892 55.3839 24.3098 54.7876 25.178L54.4174 24.8675C54.3133 24.7822 54.1977 24.751 54.0922 24.7634C53.9899 24.7753 53.8944 24.8317 53.8389 24.9358C53.7229 25.1409 53.7935 25.4422 53.9977 25.6091L54.377 25.943C53.9279 26.9328 53.7894 28.2152 53.9889 29.4339L53.5738 29.4825C53.3495 29.5091 53.1981 29.6696 53.26 29.9311C53.3224 30.1966 53.5399 30.3173 53.7642 30.2907L54.1798 30.2421C54.5481 31.4364 55.272 32.6376 56.149 33.4664L55.9431 33.8696C55.8266 34.0705 55.8999 34.3837 56.1036 34.5511C56.2077 34.6365 56.3247 34.6718 56.4298 34.6589C56.5321 34.647 56.6238 34.5915 56.683 34.4869L56.8931 34.1159C57.855 34.8007 59.0036 35.1781 60.0623 35.1593L60.1761 35.6423C60.238 35.9037 60.4041 36.1042 60.6321 36.0771C60.8564 36.051 60.9252 35.823 60.8637 35.5616L60.7495 35.0781C62.1036 34.8126 62.7353 34.2292 63.3353 33.3605L63.7353 33.6632C63.8385 33.7448 63.955 33.7797 64.0637 33.7668C64.1729 33.754 64.2706 33.6939 64.327 33.5935C64.4431 33.3885 64.3793 33.0867 64.1788 32.9188L63.7981 32.5647C64.2444 31.5795 64.3816 30.2765 64.183 29.0624L64.6013 29.0128C64.8261 28.9862 64.9729 28.8225 64.9105 28.5569ZM63.5165 28.7418C64.1894 31.5983 62.755 34.1494 60.3087 34.4379C57.8655 34.7259 55.3394 32.6418 54.6665 29.7857C53.9935 26.9292 55.4288 24.3818 57.872 24.0937C60.3183 23.8052 62.8435 25.8853 63.5165 28.7418Z" fill="#977558"/>
<path d="M70.6336 52.5566C70.6336 52.5566 68.1846 52.9277 66.0139 53.2171C68.4382 53.2896 70.1382 53.2171 70.1382 53.2171L70.6336 52.5566Z" fill="#CCCCCB"/>
<path d="M70.2632 48.9985C70.2632 48.9985 62.5412 51.2992 55.6265 51.3487C55.5875 51.5959 56.4494 53.2063 59.2114 54.5093C58.1715 53.7209 57.5192 52.9045 57.0985 52.2674C57.0164 52.1426 57.1049 51.9789 57.254 51.9711C64.9788 51.5771 69.2554 50.2108 70.3485 49.8163L70.2632 48.9985Z" fill="#CCCCCB"/>
<path d="M76.5574 27.4934C75.9432 24.8864 73.6381 22.9838 71.4028 23.2476C71.3326 23.2558 71.2661 23.2723 71.1978 23.2843C69.7184 24.0883 68.9611 26.0069 69.456 28.1084C70.0707 30.7191 72.3785 32.6175 74.6074 32.3542C74.679 32.346 74.7468 32.3295 74.8166 32.3171C76.2978 31.5135 77.0528 29.5972 76.5574 27.4934Z" fill="#661E88"/>
<path d="M45.2266 32.873C45.2266 32.873 39.7807 36.9959 40.1371 41.1743C40.494 45.3527 42.594 48.2418 42.594 48.2418C42.594 48.2418 43.7977 43.1195 47.2472 42.0627C44.2995 38.5792 45.2266 32.873 45.2266 32.873Z" fill="#661E88"/>
<path d="M46.1991 41.224C44.7569 39.5192 44.5289 36.9383 44.0683 34.8679C44.0527 34.7973 43.9569 34.8262 43.9688 34.8936C44.0711 35.4619 44.0188 36.0458 44.1445 36.6154C44.2656 37.1658 44.4605 37.7139 44.6179 38.2565C44.9257 39.316 45.3027 40.5489 46.0225 41.4029C46.1303 41.5309 46.2995 41.3428 46.1991 41.224Z" fill="#550C7C"/>
<path d="M45.4453 42.3389C44.4705 41.3532 44.1861 39.531 43.8435 38.2458C43.6238 37.4198 43.4903 36.4116 43.11 35.6466C43.088 35.6026 43.026 35.6319 43.0366 35.6773C43.3238 36.9038 43.5554 38.1477 43.8467 39.375C44.0971 40.4286 44.3793 41.8394 45.1719 42.6159C45.3563 42.7962 45.6155 42.5109 45.4453 42.3389Z" fill="#550C7C"/>
<path d="M44.8085 43.0801C44.4576 41.9972 43.9049 40.9946 43.4347 39.9608C43.1663 39.3709 42.914 38.7765 42.7003 38.1651C42.5553 37.7496 42.475 37.218 42.2296 36.8387C42.1828 36.7662 42.0581 36.8061 42.0888 36.8974C42.8159 39.049 43.587 41.1235 44.5026 43.2076C44.5837 43.3925 44.8686 43.2654 44.8085 43.0801Z" fill="#550C7C"/>
<path d="M44.0884 43.7585C42.9595 41.8069 41.9311 39.9604 41.5522 37.6946C41.5361 37.5992 41.41 37.6405 41.4205 37.729C41.6843 39.9861 42.5407 42.1023 43.8169 43.9704C43.9339 44.1424 44.1839 43.9237 44.0884 43.7585Z" fill="#550C7C"/>
<path d="M43.4089 44.9178C43.003 43.9408 42.2406 43.1583 41.8232 42.1777C41.3911 41.1632 41.2998 40.0872 40.9924 39.0414C40.9571 38.9194 40.7934 38.9662 40.8158 39.0873C41.2337 41.3407 41.7057 43.2625 43.1718 45.1031C43.292 45.2535 43.469 45.0627 43.4089 44.9178Z" fill="#550C7C"/>
<path d="M42.5377 45.8113C42.3377 45.3541 42.1046 44.9165 41.9156 44.4523C41.7606 44.0707 41.6184 43.6598 41.3831 43.319C41.3464 43.2653 41.2675 43.3337 41.2982 43.3855C41.7661 44.1771 41.8147 45.1614 42.3225 45.9379C42.4156 46.0801 42.6033 45.9609 42.5377 45.8113Z" fill="#550C7C"/>
<path d="M61.2805 32.6114C62.9768 32.4114 63.9718 30.6424 63.5048 28.6614C63.0383 26.6809 61.2874 25.2385 59.5906 25.4384C57.8965 25.638 56.9011 27.4042 57.3681 29.3852C57.8346 31.3661 59.5864 32.8114 61.2805 32.6114" stroke="#977558" stroke-width="0.75"/>
<path d="M63.9041 34.4508C65.16 34.3027 65.8963 32.9932 65.5509 31.5269C65.2055 30.0605 63.9091 28.9928 62.6532 29.1409C61.399 29.2886 60.6623 30.5962 61.0078 32.0626C61.3532 33.5289 62.65 34.599 63.9041 34.4508" stroke="#977558" stroke-width="0.75"/>
<path d="M61.2805 32.6114C62.9768 32.4114 63.9718 30.6424 63.5048 28.6614C63.0383 26.6809 61.2874 25.2385 59.5906 25.4384C57.8965 25.638 56.9011 27.4042 57.3681 29.3852C57.8346 31.3661 59.5864 32.8114 61.2805 32.6114Z" fill="white"/>
<path d="M63.9041 34.4508C65.16 34.3027 65.8963 32.9932 65.5509 31.5269C65.2055 30.0605 63.9091 28.9928 62.6532 29.1409C61.399 29.2886 60.6623 30.5962 61.0078 32.0626C61.3532 33.5289 62.65 34.599 63.9041 34.4508Z" fill="white"/>
<path d="M47.7305 34.6978L55.5396 36.8521L61.774 33.6631" stroke="#C0B17C" stroke-width="0.75"/>
<path d="M47.7305 33.5669L51.3543 28.5345L57.8942 26.111" stroke="#C0B17C" stroke-width="0.75"/>
<path d="M47.7304 34.0067L37.9304 40.0408" stroke="#C0B17C" stroke-width="0.75"/>
<path d="M53.2247 28.1885C53.1128 28.4059 52.6839 28.0252 52.6316 27.9592C52.5316 27.8335 52.4532 27.6973 52.4036 27.5496C52.3867 27.4785 52.3697 27.4097 52.355 27.3482C52.2798 27.0267 51.8624 27.1611 51.9046 27.4661C51.9105 27.5092 51.9225 27.5565 51.9381 27.6055C51.983 27.7904 52.0426 28.0458 52.0445 28.2536C51.8825 28.0596 51.7747 27.7463 51.7325 27.561C51.655 27.2184 51.1881 27.3574 51.2477 27.6881C51.2504 27.7014 51.2509 27.7147 51.2532 27.728C51.2321 27.6954 51.211 27.6619 51.1899 27.6298C51.1036 27.5 50.8913 27.512 50.7936 27.6161C50.7454 27.6674 50.7092 27.7294 50.6848 27.7986C50.6812 27.7798 50.6766 27.7601 50.6738 27.7427C50.7954 27.6165 50.7569 27.3418 50.539 27.3331C50.5105 27.3322 50.4816 27.3308 50.4532 27.3299C50.3192 27.3244 50.2413 27.4409 50.2261 27.5597C50.1463 28.1798 50.7972 29.8511 51.572 29.7965C51.6803 29.7892 51.8009 29.7218 51.8225 29.6034C51.8546 29.4301 51.8555 29.2585 51.8339 29.0897C51.8747 29.0118 51.8981 28.9155 51.9082 28.8063C51.9729 28.8499 52.0413 28.887 52.1169 28.9086C52.2293 28.9402 52.3266 28.8921 52.3894 28.799C52.4532 28.7054 52.4885 28.5949 52.5059 28.4761C52.8752 28.8288 53.3261 28.9852 53.5972 28.444C53.7266 28.1862 53.3674 27.911 53.2247 28.1885Z" fill="#C0B17C"/>
<path d="M57.1943 34.5851C56.9438 34.6699 56.9347 35.13 57.242 35.1222C57.5512 35.1139 57.6778 35.7735 57.5264 35.967C57.4021 36.1257 57.3957 36.0354 57.2539 35.8767C57.1599 35.7712 57.0769 35.6574 56.9819 35.5519C56.8099 35.3602 56.5686 35.5166 56.5406 35.7327C56.5236 35.8606 56.5434 36.1908 56.5163 36.4495C56.5062 36.4147 56.497 36.3812 56.4892 36.3454C56.4778 36.1794 56.458 36.0133 56.4356 35.8519C56.398 35.5726 56.0021 35.6382 55.9906 35.9014C55.9957 36.1968 55.9998 36.5559 55.9259 36.872C55.7663 36.4693 55.7608 35.6538 55.7452 35.4501C55.7191 35.108 55.2603 35.0726 55.2379 35.4327C55.2163 35.7781 55.1851 36.1221 55.158 36.467C55.142 36.6734 55.1447 36.9811 55.0801 37.2361C54.8535 36.7096 54.9883 35.8317 55.0186 35.3643C55.0388 35.0548 54.6122 35.0492 54.5773 35.3488C54.4856 36.1298 54.2736 37.3852 54.9058 38.0067C55.0273 38.1268 55.1851 38.136 55.3158 38.0214C55.4695 37.8865 55.5727 37.7003 55.642 37.4861C55.7246 37.5746 55.8236 37.6425 55.9466 37.6769C56.0741 37.7127 56.198 37.6604 56.2672 37.5485C56.3227 37.4581 56.3631 37.3632 56.3966 37.2664C56.4723 37.3118 56.5764 37.321 56.6484 37.2705C56.9177 37.0834 56.9842 36.7522 57.0085 36.4138C57.1356 36.5459 57.2782 36.6546 57.4512 36.688C57.8076 36.7573 58.0021 36.4115 58.075 36.1055C58.2048 35.5625 57.997 34.3122 57.1943 34.5851Z" fill="#C0B17C"/>
<path fill-rule="evenodd" clip-rule="evenodd" d="M49.4861 33.6154C49.6072 33.4516 49.8214 33.4425 49.9265 33.631C50.0228 33.803 50.0325 33.8603 50.0178 34.058C50.0058 34.219 49.8577 34.3093 49.7315 34.2937C49.515 34.7818 49.2091 35.4372 48.7068 35.106C48.6833 35.0906 48.6637 35.0696 48.6441 35.0486C48.6357 35.0396 48.6274 35.0306 48.6187 35.0221C48.5517 35.234 48.4448 35.4156 48.2325 35.5702C48.1458 35.633 47.9939 35.6248 47.9114 35.5587C47.8256 35.4899 47.7531 35.4083 47.6912 35.3179C47.5325 35.5165 47.3338 35.6248 47.0907 35.5761C46.5522 35.4684 46.6228 34.7937 46.7063 34.3699C46.8343 33.7172 47.1646 33.1012 47.5779 32.5875C47.7054 32.4284 47.8604 32.4949 47.9416 32.6283C48.0311 32.6563 48.1118 32.7274 48.1467 32.8407C48.1581 32.8779 48.1678 32.9214 48.176 32.9705C48.265 32.7733 48.5962 32.8095 48.6737 33.0462C48.7632 33.3209 48.7806 33.6704 48.7669 34.0052C48.8031 34.2139 48.8549 34.3896 48.9297 34.4396C49.0002 34.4869 49.1972 34.1281 49.3425 33.8635C49.4043 33.751 49.4567 33.6555 49.4861 33.6154ZM47.1994 34.8826C47.1949 34.907 47.1922 34.9213 47.1925 34.9212C47.2971 34.8648 47.3673 34.6813 47.4178 34.4873C47.4003 34.3359 47.3935 34.1823 47.3976 34.0268C47.3944 34.0362 47.3908 34.0453 47.3873 34.0543C47.3837 34.0634 47.3802 34.0724 47.3769 34.0818C47.3091 34.2754 47.271 34.4598 47.2384 34.6616C47.2237 34.7519 47.2081 34.8358 47.1994 34.8826Z" fill="#C0B17C"/>
<path d="M46.0122 33.9168C45.9365 33.6366 45.5392 33.7485 45.6076 34.0228C45.6654 34.2544 45.9911 35.6611 45.9663 35.6689C45.9525 35.673 45.3356 34.614 45.2039 34.3975C45.0915 34.2122 44.8057 34.2117 44.7466 34.4461C44.6158 34.9626 44.9686 35.6139 44.9131 36.1491C44.7062 35.8959 44.5461 35.5455 44.3709 35.307C44.2424 35.1323 43.9746 35.2754 43.9764 35.468C43.9778 35.584 44.0117 35.7313 44.0498 35.8858C44.0048 35.7524 43.9658 35.623 43.9301 35.5166C43.847 35.2689 43.4585 35.2511 43.4713 35.5533C43.4718 35.573 43.4452 35.6061 43.4479 35.6061H43.4181V35.6359C43.4181 35.8757 43.5736 36.2908 43.5145 36.4532C43.5732 36.6348 43.5727 36.6798 43.4837 36.5885C43.3764 36.4133 43.2879 36.2317 43.203 36.0441C43.097 35.8276 42.8434 35.9239 42.7979 36.1115C42.7943 36.1092 42.7943 36.1055 42.7901 36.1032C42.6163 35.9968 42.4535 36.1317 42.431 36.311C42.4241 36.3633 42.3819 37.0958 42.3232 37.1251C42.3278 37.1233 42.1934 36.7481 42.1053 36.5046C42.0851 36.4133 42.0571 36.3229 42.0094 36.2358C41.8663 35.9757 41.4842 36.1399 41.5562 36.4248C41.5782 36.5096 41.6048 36.6284 41.6388 36.7591C41.6374 37.021 41.503 37.31 41.414 37.4801C41.2631 37.7682 41.6713 38.0755 41.831 37.7663C41.8732 37.6856 41.9131 37.5994 41.9507 37.5118C42.0755 37.6792 42.2365 37.7801 42.4493 37.7264C42.6035 37.6874 42.6961 37.565 42.758 37.41C42.8145 37.5177 42.8833 37.6031 42.9957 37.7012C43.1535 37.8388 43.3603 37.6517 43.3677 37.487C43.3718 37.3939 43.37 37.304 43.3681 37.2141C43.4599 37.2847 43.5672 37.3338 43.6957 37.3508C43.8112 37.3664 43.9025 37.2604 43.9374 37.165C43.9704 37.0747 43.9888 36.9807 44.0016 36.8857C44.0626 36.9577 44.1291 37.0238 44.209 37.0756C44.3553 37.171 44.5195 37.0825 44.5723 36.9302C44.609 36.8238 44.6204 36.7178 44.62 36.6124C44.7007 36.7032 44.7915 36.7834 44.8989 36.8458C45.0195 36.9155 45.1741 36.8894 45.2457 36.76C45.4365 36.4147 45.3768 36.0487 45.297 35.6808C45.5195 36.0193 45.7915 36.2771 46.0975 36.1633C46.7723 35.9129 46.1246 34.3324 46.0122 33.9168Z" fill="#C0B17C"/>
<path d="M38.3468 40.0887C38.3128 39.7827 38.2069 39.5231 38.2289 39.2058C38.2541 38.8439 37.7394 38.8301 37.7082 39.1874C37.7027 39.253 37.7014 39.3172 37.7004 39.3814C37.6968 39.3805 37.6949 39.3778 37.6913 39.3768C37.4523 39.3021 37.3147 39.5319 37.3339 39.7383C37.3454 39.8584 37.3683 39.9758 37.3954 40.0923C37.2156 39.9323 37.0894 39.8506 36.8417 39.8965C36.75 39.9135 36.6858 40.0002 36.6582 40.0832C36.5926 40.2781 36.5858 40.4464 36.6376 40.6455C36.7229 40.9739 37.1147 40.8491 37.111 40.5519C37.2362 40.6813 37.3931 40.8757 37.4408 40.9179C37.6018 41.061 37.7192 41.1592 37.9431 41.1087C38.0981 41.0739 38.189 40.8863 38.1527 40.7395C38.1303 40.6487 38.1041 40.5588 38.0766 40.4689C38.2422 40.4648 38.3656 40.2593 38.3468 40.0887Z" fill="#C0B17C"/>
<path d="M74.4012 24.5992C73.8521 24.7396 73.5319 26.0674 73.3076 26.5063C72.6746 27.7442 72.0411 28.9854 71.4672 30.2522C71.2645 30.6998 71.8484 31.1851 72.1186 30.698C72.5961 29.8362 72.9053 28.8817 73.2778 27.9731C73.5016 27.4264 73.7214 26.8769 73.9319 26.3247C74.0301 26.0678 74.247 24.9992 74.503 24.8909C74.6544 24.8272 74.5654 24.5575 74.4012 24.5992Z" fill="#654E7E"/>
<path d="M75.0073 26.0813C74.4922 26.5927 74.1899 27.3935 73.8569 28.0296C73.4991 28.7149 73.0312 29.4088 72.7991 30.1486C72.717 30.4114 73.0009 30.744 73.2693 30.5701C73.7949 30.2294 73.9293 29.3735 74.1532 28.8208C74.4959 27.9751 74.7541 27.0541 75.2032 26.2574C75.2738 26.1326 75.1238 25.9657 75.0073 26.0813Z" fill="#654E7E"/>
<path d="M72.5203 23.8095C72.2033 23.9026 72.107 24.3874 71.9731 24.6516C71.7107 25.1708 71.4194 25.674 71.1185 26.1716C70.9699 26.417 71.341 26.6876 71.4822 26.4211C71.7047 26.0028 71.9212 25.5818 72.1194 25.1516C72.2089 24.9571 72.2933 24.7603 72.3781 24.5636C72.4322 24.4379 72.4965 24.1604 72.6116 24.0719C72.7153 23.9916 72.6845 23.7614 72.5203 23.8095Z" fill="#654E7E"/>
<path d="M157.534 129.71C157.311 128.378 157.145 127.387 156.33 126.276C155.299 124.87 154.484 123.564 153.854 121.922C152.823 119.23 151.572 116.4 149.745 114.145C146.732 110.427 142.101 114.792 138.999 117.925C137.812 118.857 136.659 119.836 135.385 120.624C133.103 122.034 130.488 122.89 128.191 124.295C126.279 125.464 125.462 126.235 124.62 128.328C123.597 130.871 122.547 133.382 121.614 135.958C121.281 136.875 119.946 139.306 120.704 140.325C121.385 141.238 123.447 140.072 124.169 139.775C126.241 138.922 127.826 137.478 129.073 135.637C129.956 134.333 130.822 132.987 131.655 131.625C132.156 131.177 132.64 130.696 133.121 130.222C133.368 130.042 133.62 129.872 133.882 129.72C135.363 128.866 137.104 128.971 138.756 129.002C140.26 129.03 141.718 129.192 143.202 129.421C143.702 129.498 144.24 129.526 144.785 129.557C145.31 130.358 145.937 131.099 146.552 131.873C147.955 133.638 149.184 135.543 150.568 137.316C150.845 139.566 150.592 142.116 150.694 144.275C150.802 146.566 150.38 149.22 150.989 151.451C151.029 151.599 151.154 151.748 151.304 151.812C151.33 152.115 151.457 152.403 151.817 152.689C152.444 153.184 153.404 153.151 154.144 152.952C156.254 152.383 157.102 150.131 157.404 148.178C158.372 141.924 158.584 135.982 157.534 129.71Z" fill="#977558"/>
<path d="M43.4515 43.21C44.1694 42.1129 44.9139 41.0419 45.6841 39.9815C45.7511 39.8898 45.8162 39.7967 45.8823 39.704C45.8112 39.5201 45.7447 39.3348 45.6855 39.149C45.5933 39.2779 45.5015 39.4073 45.4084 39.5357C44.5956 40.6525 43.7992 41.773 43.0382 42.9266C42.8616 43.1944 42.0791 44.458 41.2905 45.7982C41.3648 45.9753 41.4392 46.1431 41.5125 46.3032C42.1135 45.2437 42.7846 44.2291 43.4515 43.21Z" fill="#550C7C"/>
<path d="M42.5938 48.2416C42.5938 48.2416 43.7975 43.1198 47.2475 42.0626C47.1654 41.9658 47.0879 41.8672 47.0122 41.7672C45.914 42.2612 45.042 43.0693 44.3094 44.0362C43.4539 45.1645 42.4874 46.4432 42.3713 47.9045C42.508 48.1219 42.5938 48.2416 42.5938 48.2416Z" fill="#550C7C"/>
<path d="M71.6077 38.8093C71.4793 38.7809 71.3582 38.7451 71.2339 38.713C72.3082 39.2712 73.6899 39.4083 74.4142 38.635C75.4495 37.5292 74.2463 36.256 74.2463 36.256C74.2463 36.256 74.2518 36.2477 74.2536 36.2445C73.9449 36.3619 73.5839 36.4202 73.3151 36.4784C72.7646 36.5986 72.1825 36.7064 71.622 36.7632C71.5417 36.771 71.5316 36.905 71.6174 36.9027C72.2701 36.8853 72.9412 36.7642 73.5765 36.6192C73.7765 36.5738 74.0215 36.5147 74.2518 36.4289C74.2541 36.4426 74.2554 36.4569 74.2605 36.4706C74.9678 38.3149 73.1495 39.1483 71.6077 38.8093Z" fill="#222838"/>
</g>
<circle cx="65" cy="65" r="65" fill="#F8F8F8"/>
<path d="M66.8903 65.1329L65.588 63.2981L66.8903 65.1329L72.6506 61.0443H86.3809V76.9076H43.6191V61.0443H57.5447L63.0889 65.1047C64.2178 65.9315 65.7492 65.9429 66.8903 65.1329Z" stroke="#1A1A1A" stroke-width="4.5"/>
<path d="M43.6787 59.3944L48.078 52.1754C48.441 51.5797 49.0882 51.2162 49.7859 51.2162H80.1342C80.8431 51.2162 81.499 51.5914 81.8583 52.2025L86.3223 59.7943" stroke="#1A1A1A" stroke-width="4.5" stroke-linecap="round"/>
</svg>
