<svg width="96" height="96" viewBox="0 0 96 96" fill="none" xmlns="http://www.w3.org/2000/svg">
	<path d="M0 48C0 33.0899 0 25.6348 2.43585 19.7541C5.68366 11.9132 11.9132 5.68366 19.7541 2.43585C25.6348 0 33.0899 0 48 0V0C62.9101 0 70.3652 0 76.2459 2.43585C84.0868 5.68366 90.3163 11.9132 93.5641 19.7541C96 25.6348 96 33.0899 96 48V48C96 62.9101 96 70.3652 93.5641 76.2459C90.3163 84.0868 84.0868 90.3163 76.2459 93.5641C70.3652 96 62.9101 96 48 96V96C33.0899 96 25.6348 96 19.7541 93.5641C11.9132 90.3163 5.68366 84.0868 2.43585 76.2459C0 70.3652 0 62.9101 0 48V48Z" fill="#1A325E"/>
	<path d="M37.3271 69.2813C34.4821 67.8886 31.9429 65.9364 29.8598 63.5398C27.7766 61.1433 26.1915 58.3509 25.1981 55.3277C24.2047 52.3044 23.823 49.1115 24.0757 45.9373C24.3283 42.7631 25.2101 39.672 26.6691 36.8465C28.1281 34.021 30.1346 31.5182 32.5703 29.4861C35.006 27.4539 37.8214 25.9335 40.8504 25.0145C43.8795 24.0955 47.0607 23.7965 50.2064 24.1353C53.3521 24.4741 56.3986 25.4437 59.1659 26.987L56.9867 31.2069C52.7512 28.9979 47.8437 28.4781 43.2441 29.7513C38.6444 31.0246 34.6912 33.9972 32.1736 38.0757C29.656 42.1541 28.7593 47.0384 29.6626 51.7531C30.5659 56.4678 33.2027 60.6662 37.0465 63.5099C40.8903 66.3535 45.6584 67.6332 50.3985 67.0936C55.1387 66.554 59.5022 64.2347 62.6179 60.5987C65.7336 56.9627 67.3723 52.2776 67.2066 47.4789C67.0514 42.9875 65.3264 38.7058 62.352 35.3804V39.648H59.952V30.048H69.552V32.448H66.1297C69.5135 36.3355 71.5599 41.237 71.9367 46.4181C72.3492 52.0888 70.7346 57.721 67.3842 62.2989C64.0339 66.8767 59.1684 70.0987 53.6655 71.3834C48.1627 72.6681 42.3848 71.9311 37.3744 69.3051L37.3271 69.2813Z" fill="white"/>
	<path d="M57.792 40.2721L55.2669 43.8881L48.624 33.4081L44.568 36.0001L46.8894 39.648H35.976V44.448H40.224L34.2 53.064L38.136 55.8L46.08 44.448H49.944L52.2955 48.1433L49.8481 51.648H45.9839L43.632 47.9521L40.656 52.2001L47.304 62.6881L51.36 60.0961L49.0385 56.448H59.9519V51.648H55.7041L61.728 43.0321L57.792 40.2721Z" fill="white"/>
</svg>
