<svg version="1.1" id="Layer_1" xmlns="http://www.w3.org/2000/svg" x="0" y="0" viewBox="0 0 60 60" xml:space="preserve"><style>.st0{fill:#4ba458}.st1{fill:#fefefe}</style><g id="akqYrh.tif"><path class="st0" d="M30 0c16.6 0 30 13.4 30 30S46.5 60 29.9 60C13.4 60 0 46.5 0 30S13.4 0 30 0zm14 29c0-.9-.1-1.8-.3-2.7-1.5-7.6-8.9-12.5-16.5-11C19 17 14.1 25.4 16.7 33.4c1.4 4.3 4.4 7.2 8.6 8.8.2.1.2.1.2.4-.2.7-.4 1.5-.6 2.3-.1.4.2.6.5.5.1 0 .2 0 .2-.1 2.8-1 5.7-1.9 8.5-2.9 6-2 9.9-7.2 9.9-13.4z"/><path class="st1" d="M44 29c0 6.1-3.9 11.4-9.8 13.4-2.8 1-5.7 1.9-8.5 2.9-.1 0-.2.1-.2.1-.4.1-.6-.2-.5-.5.2-.8.4-1.5.6-2.3.1-.2 0-.3-.2-.4-4.2-1.6-7.2-4.5-8.6-8.8-2.6-8 2.3-16.4 10.5-18.1 7.6-1.5 15 3.4 16.5 11 .1.9.2 1.8.2 2.7zm-10.4 9.6h.8c1.8-.2 3.2-1.2 4-2.8.1-.2.2-.3 0-.5-.1-.3-.3-.3-.5-.3-.4.1-.7.1-1.1.2-2.1.3-4.1.3-6.2 0-.4-.1-.9-.1-1.3-.2-.5 0-.6.2-.5.6.5 1.1 1.3 1.9 2.4 2.4.7.4 1.5.6 2.4.6z"/><path class="st0" d="M33.6 38.6c-.8 0-1.6-.1-2.4-.5-1.1-.5-1.9-1.3-2.4-2.4-.2-.4 0-.7.5-.6.4 0 .9.1 1.3.2 2.1.3 4.1.3 6.2 0 .4-.1.7-.1 1.1-.2.2 0 .4 0 .5.2.1.2 0 .3 0 .5-.8 1.7-2.1 2.6-4 2.8-.3-.1-.5-.1-.8 0z"/></g></svg>