<svg width="371" height="232" viewBox="0 0 371 232" fill="none" xmlns="http://www.w3.org/2000/svg"><g filter="url(#a)"><rect x="140" y="6.436" width="91" height="32" rx="10" fill="#fff"/><path d="M160.077 17.482h1.531l2.878 7.677 2.871-7.677h1.532l-3.801 9.954h-1.217l-3.794-9.954Zm-.697 0h1.456l.253 6.645v3.309h-1.709v-9.954Zm8.75 0h1.463v9.954h-1.716v-3.309l.253-6.645Zm7.506 8.47v-3.527c0-.265-.048-.492-.144-.684a1.005 1.005 0 0 0-.437-.444c-.192-.105-.433-.157-.725-.157-.269 0-.501.045-.697.136a1.124 1.124 0 0 0-.458.37.886.886 0 0 0-.164.526h-1.641c0-.292.071-.574.212-.848a2.26 2.26 0 0 1 .615-.731c.269-.214.59-.383.964-.506a4.013 4.013 0 0 1 1.258-.185c.556 0 1.048.094 1.477.28.432.188.772.47 1.018.848.251.374.376.843.376 1.409v3.288c0 .337.023.64.068.909.051.264.121.494.212.69v.11h-1.688a2.911 2.911 0 0 1-.185-.677 5.527 5.527 0 0 1-.061-.807Zm.239-3.015.014 1.02h-1.183c-.305 0-.574.029-.807.088a1.66 1.66 0 0 0-.581.246 1.063 1.063 0 0 0-.464.923c0 .196.045.376.136.54a.96.96 0 0 0 .397.376c.177.091.392.137.642.137.338 0 .631-.069.882-.206a1.82 1.82 0 0 0 .602-.512c.146-.205.223-.399.232-.581l.533.731a2.48 2.48 0 0 1-.28.602 2.91 2.91 0 0 1-.519.615 2.588 2.588 0 0 1-1.771.656c-.483 0-.914-.095-1.292-.287a2.306 2.306 0 0 1-.889-.786 2.04 2.04 0 0 1-.321-1.128c0-.392.073-.738.219-1.039.15-.305.369-.56.656-.766.292-.205.647-.36 1.066-.464a5.71 5.71 0 0 1 1.436-.165h1.292Zm6.528-2.898v1.203h-4.17V20.04h4.17Zm-2.966-1.812h1.647v7.165c0 .227.032.403.096.526a.508.508 0 0 0 .28.24c.118.04.257.06.417.06.114 0 .223-.006.328-.02.105-.013.189-.027.253-.04l.007 1.257a4.174 4.174 0 0 1-.479.11 3.5 3.5 0 0 1-.615.047c-.378 0-.713-.066-1.005-.198a1.48 1.48 0 0 1-.683-.663c-.164-.305-.246-.711-.246-1.217v-7.267Zm7.259 8.033c.269 0 .511-.053.725-.158.219-.109.394-.26.526-.45.137-.192.212-.413.226-.664h1.552a2.32 2.32 0 0 1-.424 1.306 2.947 2.947 0 0 1-1.087.936c-.451.228-.95.342-1.497.342-.565 0-1.057-.095-1.477-.287a2.923 2.923 0 0 1-1.046-.806 3.564 3.564 0 0 1-.629-1.183 4.904 4.904 0 0 1-.205-1.436v-.239c0-.51.069-.989.205-1.435.142-.452.351-.848.629-1.19a2.856 2.856 0 0 1 1.046-.8c.42-.196.909-.294 1.47-.294.592 0 1.112.119 1.559.356.446.232.797.558 1.052.977.26.415.394.898.404 1.45h-1.552a1.657 1.657 0 0 0-.205-.739 1.356 1.356 0 0 0-.506-.533 1.443 1.443 0 0 0-.773-.198c-.332 0-.608.068-.827.205a1.383 1.383 0 0 0-.512.547 2.676 2.676 0 0 0-.267.772c-.05.283-.075.577-.075.882v.24c0 .305.025.6.075.888.05.287.137.545.26.773.127.223.301.403.519.54.219.132.497.198.834.198Zm5.92-9.325v10.5h-1.64v-10.5h1.64Zm-.287 6.529-.533-.007c.004-.51.075-.982.212-1.415.141-.433.337-.809.588-1.128a2.61 2.61 0 0 1 2.098-1.012c.365 0 .693.05.985.15.296.101.551.263.765.486.215.219.376.506.486.861.114.351.171.78.171 1.286v4.75h-1.655v-4.764c0-.356-.052-.638-.157-.848a.91.91 0 0 0-.444-.45 1.625 1.625 0 0 0-.718-.145c-.296 0-.558.06-.786.178a1.65 1.65 0 0 0-.561.486c-.15.205-.264.442-.342.71a3.318 3.318 0 0 0-.109.862Zm9.7 4.108a3.943 3.943 0 0 1-1.483-.266 3.272 3.272 0 0 1-1.121-.76 3.353 3.353 0 0 1-.704-1.14 4 4 0 0 1-.246-1.416v-.273c0-.579.084-1.103.253-1.572.168-.47.403-.87.704-1.204a3.02 3.02 0 0 1 1.066-.772c.41-.178.855-.267 1.333-.267.529 0 .991.09 1.388.267.396.178.724.428.984.752.264.319.46.7.588 1.142.132.442.198.93.198 1.462v.705h-5.715v-1.183h4.088v-.13a2.319 2.319 0 0 0-.177-.834 1.418 1.418 0 0 0-.486-.629c-.219-.16-.51-.24-.875-.24-.273 0-.517.06-.731.179-.21.113-.385.28-.527.499-.141.218-.25.483-.328.793-.073.305-.109.649-.109 1.032v.273c0 .324.043.625.13.903.091.273.223.512.396.717.173.205.383.367.629.486.246.114.527.17.841.17.396 0 .75-.08 1.06-.239.309-.16.578-.385.806-.676l.868.84a3.347 3.347 0 0 1-.622.67c-.255.21-.567.38-.936.513a3.73 3.73 0 0 1-1.272.198Zm8.395-2.14a.826.826 0 0 0-.123-.444c-.082-.136-.239-.26-.472-.369-.228-.11-.565-.21-1.012-.3a8.717 8.717 0 0 1-1.08-.308 3.446 3.446 0 0 1-.834-.445 1.88 1.88 0 0 1-.54-.615 1.71 1.71 0 0 1-.191-.82c0-.3.066-.586.198-.855.132-.268.321-.506.568-.71a2.76 2.76 0 0 1 .895-.486 3.744 3.744 0 0 1 1.189-.178c.62 0 1.151.105 1.593.315.447.205.789.485 1.026.84.237.352.355.748.355 1.19h-1.647c0-.196-.05-.378-.151-.547a1.042 1.042 0 0 0-.437-.417c-.196-.11-.442-.164-.739-.164-.282 0-.517.046-.704.137a.963.963 0 0 0-.41.342.878.878 0 0 0-.061.8c.05.095.132.184.246.266.114.077.269.15.465.219.2.068.451.134.752.198.565.119 1.05.271 1.456.458.41.182.724.42.943.711.219.287.328.652.328 1.094 0 .328-.071.629-.212.902a2.051 2.051 0 0 1-.601.704 3.023 3.023 0 0 1-.951.458 4.27 4.27 0 0 1-1.23.164c-.67 0-1.237-.118-1.702-.355-.465-.242-.818-.55-1.06-.923a2.184 2.184 0 0 1-.355-1.176h1.593c.018.306.102.55.252.732.155.177.347.307.575.39.232.077.471.116.717.116.297 0 .545-.04.746-.117.2-.082.353-.191.458-.328a.788.788 0 0 0 .157-.478Z" fill="#000"/></g><g filter="url(#b)"><rect x="10.5" y="58.435" width="138" height="53" rx="10" fill="#fff"/><path d="M46.722 73.509v5.927H45.45v-7.397h1.203l.069 1.47Zm-.26 1.948-.588-.02c.005-.506.07-.974.198-1.402.128-.433.317-.809.568-1.128.25-.319.563-.565.936-.738.374-.178.807-.267 1.299-.267.346 0 .665.05.957.15.292.096.545.25.759.459.214.21.38.478.499.806.118.329.178.725.178 1.19v4.928h-1.265v-4.867c0-.387-.066-.697-.198-.93a1.133 1.133 0 0 0-.547-.505 1.973 1.973 0 0 0-.834-.164c-.374 0-.686.066-.937.198-.25.132-.45.314-.601.547-.15.232-.26.499-.328.8-.064.296-.096.61-.096.943Zm4.792-.697-.848.26c.005-.406.07-.796.199-1.17.132-.373.32-.706.567-.997.25-.292.558-.522.923-.69.364-.174.781-.26 1.25-.26.397 0 .748.052 1.053.157.31.104.57.266.78.485.214.214.376.49.485.827.11.337.164.738.164 1.203v4.86h-1.271v-4.874c0-.414-.066-.736-.199-.963a1.033 1.033 0 0 0-.547-.486 2.186 2.186 0 0 0-.833-.143c-.278 0-.524.048-.739.143a1.527 1.527 0 0 0-.54.397 1.732 1.732 0 0 0-.335.567c-.073.214-.11.442-.11.684Zm8.565 3.91 2.058-6.63h1.353l-2.966 8.537c-.069.182-.16.378-.274.588a2.81 2.81 0 0 1-.424.608 2.018 2.018 0 0 1-.629.465c-.241.123-.53.185-.868.185-.1 0-.227-.014-.383-.041a3.718 3.718 0 0 1-.328-.069l-.006-1.025c.036.005.093.01.17.014a2.034 2.034 0 0 0 .902-.103c.201-.073.37-.198.507-.376.14-.173.262-.412.362-.717l.526-1.436Zm-1.51-6.63 1.92 5.741.329 1.333-.91.465-2.72-7.54h1.38Zm7.936 6.083 1.9-6.084h.835l-.165 1.21-1.934 6.187h-.814l.178-1.313Zm-1.278-6.084 1.62 6.152.116 1.245h-.854l-2.147-7.397h1.265Zm5.83 6.105 1.546-6.105H73.6l-2.147 7.397h-.848l.192-1.292Zm-1.633-6.105 1.86 5.981.211 1.416h-.806l-1.99-6.2-.164-1.197h.89Zm8.805 7.533c-.515 0-.982-.086-1.402-.26a3.177 3.177 0 0 1-1.073-.745 3.316 3.316 0 0 1-.683-1.134 4.162 4.162 0 0 1-.24-1.436v-.287c0-.602.09-1.137.267-1.606.178-.474.42-.876.725-1.204a3.103 3.103 0 0 1 1.039-.745 2.985 2.985 0 0 1 1.203-.253c.528 0 .984.091 1.367.274.387.182.704.437.95.765.246.324.428.707.547 1.149.118.437.178.916.178 1.435v.568h-5.524V75.06h4.259v-.096a3.156 3.156 0 0 0-.205-.957 1.721 1.721 0 0 0-.547-.766c-.25-.2-.592-.3-1.025-.3a1.721 1.721 0 0 0-1.415.717 2.686 2.686 0 0 0-.404.868 4.4 4.4 0 0 0-.143 1.183v.287c0 .351.048.681.143.991.1.306.244.575.431.807.191.232.421.415.69.547.274.132.584.198.93.198.447 0 .825-.091 1.135-.273.31-.183.58-.426.813-.732l.766.609a3.54 3.54 0 0 1-.608.69c-.246.219-.55.397-.91.533-.355.137-.777.205-1.264.205Zm4.347-10.636h1.272V78l-.11 1.436h-1.162v-10.5Zm6.269 6.74v.143c0 .538-.064 1.037-.191 1.497a3.682 3.682 0 0 1-.561 1.19c-.246.337-.547.6-.902.786-.356.187-.764.28-1.224.28-.47 0-.882-.08-1.237-.239a2.432 2.432 0 0 1-.889-.704A3.638 3.638 0 0 1 83 77.52a6.972 6.972 0 0 1-.294-1.462v-.63A6.978 6.978 0 0 1 83 73.96c.146-.433.34-.802.581-1.107a2.34 2.34 0 0 1 .889-.705c.35-.164.758-.246 1.223-.246.465 0 .878.091 1.238.274.36.177.66.433.902.765.246.333.433.732.56 1.197.128.46.192.973.192 1.538Zm-1.271.143v-.143c0-.37-.035-.716-.103-1.04a2.69 2.69 0 0 0-.328-.86 1.634 1.634 0 0 0-.595-.588c-.246-.146-.55-.22-.91-.22-.318 0-.596.055-.833.165-.233.11-.43.257-.595.444a2.357 2.357 0 0 0-.403.63c-.1.232-.176.473-.226.724v1.647c.073.32.192.627.356.923.168.292.392.53.67.718.282.187.63.28 1.046.28.341 0 .633-.068.875-.205a1.65 1.65 0 0 0 .594-.581c.155-.246.27-.531.342-.855.073-.323.11-.67.11-1.039Zm7.177 1.655c0-.183-.04-.351-.123-.506-.077-.16-.24-.303-.485-.43-.242-.133-.606-.247-1.094-.343a8.664 8.664 0 0 1-1.114-.307 3.377 3.377 0 0 1-.841-.431 1.806 1.806 0 0 1-.526-.595 1.659 1.659 0 0 1-.185-.8c0-.291.064-.567.191-.827.133-.26.317-.49.554-.69.242-.2.531-.358.868-.472a3.51 3.51 0 0 1 1.128-.17c.593 0 1.099.104 1.518.314.42.21.74.49.964.84.223.347.335.732.335 1.156h-1.265c0-.205-.061-.403-.185-.595a1.361 1.361 0 0 0-.526-.485c-.228-.128-.508-.192-.84-.192-.352 0-.636.055-.855.165-.214.104-.372.239-.472.403a1.015 1.015 0 0 0-.075.888c.05.105.137.203.26.294.123.087.296.169.52.246.223.078.507.155.854.233.606.137 1.105.3 1.497.492.392.191.683.426.875.704.191.278.287.615.287 1.012a1.971 1.971 0 0 1-.786 1.586c-.25.191-.552.342-.903.451a4.028 4.028 0 0 1-1.169.157c-.651 0-1.203-.116-1.654-.348-.451-.233-.793-.534-1.025-.903a2.159 2.159 0 0 1-.349-1.169h1.272c.018.347.118.622.3.828.183.2.406.344.67.43.265.082.527.123.786.123.347 0 .636-.045.869-.136a1.21 1.21 0 0 0 .54-.377.871.871 0 0 0 .184-.546Zm4.3-5.435v7.397h-1.272v-7.397h1.272Zm-1.367-1.962c0-.205.061-.378.184-.52.128-.14.315-.211.56-.211.242 0 .427.07.555.212a.732.732 0 0 1 .198.52.715.715 0 0 1-.198.505c-.128.137-.313.205-.554.205-.246 0-.433-.068-.56-.205a.745.745 0 0 1-.185-.506Zm6.494 1.962v.97h-4v-.97h4Zm-2.646-1.798h1.265v7.362c0 .251.039.44.116.568a.558.558 0 0 0 .301.253c.123.04.255.061.397.061.104 0 .214-.009.328-.027.118-.023.207-.041.266-.055l.007 1.032c-.1.032-.232.062-.396.09-.16.031-.354.047-.581.047-.31 0-.595-.061-.855-.184a1.374 1.374 0 0 1-.622-.616c-.15-.291-.226-.683-.226-1.175V70.24Zm7.199 9.331c-.515 0-.982-.086-1.402-.26a3.185 3.185 0 0 1-1.073-.745 3.326 3.326 0 0 1-.684-1.134 4.174 4.174 0 0 1-.239-1.436v-.287c0-.602.089-1.137.267-1.606.178-.474.419-.876.724-1.204a3.108 3.108 0 0 1 1.04-.745 2.982 2.982 0 0 1 1.203-.253c.528 0 .984.091 1.367.274.387.182.704.437.95.765.246.324.428.707.547 1.149.118.437.178.916.178 1.435v.568h-5.524V75.06h4.259v-.096a3.162 3.162 0 0 0-.205-.957 1.718 1.718 0 0 0-.547-.766c-.251-.2-.592-.3-1.025-.3a1.72 1.72 0 0 0-1.415.717 2.674 2.674 0 0 0-.404.868 4.43 4.43 0 0 0-.143 1.183v.287c0 .351.048.681.143.991.101.306.244.575.431.807.191.232.421.415.69.547.274.132.584.198.93.198.447 0 .825-.091 1.135-.273.31-.183.581-.426.813-.732l.766.609c-.16.241-.362.471-.608.69a2.92 2.92 0 0 1-.91.533c-.355.137-.777.205-1.264.205Zm4.375-.806c0-.215.066-.395.198-.54.137-.15.333-.226.588-.226.255 0 .449.075.581.226a.758.758 0 0 1 .205.54.75.75 0 0 1-.205.533c-.132.146-.326.219-.581.219-.255 0-.451-.073-.588-.22a.766.766 0 0 1-.198-.532Zm4.935-5.148v5.818h-1.264v-7.397h1.196l.068 1.58Zm-.301 1.839-.526-.02c.005-.506.08-.974.226-1.402.146-.433.351-.809.615-1.128a2.743 2.743 0 0 1 2.167-1.005c.364 0 .693.05.984.15.292.096.54.251.745.466.21.214.37.492.479.834.109.337.164.75.164 1.237v4.847h-1.272v-4.86c0-.388-.056-.698-.17-.93a1.054 1.054 0 0 0-.499-.513c-.219-.11-.488-.164-.807-.164-.315 0-.602.066-.861.198a2.042 2.042 0 0 0-.663.547 2.74 2.74 0 0 0-.431.8c-.1.296-.151.61-.151.943Zm9.844 4.115c-.515 0-.982-.086-1.401-.26a3.165 3.165 0 0 1-1.073-.745 3.31 3.31 0 0 1-.684-1.134 4.174 4.174 0 0 1-.239-1.436v-.287c0-.602.089-1.137.266-1.606.178-.474.42-.876.725-1.204a3.104 3.104 0 0 1 1.039-.745 2.982 2.982 0 0 1 1.203-.253c.529 0 .985.091 1.367.274.388.182.704.437.951.765.246.324.428.707.546 1.149.119.437.178.916.178 1.435v.568h-5.523V75.06h4.259v-.096a3.163 3.163 0 0 0-.206-.957 1.724 1.724 0 0 0-.546-.766c-.251-.2-.593-.3-1.026-.3a1.723 1.723 0 0 0-1.415.717 2.694 2.694 0 0 0-.403.868 4.388 4.388 0 0 0-.144 1.183v.287c0 .351.048.681.144.991.1.306.244.575.43.807.192.232.422.415.691.547.273.132.583.198.93.198.446 0 .824-.091 1.134-.273.31-.183.581-.426.814-.732l.765.609a3.525 3.525 0 0 1-.608.69 2.902 2.902 0 0 1-.909.533c-.356.137-.777.205-1.265.205Zm7.451-7.533v.97h-3.999v-.97h3.999Zm-2.645-1.798h1.265v7.362c0 .251.038.44.116.568a.551.551 0 0 0 .301.253c.123.04.255.061.396.061.105 0 .214-.009.328-.027.119-.023.207-.041.267-.055l.007 1.032a2.988 2.988 0 0 1-.397.09 3.01 3.01 0 0 1-.581.047c-.31 0-.595-.061-.854-.184a1.376 1.376 0 0 1-.623-.616c-.15-.291-.225-.683-.225-1.175V70.24ZM27.374 78.953l-3.763-3.761c-.111-.11-.111-.221-.111-.443 0-.11 0-.331.11-.442l.886-.774c.11-.111.222-.222.443-.222.11 0 .332.111.443.222l2.545 2.544 5.424-5.42c.11-.11.221-.221.443-.221.22 0 .332.11.442.22l.886.775c.11.11.11.221.11.443 0 .11 0 .331-.11.442l-6.641 6.637c-.11.11-.222.22-.443.22-.443 0-.553-.11-.664-.22ZM40.607 89.55v1.73h-.914v-1.73h.914Zm-.11 9.57v1.575h-.915v-1.576h.914Zm.644-1.923a1.21 1.21 0 0 0-.123-.568 1.11 1.11 0 0 0-.387-.416 3.38 3.38 0 0 0-.715-.352 10.081 10.081 0 0 1-1.342-.62 2.622 2.622 0 0 1-.896-.827c-.215-.332-.322-.752-.322-1.26 0-.484.115-.904.345-1.26.23-.355.549-.628.955-.82.41-.195.887-.293 1.43-.293.414 0 .789.063 1.125.188a2.329 2.329 0 0 1 1.424 1.4c.129.34.193.729.193 1.166h-1.681a2.29 2.29 0 0 0-.077-.62c-.05-.18-.125-.331-.222-.452a.87.87 0 0 0-.34-.27 1.019 1.019 0 0 0-.44-.093c-.238 0-.433.047-.586.14a.832.832 0 0 0-.334.381c-.066.156-.1.336-.1.54 0 .198.036.372.106.52.074.15.201.286.381.41.18.122.426.247.738.376.508.195.954.406 1.336.633.383.226.682.504.897.832.215.328.322.746.322 1.254 0 .503-.117.933-.351 1.289a2.246 2.246 0 0 1-.985.808c-.422.184-.91.276-1.465.276a4.19 4.19 0 0 1-1.072-.141 2.887 2.887 0 0 1-.967-.469c-.289-.215-.52-.5-.691-.855-.172-.36-.258-.801-.258-1.325h1.688c0 .286.037.524.11.715.075.188.173.338.294.452.125.109.266.187.422.234.156.047.314.07.474.07.25 0 .455-.045.616-.134a.885.885 0 0 0 .369-.37c.086-.16.129-.34.129-.539Zm8.672.92v1.319h-5.836V98.31l2.76-2.958c.277-.309.495-.58.656-.815.16-.238.275-.451.345-.639a1.552 1.552 0 0 0-.018-1.207.96.96 0 0 0-.38-.433 1.137 1.137 0 0 0-.61-.152c-.257 0-.48.062-.667.187a1.193 1.193 0 0 0-.422.521c-.094.223-.141.475-.141.756h-1.693c0-.507.12-.972.363-1.394a2.664 2.664 0 0 1 1.025-1.014c.442-.254.965-.38 1.57-.38.598 0 1.102.097 1.512.292.414.192.727.469.938.832.215.36.322.79.322 1.29 0 .28-.045.556-.135.826a3.73 3.73 0 0 1-.386.796 6.415 6.415 0 0 1-.598.797c-.234.27-.494.55-.78.838l-1.482 1.664h3.657Zm6.796-3.697v1.477c0 .64-.068 1.193-.205 1.658-.136.46-.334.84-.592 1.136-.253.293-.556.51-.908.65a3.13 3.13 0 0 1-1.172.212 3.44 3.44 0 0 1-.96-.13 2.416 2.416 0 0 1-.803-.415 2.64 2.64 0 0 1-.61-.71 3.633 3.633 0 0 1-.386-1.03 6.266 6.266 0 0 1-.135-1.371V94.42c0-.64.068-1.19.205-1.647.14-.46.338-.837.592-1.13a2.33 2.33 0 0 1 .914-.645 3.13 3.13 0 0 1 1.172-.21c.344 0 .662.044.955.134.297.086.564.22.802.404.239.184.442.42.61.71.168.284.297.626.387 1.025.09.394.134.847.134 1.359Zm-1.693 1.7V94.19c0-.308-.018-.578-.053-.808a2.375 2.375 0 0 0-.146-.586 1.237 1.237 0 0 0-.246-.399.898.898 0 0 0-.334-.222 1.176 1.176 0 0 0-.416-.07c-.192 0-.362.037-.51.11a.948.948 0 0 0-.37.358c-.1.16-.179.375-.234.645-.05.265-.076.59-.076.972v1.928c0 .309.016.58.047.815.035.234.086.435.152.603.07.164.153.299.247.404a.896.896 0 0 0 .334.223c.129.047.27.07.421.07.188 0 .354-.037.498-.111a.98.98 0 0 0 .376-.363c.105-.168.183-.387.234-.657.05-.269.076-.597.076-.984Zm2.994 2.501c0-.25.086-.459.258-.627.176-.168.408-.252.697-.252.29 0 .52.084.692.252a.832.832 0 0 1 .263.627c0 .25-.088.46-.263.627-.172.168-.403.252-.692.252-.289 0-.521-.084-.697-.252a.84.84 0 0 1-.258-.627Zm9.07-4.201v1.477c0 .64-.068 1.193-.205 1.658-.136.46-.334.84-.591 1.136-.254.293-.557.51-.909.65a3.13 3.13 0 0 1-1.172.212 3.44 3.44 0 0 1-.96-.13 2.418 2.418 0 0 1-.803-.415 2.642 2.642 0 0 1-.61-.71 3.633 3.633 0 0 1-.386-1.03 6.266 6.266 0 0 1-.135-1.371V94.42c0-.64.068-1.19.205-1.647.14-.46.338-.837.592-1.13a2.33 2.33 0 0 1 .914-.645 3.13 3.13 0 0 1 1.172-.21c.344 0 .662.044.955.134.297.086.564.22.803.404.238.184.441.42.609.71.168.284.297.626.387 1.025.09.394.135.847.135 1.359Zm-1.693 1.7V94.19c0-.308-.018-.578-.053-.808a2.375 2.375 0 0 0-.146-.586 1.237 1.237 0 0 0-.246-.399.898.898 0 0 0-.334-.222 1.176 1.176 0 0 0-.416-.07c-.192 0-.361.037-.51.11a.948.948 0 0 0-.37.358c-.1.16-.179.375-.234.645-.05.265-.076.59-.076.972v1.928c0 .309.016.58.047.815.035.234.086.435.153.603.07.164.152.299.246.404a.896.896 0 0 0 .334.223c.128.047.27.07.421.07.188 0 .354-.037.499-.111a.98.98 0 0 0 .375-.363c.105-.168.183-.387.234-.657.05-.269.076-.597.076-.984Zm8.584-1.7v1.477c0 .64-.068 1.193-.205 1.658-.137.46-.334.84-.592 1.136-.254.293-.556.51-.908.65a3.13 3.13 0 0 1-1.172.212 3.44 3.44 0 0 1-.96-.13 2.417 2.417 0 0 1-.803-.415 2.642 2.642 0 0 1-.61-.71 3.633 3.633 0 0 1-.387-1.03 6.266 6.266 0 0 1-.134-1.371V94.42c0-.64.068-1.19.205-1.647.14-.46.338-.837.591-1.13a2.33 2.33 0 0 1 .915-.645 3.13 3.13 0 0 1 1.171-.21c.344 0 .662.044.956.134.296.086.564.22.802.404.239.184.442.42.61.71.168.284.297.626.386 1.025.09.394.135.847.135 1.359Zm-1.693 1.7V94.19c0-.308-.018-.578-.053-.808a2.37 2.37 0 0 0-.147-.586 1.237 1.237 0 0 0-.246-.399.897.897 0 0 0-.334-.222 1.176 1.176 0 0 0-.416-.07c-.191 0-.36.037-.51.11a.948.948 0 0 0-.368.358c-.102.16-.18.375-.235.645-.05.265-.076.59-.076.972v1.928c0 .309.016.58.047.815.035.234.086.435.152.603.07.164.152.299.246.404a.896.896 0 0 0 .334.223c.13.047.27.07.422.07.188 0 .354-.037.498-.111a.98.98 0 0 0 .375-.363c.106-.168.184-.387.235-.657.05-.269.076-.597.076-.984Z" fill="#000"/><rect x="85.5" y="87.436" width="50" height="16" rx="2" fill="#D9D9D9"/><path d="M94.133 95.315h-1.826l-.01-1.005h1.533c.27 0 .492-.035.664-.103a.804.804 0 0 0 .386-.308.902.902 0 0 0 .132-.498c0-.221-.043-.4-.127-.537a.698.698 0 0 0-.386-.298 2.018 2.018 0 0 0-.669-.092h-1.016v5.962H91.35v-7.11h2.48c.413 0 .783.04 1.109.117.328.079.607.197.834.357.228.16.403.361.523.605.12.241.18.528.18.86 0 .293-.066.563-.2.81-.13.248-.337.45-.62.606-.28.156-.646.242-1.098.258l-.425.376Zm-.064 3.12h-2.163l.572-1.142h1.591c.257 0 .468-.04.63-.122a.836.836 0 0 0 .362-.342c.078-.143.117-.307.117-.493 0-.208-.036-.39-.108-.542a.725.725 0 0 0-.332-.352c-.153-.084-.355-.127-.605-.127h-1.411l.01-1.005h1.757l.337.395c.433-.006.781.07 1.045.23.267.156.46.36.581.61.124.25.186.52.186.806 0 .455-.1.84-.298 1.152-.199.31-.49.542-.874.698-.381.156-.846.235-1.397.235Zm6.704-1.264v-4.019h1.407v5.284h-1.324l-.083-1.265Zm.157-1.084.415-.01c0 .352-.041.679-.122.982-.082.3-.204.56-.367.78a1.699 1.699 0 0 1-.615.514c-.247.12-.538.18-.874.18-.257 0-.495-.036-.713-.107-.215-.075-.4-.19-.556-.347a1.68 1.68 0 0 1-.362-.61 2.84 2.84 0 0 1-.127-.904v-3.413h1.407v3.423c0 .156.017.288.053.396a.71.71 0 0 0 .162.263.59.59 0 0 0 .239.147c.094.03.198.044.312.044.29 0 .518-.059.684-.176a.926.926 0 0 0 .356-.478c.072-.206.108-.433.108-.684Zm3.891 1.753 1.402-4.688h1.508l-2.124 6.08a3.225 3.225 0 0 1-.185.43 1.758 1.758 0 0 1-.308.434c-.127.14-.288.254-.483.342a1.712 1.712 0 0 1-.708.131c-.134 0-.243-.008-.327-.024a5.625 5.625 0 0 1-.303-.068v-1.03h.112c.039.002.077.004.113.004.185 0 .336-.021.454-.063a.636.636 0 0 0 .283-.196.96.96 0 0 0 .171-.332l.395-1.02Zm-.586-4.688 1.148 3.829.2 1.489-.957.102-1.899-5.42h1.508Zm12.422-1.826v7.11h-1.465l-2.856-4.766v4.766h-1.465v-7.11h1.465l2.861 4.77v-4.77h1.46Zm.962 4.522v-.103c0-.387.055-.744.166-1.07.111-.328.272-.613.484-.854.211-.24.472-.428.781-.561a2.606 2.606 0 0 1 1.064-.205c.401 0 .757.068 1.07.205.312.133.574.32.786.561.215.241.377.526.488.855.111.325.166.682.166 1.07v.102c0 .384-.055.74-.166 1.069-.111.326-.273.61-.488.855-.212.24-.472.427-.782.561-.309.133-.664.2-1.064.2s-.757-.067-1.069-.2a2.199 2.199 0 0 1-.786-.561 2.536 2.536 0 0 1-.484-.855 3.323 3.323 0 0 1-.166-1.07Zm1.406-.103v.103c0 .221.02.428.059.62.039.192.101.361.186.508a.958.958 0 0 0 .341.337c.14.08.311.122.513.122.195 0 .363-.041.503-.123a.932.932 0 0 0 .337-.336c.085-.147.146-.316.185-.508.043-.192.064-.399.064-.62v-.103c0-.215-.021-.416-.064-.605a1.594 1.594 0 0 0-.19-.508.948.948 0 0 0-.337-.352.963.963 0 0 0-.508-.127.965.965 0 0 0-.508.127.995.995 0 0 0-.336.352 1.665 1.665 0 0 0-.186.508 2.99 2.99 0 0 0-.059.605Zm5.972 1.323 1.099-3.916h.893l-.288 1.538-1.098 3.746h-.748l.142-1.368Zm-.557-3.916.787 3.912.073 1.372h-.879l-1.338-5.284h1.357ZM127.995 97l.767-3.848h1.362l-1.338 5.284h-.874l.083-1.436Zm-.884-3.848 1.094 3.887.151 1.397h-.752l-1.098-3.74-.278-1.544h.883Z" fill="#000"/></g><g filter="url(#c)"><rect x="214.5" y="111.436" width="146" height="53" rx="10" fill="#fff"/><path d="M250.722 126.509v5.927h-1.272v-7.397h1.203l.069 1.47Zm-.26 1.948-.588-.02c.005-.506.071-.973.198-1.402.128-.433.317-.809.568-1.128a2.51 2.51 0 0 1 .936-.738c.374-.178.807-.267 1.299-.267.346 0 .665.05.957.151.292.095.545.248.759.458.214.209.38.478.499.806.118.329.178.725.178 1.19v4.929h-1.265v-4.868c0-.387-.066-.697-.198-.929a1.133 1.133 0 0 0-.547-.506 1.964 1.964 0 0 0-.834-.164c-.374 0-.686.066-.937.198-.25.132-.451.314-.601.547-.151.232-.26.499-.328.8-.064.296-.096.61-.096.943Zm4.792-.697-.848.26c.005-.406.071-.796.198-1.169.133-.374.322-.707.568-.998.251-.292.558-.522.923-.691.364-.173.781-.26 1.251-.26.396 0 .747.053 1.052.158.31.104.57.266.78.485.214.214.376.49.485.827.109.337.164.738.164 1.203v4.861h-1.271v-4.874c0-.415-.066-.736-.199-.964a1.027 1.027 0 0 0-.546-.486 2.204 2.204 0 0 0-.834-.143c-.278 0-.525.048-.739.143a1.53 1.53 0 0 0-.54.397 1.737 1.737 0 0 0-.335.567 2.104 2.104 0 0 0-.109.684Zm8.565 3.91 2.058-6.631h1.353l-2.966 8.538c-.069.182-.16.378-.274.588-.109.214-.25.417-.424.608a1.997 1.997 0 0 1-.628.465 1.896 1.896 0 0 1-.869.185c-.1 0-.228-.014-.382-.041a3.661 3.661 0 0 1-.329-.069l-.006-1.025c.036.005.093.009.17.014a2.03 2.03 0 0 0 .903-.103c.2-.073.369-.198.506-.376.141-.173.262-.412.362-.718l.526-1.435Zm-1.51-6.631 1.92 5.742.329 1.333-.91.465-2.72-7.54h1.381Zm7.936 6.084 1.901-6.084h.833l-.164 1.21-1.934 6.187h-.814l.178-1.313Zm-1.278-6.084 1.62 6.152.116 1.245h-.854l-2.147-7.397h1.265Zm5.831 6.105 1.545-6.105h1.258l-2.147 7.397h-.848l.192-1.292Zm-1.634-6.105 1.859 5.982.212 1.415h-.806l-1.99-6.201-.164-1.196h.889Zm8.805 7.533c-.515 0-.982-.086-1.402-.26a3.175 3.175 0 0 1-1.073-.745 3.31 3.31 0 0 1-.683-1.134 4.153 4.153 0 0 1-.24-1.436v-.287c0-.602.089-1.137.267-1.606.178-.474.419-.875.724-1.204a3.114 3.114 0 0 1 1.04-.745 2.992 2.992 0 0 1 1.203-.253c.528 0 .984.091 1.367.274.387.182.704.437.95.765.246.324.428.707.547 1.149.118.437.178.916.178 1.435v.568h-5.524v-1.032h4.259v-.096a3.163 3.163 0 0 0-.205-.957 1.722 1.722 0 0 0-.547-.766c-.251-.2-.592-.301-1.025-.301a1.721 1.721 0 0 0-1.415.718 2.682 2.682 0 0 0-.404.868 4.432 4.432 0 0 0-.143 1.183v.287c0 .351.048.681.143.991.101.306.244.574.431.807.191.232.422.415.69.547.274.132.584.198.93.198.447 0 .825-.091 1.135-.273.31-.183.581-.427.813-.732l.766.609c-.16.241-.362.471-.608.69-.247.219-.55.396-.91.533-.355.137-.777.205-1.264.205Zm4.347-10.636h1.272V131l-.109 1.436h-1.163v-10.5Zm6.269 6.74v.143c0 .538-.064 1.037-.191 1.497a3.69 3.69 0 0 1-.561 1.19 2.618 2.618 0 0 1-.902.786c-.356.187-.764.28-1.224.28-.469 0-.882-.079-1.237-.239a2.439 2.439 0 0 1-.889-.704 3.655 3.655 0 0 1-.581-1.108 6.999 6.999 0 0 1-.294-1.462v-.629a7.026 7.026 0 0 1 .294-1.47c.146-.433.34-.802.581-1.107.242-.31.538-.545.889-.705.351-.164.759-.246 1.223-.246.465 0 .878.091 1.238.274.36.178.66.433.902.765.246.333.433.732.561 1.197.127.46.191.973.191 1.538Zm-1.272.143v-.143c0-.369-.034-.716-.102-1.039a2.696 2.696 0 0 0-.328-.862 1.64 1.64 0 0 0-.595-.587c-.246-.146-.549-.219-.909-.219-.319 0-.597.054-.834.164a1.79 1.79 0 0 0-.595.444 2.359 2.359 0 0 0-.403.629 3.61 3.61 0 0 0-.226.725v1.647c.073.319.192.627.356.923.168.292.392.531.67.718.282.187.631.28 1.046.28.341 0 .633-.068.875-.205.246-.141.444-.335.594-.581.155-.246.269-.531.342-.855.073-.323.109-.67.109-1.039Zm7.178 1.655c0-.183-.041-.351-.123-.506-.077-.16-.239-.303-.485-.431-.242-.132-.606-.246-1.094-.342a8.624 8.624 0 0 1-1.114-.307 3.38 3.38 0 0 1-.841-.431 1.807 1.807 0 0 1-.526-.595 1.658 1.658 0 0 1-.185-.8c0-.291.064-.567.191-.827.133-.259.317-.49.554-.69.242-.201.531-.358.868-.472a3.514 3.514 0 0 1 1.128-.171c.593 0 1.099.105 1.518.315.419.209.74.49.964.841.223.346.335.731.335 1.155h-1.265c0-.205-.062-.403-.185-.595a1.348 1.348 0 0 0-.526-.485c-.228-.128-.508-.192-.841-.192-.351 0-.635.055-.854.164a1.1 1.1 0 0 0-.472.404 1.01 1.01 0 0 0-.143.519c0 .137.022.26.068.369a.81.81 0 0 0 .26.294c.123.087.296.169.519.247.223.077.508.154.855.232.606.137 1.105.301 1.497.492.392.192.683.426.875.704.191.278.287.615.287 1.012 0 .323-.068.62-.205.889a1.978 1.978 0 0 1-.581.697 2.895 2.895 0 0 1-.903.451 4.023 4.023 0 0 1-1.169.157c-.651 0-1.203-.116-1.654-.348-.451-.233-.793-.534-1.025-.903a2.155 2.155 0 0 1-.349-1.169h1.272c.018.347.118.622.3.827.183.201.406.345.67.431.265.082.527.123.786.123.347 0 .636-.045.869-.137a1.21 1.21 0 0 0 .54-.375.872.872 0 0 0 .184-.547Zm4.3-5.435v7.397h-1.271v-7.397h1.271Zm-1.367-1.962c0-.205.061-.378.184-.519.128-.142.315-.212.561-.212.241 0 .426.07.554.212a.731.731 0 0 1 .198.519.715.715 0 0 1-.198.506c-.128.137-.313.205-.554.205-.246 0-.433-.068-.561-.205a.744.744 0 0 1-.184-.506Zm6.494 1.962v.971h-3.999v-.971h3.999Zm-2.646-1.798h1.265v7.363c0 .25.039.439.116.567a.556.556 0 0 0 .301.253c.123.041.255.061.397.061.104 0 .214-.009.328-.027.118-.023.207-.041.266-.055l.007 1.033c-.1.031-.232.061-.396.088-.16.032-.354.048-.581.048-.31 0-.595-.061-.855-.184a1.37 1.37 0 0 1-.622-.616c-.15-.291-.226-.683-.226-1.175v-7.356Zm7.199 9.331c-.515 0-.982-.086-1.402-.26a3.175 3.175 0 0 1-1.073-.745 3.328 3.328 0 0 1-.684-1.134 4.177 4.177 0 0 1-.239-1.436v-.287c0-.602.089-1.137.267-1.606.178-.474.419-.875.724-1.204a3.114 3.114 0 0 1 1.04-.745 2.992 2.992 0 0 1 1.203-.253c.528 0 .984.091 1.367.274.387.182.704.437.95.765.246.324.428.707.547 1.149.118.437.178.916.178 1.435v.568h-5.524v-1.032h4.259v-.096a3.163 3.163 0 0 0-.205-.957 1.722 1.722 0 0 0-.547-.766c-.251-.2-.592-.301-1.025-.301a1.721 1.721 0 0 0-1.415.718 2.682 2.682 0 0 0-.404.868 4.432 4.432 0 0 0-.143 1.183v.287c0 .351.048.681.143.991.101.306.244.574.431.807.191.232.421.415.69.547.274.132.584.198.93.198.447 0 .825-.091 1.135-.273.31-.183.581-.427.813-.732l.766.609c-.16.241-.362.471-.608.69-.247.219-.55.396-.91.533-.355.137-.777.205-1.264.205Zm4.375-.806c0-.215.066-.395.198-.54.137-.151.333-.226.588-.226.255 0 .449.075.581.226a.756.756 0 0 1 .205.54.75.75 0 0 1-.205.533c-.132.146-.326.219-.581.219-.255 0-.451-.073-.588-.219a.767.767 0 0 1-.198-.533Zm6.631-.233c.3 0 .578-.061.834-.184.255-.123.464-.292.628-.506.165-.219.258-.467.281-.745h1.203a2.259 2.259 0 0 1-.444 1.223 3.033 3.033 0 0 1-1.06.909 3.074 3.074 0 0 1-1.442.342c-.556 0-1.042-.098-1.456-.294a2.893 2.893 0 0 1-1.026-.806 3.59 3.59 0 0 1-.608-1.176 4.968 4.968 0 0 1-.199-1.415v-.287c0-.497.067-.966.199-1.408.136-.447.339-.841.608-1.183a2.885 2.885 0 0 1 1.026-.807c.414-.196.9-.294 1.456-.294.578 0 1.084.119 1.517.356.433.232.773.551 1.019.957.25.401.387.857.41 1.367h-1.203a1.83 1.83 0 0 0-.26-.827 1.618 1.618 0 0 0-.602-.588 1.68 1.68 0 0 0-.881-.226c-.388 0-.714.078-.978.233-.26.15-.467.355-.622.615-.15.255-.26.54-.328.855a4.674 4.674 0 0 0-.096.95v.287c0 .323.032.642.096.957.064.314.171.599.321.854.155.256.362.461.622.616.265.15.593.225.985.225Zm4.033-2.714v-.157c0-.533.077-1.028.232-1.483.155-.461.378-.859.67-1.197a3.002 3.002 0 0 1 1.06-.793 3.29 3.29 0 0 1 1.394-.287c.52 0 .987.096 1.402.287.419.187.774.452 1.066.793.296.338.522.736.677 1.197.155.455.232.95.232 1.483v.157a4.58 4.58 0 0 1-.232 1.484 3.562 3.562 0 0 1-.677 1.196 3.1 3.1 0 0 1-1.06.793c-.41.187-.875.28-1.394.28-.52 0-.987-.093-1.401-.28a3.166 3.166 0 0 1-1.067-.793 3.616 3.616 0 0 1-.67-1.196 4.58 4.58 0 0 1-.232-1.484Zm1.264-.157v.157c0 .369.044.718.13 1.046.087.324.217.611.39.862.178.25.399.448.663.594.264.142.572.212.923.212.346 0 .649-.07.909-.212.264-.146.483-.344.656-.594a2.77 2.77 0 0 0 .39-.862c.091-.328.137-.677.137-1.046v-.157c0-.364-.046-.709-.137-1.032a2.656 2.656 0 0 0-.397-.868 1.88 1.88 0 0 0-.656-.602 1.84 1.84 0 0 0-.916-.219c-.346 0-.651.073-.916.219-.26.146-.478.347-.656.602-.173.25-.303.54-.39.868-.086.323-.13.668-.13 1.032Zm8.313-2.153v5.927h-1.272v-7.397h1.204l.068 1.47Zm-.26 1.948-.588-.02a5.06 5.06 0 0 1 .199-1.402c.127-.433.316-.809.567-1.128.251-.319.563-.565.936-.738.374-.178.807-.267 1.299-.267.347 0 .666.05.957.151.292.095.545.248.759.458a2.1 2.1 0 0 1 .499.806c.119.329.178.725.178 1.19v4.929h-1.265v-4.868c0-.387-.066-.697-.198-.929a1.133 1.133 0 0 0-.547-.506 1.964 1.964 0 0 0-.834-.164c-.374 0-.686.066-.936.198a1.572 1.572 0 0 0-.602.547 2.46 2.46 0 0 0-.328.8c-.064.296-.096.61-.096.943Zm4.792-.697-.848.26a3.72 3.72 0 0 1 .199-1.169 3.16 3.16 0 0 1 .567-.998c.251-.292.558-.522.923-.691.365-.173.782-.26 1.251-.26.396 0 .747.053 1.053.158.31.104.569.266.779.485.214.214.376.49.485.827.11.337.164.738.164 1.203v4.861h-1.271v-4.874c0-.415-.066-.736-.198-.964a1.033 1.033 0 0 0-.547-.486 2.204 2.204 0 0 0-.834-.143c-.278 0-.524.048-.738.143a1.524 1.524 0 0 0-.541.397 1.735 1.735 0 0 0-.334.567c-.073.214-.11.442-.11.684ZM231.374 131.953l-3.763-3.761c-.111-.111-.111-.221-.111-.443 0-.11 0-.331.111-.442l.885-.774c.111-.111.222-.222.443-.222.111 0 .332.111.443.222l2.545 2.544 5.424-5.42c.11-.111.221-.221.443-.221.221 0 .332.11.442.221l.886.774c.11.111.11.221.11.442 0 .111 0 .332-.11.443l-6.641 6.637c-.111.11-.222.221-.443.221-.443 0-.553-.111-.664-.221ZM252.607 142.551v1.728h-.914v-1.728h.914Zm-.111 9.568v1.576h-.914v-1.576h.914Zm.645-1.922a1.21 1.21 0 0 0-.123-.568 1.115 1.115 0 0 0-.387-.416 3.418 3.418 0 0 0-.715-.352 10.028 10.028 0 0 1-1.342-.621 2.614 2.614 0 0 1-.896-.826c-.215-.332-.323-.752-.323-1.26 0-.484.116-.904.346-1.259.231-.356.549-.629.955-.821.41-.195.887-.293 1.43-.293.414 0 .789.063 1.125.188.336.121.625.301.867.539.242.234.428.521.557.861.129.34.193.729.193 1.166h-1.682c0-.234-.025-.441-.076-.621-.05-.18-.125-.33-.222-.451a.877.877 0 0 0-.34-.27 1.026 1.026 0 0 0-.44-.093c-.238 0-.433.046-.586.14a.84.84 0 0 0-.334.381 1.375 1.375 0 0 0-.099.539c0 .199.035.373.105.522.075.148.201.285.381.41.18.121.426.246.738.375.508.195.954.406 1.336.633.383.226.682.504.897.832.215.328.322.746.322 1.254 0 .503-.117.933-.351 1.289a2.25 2.25 0 0 1-.985.808c-.422.184-.91.276-1.465.276-.359 0-.716-.047-1.072-.141a2.897 2.897 0 0 1-.967-.469 2.283 2.283 0 0 1-.691-.855c-.172-.36-.258-.801-.258-1.324h1.688c0 .285.037.523.111.714.074.188.172.338.293.452.125.109.265.187.422.234.156.047.314.07.474.07.25 0 .455-.045.616-.135a.876.876 0 0 0 .369-.369c.086-.16.129-.34.129-.539Zm8.671.92v1.319h-5.835v-1.125l2.759-2.959c.278-.309.496-.581.657-.815.16-.238.275-.451.345-.639a1.556 1.556 0 0 0-.017-1.207.959.959 0 0 0-.381-.433 1.134 1.134 0 0 0-.61-.153c-.257 0-.48.063-.668.188a1.193 1.193 0 0 0-.421.521 1.93 1.93 0 0 0-.141.756h-1.693c0-.508.121-.972.363-1.394a2.664 2.664 0 0 1 1.025-1.014c.442-.254.965-.381 1.571-.381.597 0 1.101.098 1.511.293.414.192.727.469.938.832.215.36.322.789.322 1.289 0 .282-.045.557-.135.826-.09.266-.218.532-.386.797a6.391 6.391 0 0 1-.598.797c-.234.27-.494.549-.779.838l-1.483 1.664h3.656Zm6.797-3.697v1.476c0 .641-.068 1.194-.205 1.659-.136.461-.334.84-.592 1.136a2.33 2.33 0 0 1-.908.651 3.14 3.14 0 0 1-1.172.211c-.343 0-.664-.043-.961-.129a2.433 2.433 0 0 1-.802-.416 2.646 2.646 0 0 1-.61-.709 3.612 3.612 0 0 1-.386-1.031 6.269 6.269 0 0 1-.135-1.372v-1.476c0-.641.068-1.19.205-1.647.141-.461.338-.837.592-1.13a2.33 2.33 0 0 1 .914-.645 3.12 3.12 0 0 1 1.172-.211c.343 0 .662.045.955.135.297.086.564.221.803.404.238.184.441.42.609.709.168.285.297.627.387 1.026.089.394.134.847.134 1.359Zm-1.693 1.699v-1.928a5.44 5.44 0 0 0-.053-.808 2.374 2.374 0 0 0-.146-.586 1.268 1.268 0 0 0-.246-.399.906.906 0 0 0-.334-.222 1.175 1.175 0 0 0-.416-.071c-.192 0-.362.038-.51.112a.938.938 0 0 0-.369.357c-.102.16-.18.375-.235.645-.05.265-.076.59-.076.972v1.928c0 .309.016.58.047.815.035.234.086.435.152.603.071.164.153.299.247.404a.889.889 0 0 0 .334.223c.128.047.269.07.421.07.188 0 .354-.037.498-.111a.97.97 0 0 0 .375-.363 1.89 1.89 0 0 0 .235-.656c.051-.27.076-.598.076-.985Zm2.994 2.502a.84.84 0 0 1 .258-.627c.176-.168.408-.252.697-.252s.52.084.692.252a.834.834 0 0 1 .263.627c0 .25-.088.459-.263.627-.172.168-.403.252-.692.252-.289 0-.521-.084-.697-.252a.84.84 0 0 1-.258-.627Zm9.07-4.201v1.476c0 .641-.068 1.194-.205 1.659-.136.461-.334.84-.591 1.136a2.34 2.34 0 0 1-.909.651c-.351.14-.742.211-1.171.211-.344 0-.665-.043-.961-.129a2.428 2.428 0 0 1-.803-.416 2.646 2.646 0 0 1-.61-.709 3.642 3.642 0 0 1-.386-1.031 6.269 6.269 0 0 1-.135-1.372v-1.476c0-.641.068-1.19.205-1.647.141-.461.338-.837.592-1.13a2.33 2.33 0 0 1 .914-.645 3.12 3.12 0 0 1 1.172-.211c.344 0 .662.045.955.135.297.086.564.221.803.404.238.184.441.42.609.709.168.285.297.627.387 1.026.09.394.134.847.134 1.359Zm-1.693 1.699v-1.928c0-.308-.017-.578-.053-.808a2.374 2.374 0 0 0-.146-.586 1.268 1.268 0 0 0-.246-.399.906.906 0 0 0-.334-.222 1.175 1.175 0 0 0-.416-.071c-.192 0-.362.038-.51.112a.945.945 0 0 0-.369.357c-.102.16-.18.375-.234.645-.051.265-.077.59-.077.972v1.928c0 .309.016.58.047.815.035.234.086.435.153.603.07.164.152.299.246.404a.889.889 0 0 0 .334.223c.129.047.269.07.422.07.187 0 .353-.037.498-.111a.984.984 0 0 0 .375-.363 1.91 1.91 0 0 0 .234-.656c.051-.27.076-.598.076-.985Zm8.584-1.699v1.476c0 .641-.068 1.194-.205 1.659-.137.461-.334.84-.592 1.136-.254.293-.556.51-.908.651-.352.14-.742.211-1.172.211a3.44 3.44 0 0 1-.961-.129 2.438 2.438 0 0 1-.803-.416 2.66 2.66 0 0 1-.609-.709 3.643 3.643 0 0 1-.387-1.031 6.335 6.335 0 0 1-.134-1.372v-1.476c0-.641.068-1.19.205-1.647.14-.461.338-.837.591-1.13.258-.293.563-.508.915-.645a3.118 3.118 0 0 1 1.171-.211c.344 0 .663.045.956.135.296.086.564.221.802.404.239.184.442.42.61.709.168.285.296.627.386 1.026.09.394.135.847.135 1.359Zm-1.693 1.699v-1.928a5.44 5.44 0 0 0-.053-.808 2.374 2.374 0 0 0-.146-.586 1.251 1.251 0 0 0-.247-.399.898.898 0 0 0-.334-.222 1.171 1.171 0 0 0-.416-.071c-.191 0-.361.038-.509.112a.938.938 0 0 0-.369.357c-.102.16-.18.375-.235.645-.051.265-.076.59-.076.972v1.928c0 .309.016.58.047.815.035.234.086.435.152.603.07.164.153.299.246.404a.896.896 0 0 0 .334.223c.129.047.27.07.422.07.188 0 .354-.037.498-.111a.97.97 0 0 0 .375-.363 1.89 1.89 0 0 0 .235-.656c.05-.27.076-.598.076-.985Z" fill="#000"/><rect x="297.5" y="140.436" width="50" height="16" rx="2" fill="#D9D9D9"/><path d="M306.133 148.315h-1.826l-.01-1.005h1.533c.27 0 .492-.035.664-.103a.804.804 0 0 0 .386-.308.898.898 0 0 0 .132-.498c0-.221-.043-.4-.127-.537a.704.704 0 0 0-.386-.298 2.042 2.042 0 0 0-.669-.092h-1.016v5.962h-1.464v-7.11h2.48c.413 0 .783.039 1.108.117.329.078.608.197.835.357.228.159.402.361.523.605.12.241.181.528.181.86 0 .293-.067.563-.201.81-.13.248-.337.449-.62.606-.28.156-.646.242-1.098.258l-.425.376Zm-.064 3.121h-2.163l.572-1.143h1.591c.257 0 .467-.041.63-.122a.846.846 0 0 0 .362-.342c.078-.143.117-.308.117-.493 0-.208-.036-.389-.108-.542a.727.727 0 0 0-.332-.352c-.153-.084-.355-.127-.605-.127h-1.411l.009-1.005h1.758l.337.395c.433-.006.781.07 1.045.23.267.156.461.359.581.61.124.251.186.519.186.806 0 .455-.1.839-.298 1.152-.199.309-.49.542-.874.698-.381.156-.847.235-1.397.235Zm6.704-1.265v-4.019h1.407v5.284h-1.324l-.083-1.265Zm.157-1.084.415-.01c0 .352-.041.679-.122.982a2.358 2.358 0 0 1-.367.781 1.704 1.704 0 0 1-.615.513c-.247.12-.539.18-.874.18-.257 0-.495-.036-.713-.107a1.451 1.451 0 0 1-.556-.347 1.68 1.68 0 0 1-.362-.61 2.86 2.86 0 0 1-.127-.904v-3.413h1.407v3.423c0 .156.018.288.053.396a.71.71 0 0 0 .161.263.588.588 0 0 0 .24.147c.094.029.198.044.312.044.29 0 .518-.059.684-.176a.927.927 0 0 0 .356-.478c.072-.206.108-.433.108-.684Zm3.891 1.753 1.402-4.688h1.508l-2.124 6.079a3.2 3.2 0 0 1-.185.43 1.758 1.758 0 0 1-.308.435c-.127.14-.288.254-.483.342a1.712 1.712 0 0 1-.708.131c-.134 0-.243-.008-.327-.024a5.625 5.625 0 0 1-.303-.068v-1.031h.112c.039.004.077.005.113.005.185 0 .336-.021.454-.063a.642.642 0 0 0 .283-.196.95.95 0 0 0 .171-.332l.395-1.02Zm-.586-4.688 1.148 3.828.2 1.49-.957.102-1.899-5.42h1.508Zm12.422-1.826v7.11h-1.465l-2.856-4.766v4.766h-1.465v-7.11h1.465l2.861 4.771v-4.771h1.46Zm.962 4.522v-.103c0-.387.055-.744.166-1.069.111-.329.272-.614.484-.855.211-.241.472-.428.781-.561a2.603 2.603 0 0 1 1.064-.205c.401 0 .757.068 1.07.205.312.133.574.32.786.561.215.241.377.526.488.855.111.325.166.682.166 1.069v.103c0 .384-.055.74-.166 1.069-.111.326-.273.61-.488.854a2.16 2.16 0 0 1-.782.562 2.67 2.67 0 0 1-1.064.2c-.4 0-.757-.067-1.069-.2a2.193 2.193 0 0 1-.786-.562 2.527 2.527 0 0 1-.484-.854 3.322 3.322 0 0 1-.166-1.069Zm1.406-.103v.103c0 .221.02.428.059.62.039.192.101.361.186.508a.954.954 0 0 0 .341.336 1 1 0 0 0 .513.123.98.98 0 0 0 .503-.123.928.928 0 0 0 .337-.336 1.67 1.67 0 0 0 .185-.508c.043-.192.064-.399.064-.62v-.103c0-.215-.021-.417-.064-.605a1.59 1.59 0 0 0-.19-.508.95.95 0 0 0-.337-.352.97.97 0 0 0-.508-.127.972.972 0 0 0-.508.127.997.997 0 0 0-.336.352 1.662 1.662 0 0 0-.186.508c-.039.188-.059.39-.059.605Zm5.972 1.323 1.099-3.916h.893l-.288 1.538-1.098 3.746h-.748l.142-1.368Zm-.557-3.916.787 3.911.073 1.373h-.879l-1.338-5.284h1.357Zm3.555 3.848.767-3.848h1.362l-1.338 5.284h-.874l.083-1.436Zm-.884-3.848 1.094 3.887.151 1.397h-.752l-1.098-3.741-.278-1.543h.883Z" fill="#000"/></g><g filter="url(#d)"><rect x="10.5" y="164.436" width="139" height="53" rx="10" fill="#fff"/><path d="M46.722 179.509v5.927H45.45v-7.397h1.203l.069 1.47Zm-.26 1.948-.588-.02c.005-.506.07-.973.198-1.402.128-.433.317-.809.568-1.128a2.52 2.52 0 0 1 .936-.738c.374-.178.807-.267 1.299-.267.346 0 .665.05.957.151.292.095.545.248.759.458.214.209.38.478.499.806.118.329.178.725.178 1.19v4.929h-1.265v-4.868c0-.387-.066-.697-.198-.929a1.131 1.131 0 0 0-.547-.506 1.964 1.964 0 0 0-.834-.164c-.374 0-.686.066-.937.198-.25.132-.45.314-.601.547-.15.232-.26.499-.328.8-.064.296-.096.61-.096.943Zm4.792-.697-.848.26a3.72 3.72 0 0 1 .199-1.169c.132-.374.32-.707.567-.998.25-.292.558-.522.923-.691.364-.173.781-.26 1.25-.26.397 0 .748.053 1.053.158.31.104.57.266.78.485.214.214.376.49.485.827.11.337.164.738.164 1.203v4.861h-1.271v-4.874c0-.415-.066-.736-.199-.964a1.031 1.031 0 0 0-.547-.486 2.2 2.2 0 0 0-.833-.143c-.278 0-.524.048-.739.143a1.527 1.527 0 0 0-.54.397 1.732 1.732 0 0 0-.335.567c-.073.214-.11.442-.11.684Zm8.565 3.91 2.058-6.631h1.353l-2.966 8.538c-.069.182-.16.378-.274.588-.11.214-.25.417-.424.608a2.002 2.002 0 0 1-.629.465c-.241.123-.53.185-.868.185-.1 0-.227-.014-.383-.041a3.615 3.615 0 0 1-.328-.069l-.006-1.025c.036.005.093.009.17.014a2.024 2.024 0 0 0 .902-.103c.201-.073.37-.198.507-.376.14-.173.262-.412.362-.718l.526-1.435Zm-1.51-6.631 1.92 5.742.329 1.333-.91.465-2.72-7.54h1.38Zm7.936 6.084 1.9-6.084h.835l-.165 1.21-1.934 6.187h-.814l.178-1.313Zm-1.278-6.084 1.62 6.152.116 1.245h-.854l-2.147-7.397h1.265Zm5.83 6.105 1.546-6.105H73.6l-2.147 7.397h-.848l.192-1.292Zm-1.633-6.105 1.86 5.982.211 1.415h-.806l-1.99-6.201-.164-1.196h.89Zm8.805 7.533c-.515 0-.982-.086-1.402-.26a3.167 3.167 0 0 1-1.073-.745 3.317 3.317 0 0 1-.683-1.134 4.165 4.165 0 0 1-.24-1.436v-.287c0-.602.09-1.137.267-1.606.178-.474.42-.875.725-1.204a3.11 3.11 0 0 1 1.039-.745 2.995 2.995 0 0 1 1.203-.253c.528 0 .984.091 1.367.274.387.182.704.437.95.765.246.324.428.707.547 1.149.118.437.178.916.178 1.435v.568h-5.524v-1.032h4.259v-.096a3.157 3.157 0 0 0-.205-.957 1.725 1.725 0 0 0-.547-.766c-.25-.2-.592-.301-1.025-.301a1.723 1.723 0 0 0-1.415.718 2.693 2.693 0 0 0-.404.868 4.403 4.403 0 0 0-.143 1.183v.287c0 .351.048.681.143.991.1.306.244.574.431.807.191.232.421.415.69.547.274.132.584.198.93.198.447 0 .825-.091 1.135-.273.31-.183.58-.427.813-.732l.766.609c-.16.241-.362.471-.608.69-.246.219-.55.396-.91.533-.355.137-.777.205-1.264.205Zm4.347-10.636h1.272V184l-.11 1.436h-1.162v-10.5Zm6.269 6.74v.143c0 .538-.064 1.037-.191 1.497a3.678 3.678 0 0 1-.561 1.19 2.616 2.616 0 0 1-.902.786 2.59 2.59 0 0 1-1.224.28c-.47 0-.882-.079-1.237-.239a2.434 2.434 0 0 1-.889-.704 3.637 3.637 0 0 1-.581-1.108 6.954 6.954 0 0 1-.294-1.462v-.629a6.981 6.981 0 0 1 .294-1.47c.146-.433.34-.802.581-1.107.242-.31.538-.545.889-.705.35-.164.758-.246 1.223-.246.465 0 .878.091 1.238.274.36.178.66.433.902.765.246.333.433.732.56 1.197.128.46.192.973.192 1.538Zm-1.271.143v-.143c0-.369-.035-.716-.103-1.039a2.694 2.694 0 0 0-.328-.862 1.634 1.634 0 0 0-.595-.587c-.246-.146-.55-.219-.91-.219-.318 0-.596.054-.833.164-.233.109-.43.257-.595.444a2.352 2.352 0 0 0-.403.629c-.1.232-.176.474-.226.725v1.647c.073.319.192.627.356.923.168.292.392.531.67.718.282.187.63.28 1.046.28.341 0 .633-.068.875-.205a1.65 1.65 0 0 0 .594-.581c.155-.246.27-.531.342-.855.073-.323.11-.67.11-1.039Zm7.177 1.655c0-.183-.04-.351-.123-.506-.077-.16-.24-.303-.485-.431-.242-.132-.606-.246-1.094-.342a8.651 8.651 0 0 1-1.114-.307 3.384 3.384 0 0 1-.841-.431 1.81 1.81 0 0 1-.526-.595 1.658 1.658 0 0 1-.185-.8c0-.291.064-.567.191-.827.133-.259.317-.49.554-.69.242-.201.531-.358.868-.472a3.508 3.508 0 0 1 1.128-.171c.593 0 1.099.105 1.518.315.42.209.74.49.964.841.223.346.335.731.335 1.155h-1.265c0-.205-.061-.403-.185-.595a1.356 1.356 0 0 0-.526-.485c-.228-.128-.508-.192-.84-.192-.352 0-.636.055-.855.164a1.1 1.1 0 0 0-.472.404 1.014 1.014 0 0 0-.075.888.81.81 0 0 0 .26.294c.123.087.296.169.52.247.223.077.507.154.854.232.606.137 1.105.301 1.497.492.392.192.683.426.875.704.191.278.287.615.287 1.012 0 .323-.069.62-.205.889a1.978 1.978 0 0 1-.581.697c-.25.191-.552.342-.903.451a4.025 4.025 0 0 1-1.169.157c-.651 0-1.203-.116-1.654-.348-.451-.233-.793-.534-1.025-.903a2.159 2.159 0 0 1-.349-1.169h1.272c.018.347.118.622.3.827.183.201.406.345.67.431.265.082.527.123.786.123.347 0 .636-.045.869-.137a1.21 1.21 0 0 0 .54-.375.872.872 0 0 0 .184-.547Zm4.3-5.435v7.397h-1.272v-7.397h1.272Zm-1.367-1.962c0-.205.061-.378.184-.519.128-.142.315-.212.56-.212.242 0 .427.07.555.212a.73.73 0 0 1 .198.519.715.715 0 0 1-.198.506c-.128.137-.313.205-.554.205-.246 0-.433-.068-.56-.205a.745.745 0 0 1-.185-.506Zm6.494 1.962v.971h-4v-.971h4Zm-2.646-1.798h1.265v7.363c0 .25.039.439.116.567a.556.556 0 0 0 .301.253c.123.041.255.061.397.061.104 0 .214-.009.328-.027.118-.023.207-.041.266-.055l.007 1.033c-.1.031-.232.061-.396.088-.16.032-.354.048-.581.048-.31 0-.595-.061-.855-.184a1.37 1.37 0 0 1-.622-.616c-.15-.291-.226-.683-.226-1.175v-7.356Zm7.199 9.331c-.515 0-.982-.086-1.402-.26a3.175 3.175 0 0 1-1.073-.745 3.328 3.328 0 0 1-.684-1.134 4.177 4.177 0 0 1-.239-1.436v-.287c0-.602.089-1.137.267-1.606.178-.474.419-.875.724-1.204a3.114 3.114 0 0 1 1.04-.745 2.992 2.992 0 0 1 1.203-.253c.528 0 .984.091 1.367.274.387.182.704.437.95.765.246.324.428.707.547 1.149.118.437.178.916.178 1.435v.568h-5.524v-1.032h4.259v-.096a3.163 3.163 0 0 0-.205-.957 1.722 1.722 0 0 0-.547-.766c-.251-.2-.592-.301-1.025-.301a1.721 1.721 0 0 0-1.415.718 2.682 2.682 0 0 0-.404.868 4.432 4.432 0 0 0-.143 1.183v.287c0 .351.048.681.143.991.101.306.244.574.431.807.191.232.421.415.69.547.274.132.584.198.93.198.447 0 .825-.091 1.135-.273.31-.183.581-.427.813-.732l.766.609c-.16.241-.362.471-.608.69-.247.219-.55.396-.91.533-.355.137-.777.205-1.264.205Zm4.375-.806c0-.215.066-.395.198-.54.137-.151.333-.226.588-.226.255 0 .449.075.581.226a.756.756 0 0 1 .205.54.75.75 0 0 1-.205.533c-.132.146-.326.219-.581.219-.255 0-.451-.073-.588-.219a.767.767 0 0 1-.198-.533Zm3.336-2.947v-.157c0-.533.077-1.028.232-1.483.155-.461.378-.859.67-1.197a3.002 3.002 0 0 1 1.06-.793 3.29 3.29 0 0 1 1.394-.287c.52 0 .987.096 1.401.287.42.187.775.452 1.067.793.296.338.522.736.677 1.197.155.455.232.95.232 1.483v.157a4.58 4.58 0 0 1-.232 1.484 3.562 3.562 0 0 1-.677 1.196 3.1 3.1 0 0 1-1.06.793c-.41.187-.875.28-1.394.28-.52 0-.987-.093-1.402-.28a3.172 3.172 0 0 1-1.066-.793 3.616 3.616 0 0 1-.67-1.196 4.58 4.58 0 0 1-.232-1.484Zm1.264-.157v.157c0 .369.044.718.13 1.046.087.324.217.611.39.862.178.25.399.448.663.594.264.142.572.212.923.212.346 0 .649-.07.909-.212.264-.146.483-.344.656-.594a2.77 2.77 0 0 0 .39-.862c.091-.328.137-.677.137-1.046v-.157c0-.364-.046-.709-.137-1.032a2.656 2.656 0 0 0-.397-.868 1.89 1.89 0 0 0-.656-.602 1.84 1.84 0 0 0-.916-.219c-.346 0-.652.073-.916.219-.26.146-.478.347-.656.602-.173.25-.303.54-.39.868-.086.323-.13.668-.13 1.032Zm8.32-2.461v6.235h-1.265v-7.397h1.23l.035 1.162Zm2.31-1.203-.007 1.176a1.738 1.738 0 0 0-.3-.041 3.241 3.241 0 0 0-.315-.014 2.03 2.03 0 0 0-.772.137 1.597 1.597 0 0 0-.568.383c-.155.164-.278.36-.369.588a2.87 2.87 0 0 0-.171.738l-.355.205c0-.447.043-.866.13-1.258.091-.392.23-.738.417-1.039.186-.305.423-.542.711-.711.291-.173.638-.26 1.039-.26.091 0 .196.012.314.035a.908.908 0 0 1 .246.061Zm5.824.041h1.149v7.239c0 .652-.132 1.208-.397 1.668a2.576 2.576 0 0 1-1.107 1.046c-.469.242-1.012.362-1.627.362-.255 0-.556-.041-.902-.123a3.609 3.609 0 0 1-1.012-.403 2.528 2.528 0 0 1-.827-.759l.663-.752c.31.374.633.634.971.78.341.146.679.218 1.011.218.401 0 .748-.075 1.039-.225.292-.151.518-.374.677-.67.164-.292.246-.652.246-1.08v-5.674l.116-1.627Zm-5.092 3.78v-.143c0-.565.066-1.078.198-1.538.137-.465.33-.864.581-1.197a2.616 2.616 0 0 1 2.14-1.039c.464 0 .87.082 1.216.246.351.16.647.395.889.705.246.305.44.674.581 1.107.141.433.239.923.294 1.47v.629a6.41 6.41 0 0 1-.294 1.462 3.446 3.446 0 0 1-.581 1.108c-.242.305-.538.54-.889.704-.351.16-.761.239-1.23.239a2.57 2.57 0 0 1-1.203-.28 2.737 2.737 0 0 1-.916-.786 3.731 3.731 0 0 1-.588-1.19 5.409 5.409 0 0 1-.198-1.497Zm1.264-.143v.143c0 .369.037.716.11 1.039.077.324.193.609.348.855.16.246.363.44.609.581.246.137.54.205.882.205.419 0 .765-.089 1.039-.267.273-.177.489-.412.649-.704.164-.291.292-.608.383-.95v-1.647a3.334 3.334 0 0 0-.233-.725 2.222 2.222 0 0 0-.396-.629 1.712 1.712 0 0 0-.595-.444 1.964 1.964 0 0 0-.834-.164c-.346 0-.645.073-.895.219a1.752 1.752 0 0 0-.609.587 2.811 2.811 0 0 0-.348.862 4.71 4.71 0 0 0-.11 1.039ZM27.374 184.953l-3.763-3.761c-.111-.111-.111-.221-.111-.443 0-.11 0-.331.11-.442l.886-.774c.11-.111.222-.222.443-.222.11 0 .332.111.443.222l2.545 2.544 5.424-5.42c.11-.111.221-.221.443-.221.22 0 .332.11.442.221l.886.774c.11.111.11.221.11.442 0 .111 0 .332-.11.443l-6.641 6.637c-.11.11-.222.221-.443.221-.443 0-.553-.111-.664-.221ZM41.607 195.551v1.728h-.914v-1.728h.914Zm-.11 9.568v1.576h-.915v-1.576h.914Zm.644-1.922a1.21 1.21 0 0 0-.123-.568 1.11 1.11 0 0 0-.387-.416 3.417 3.417 0 0 0-.715-.352 10.019 10.019 0 0 1-1.342-.621 2.617 2.617 0 0 1-.896-.826c-.215-.332-.322-.752-.322-1.26 0-.484.115-.904.345-1.259.23-.356.549-.629.955-.821.41-.195.887-.293 1.43-.293.414 0 .789.063 1.125.188.336.121.625.301.867.539.242.234.428.521.557.861.129.34.193.729.193 1.166h-1.681c0-.234-.026-.441-.077-.621-.05-.18-.125-.33-.222-.451a.876.876 0 0 0-.34-.27 1.026 1.026 0 0 0-.44-.093c-.238 0-.433.046-.586.14a.834.834 0 0 0-.334.381c-.066.156-.1.336-.1.539 0 .199.036.373.106.522.074.148.201.285.381.41.18.121.426.246.738.375a8.83 8.83 0 0 1 1.336.633c.383.226.682.504.897.832.215.328.322.746.322 1.254 0 .503-.117.933-.351 1.289a2.245 2.245 0 0 1-.985.808c-.422.184-.91.276-1.465.276-.359 0-.717-.047-1.072-.141a2.891 2.891 0 0 1-.967-.469c-.289-.215-.52-.5-.691-.855-.172-.36-.258-.801-.258-1.324h1.688c0 .285.037.523.11.714.075.188.173.338.294.452.125.109.266.187.422.234.156.047.314.07.474.07.25 0 .455-.045.616-.135a.876.876 0 0 0 .369-.369c.086-.16.129-.34.129-.539Zm8.672.92v1.319h-5.836v-1.125l2.76-2.959c.277-.309.495-.581.656-.815.16-.238.275-.451.345-.639a1.557 1.557 0 0 0-.018-1.207.958.958 0 0 0-.38-.433 1.133 1.133 0 0 0-.61-.153c-.257 0-.48.063-.667.188a1.196 1.196 0 0 0-.422.521c-.094.223-.141.475-.141.756h-1.693c0-.508.12-.972.363-1.394a2.663 2.663 0 0 1 1.025-1.014c.442-.254.965-.381 1.57-.381.598 0 1.102.098 1.512.293.414.192.727.469.938.832.215.36.322.789.322 1.289 0 .282-.045.557-.135.826-.09.266-.218.532-.386.797a6.357 6.357 0 0 1-.598.797c-.234.27-.494.549-.78.838l-1.482 1.664h3.657Zm6.796-3.697v1.476c0 .641-.068 1.194-.205 1.659-.136.461-.334.84-.592 1.136a2.34 2.34 0 0 1-.908.651c-.351.14-.742.211-1.172.211a3.44 3.44 0 0 1-.96-.129 2.43 2.43 0 0 1-.803-.416 2.65 2.65 0 0 1-.61-.709 3.637 3.637 0 0 1-.386-1.031 6.276 6.276 0 0 1-.135-1.372v-1.476c0-.641.068-1.19.205-1.647.14-.461.338-.837.592-1.13.258-.293.562-.508.914-.645a3.122 3.122 0 0 1 1.172-.211c.344 0 .662.045.955.135.297.086.564.221.802.404.239.184.442.42.61.709.168.285.297.627.387 1.026.09.394.134.847.134 1.359Zm-1.693 1.699v-1.928a5.43 5.43 0 0 0-.053-.808 2.368 2.368 0 0 0-.146-.586 1.245 1.245 0 0 0-.246-.399.903.903 0 0 0-.334-.222 1.174 1.174 0 0 0-.416-.071c-.192 0-.362.038-.51.112a.946.946 0 0 0-.37.357 1.92 1.92 0 0 0-.234.645c-.05.265-.076.59-.076.972v1.928c0 .309.016.58.047.815.035.234.086.435.152.603.07.164.153.299.247.404a.893.893 0 0 0 .334.223c.129.047.27.07.421.07.188 0 .354-.037.498-.111a.979.979 0 0 0 .376-.363c.105-.168.183-.387.234-.656.05-.27.076-.598.076-.985Zm2.994 2.502c0-.25.086-.459.258-.627.176-.168.408-.252.697-.252.29 0 .52.084.692.252a.832.832 0 0 1 .263.627c0 .25-.088.459-.263.627-.172.168-.403.252-.692.252-.289 0-.521-.084-.697-.252a.841.841 0 0 1-.258-.627Zm9.07-4.201v1.476c0 .641-.068 1.194-.205 1.659-.136.461-.334.84-.591 1.136a2.34 2.34 0 0 1-.909.651c-.351.14-.742.211-1.172.211a3.44 3.44 0 0 1-.96-.129 2.43 2.43 0 0 1-.803-.416 2.652 2.652 0 0 1-.61-.709 3.637 3.637 0 0 1-.386-1.031 6.276 6.276 0 0 1-.135-1.372v-1.476c0-.641.068-1.19.205-1.647.14-.461.338-.837.592-1.13.258-.293.562-.508.914-.645a3.122 3.122 0 0 1 1.172-.211c.344 0 .662.045.955.135.297.086.564.221.803.404.238.184.441.42.609.709.168.285.297.627.387 1.026.09.394.135.847.135 1.359Zm-1.693 1.699v-1.928a5.43 5.43 0 0 0-.053-.808 2.368 2.368 0 0 0-.146-.586 1.245 1.245 0 0 0-.246-.399.903.903 0 0 0-.334-.222 1.174 1.174 0 0 0-.416-.071c-.192 0-.361.038-.51.112a.946.946 0 0 0-.37.357 1.92 1.92 0 0 0-.234.645c-.05.265-.076.59-.076.972v1.928c0 .309.016.58.047.815.035.234.086.435.153.603.07.164.152.299.246.404a.893.893 0 0 0 .334.223c.129.047.27.07.421.07.188 0 .354-.037.499-.111a.979.979 0 0 0 .375-.363c.105-.168.183-.387.234-.656.05-.27.076-.598.076-.985Zm8.584-1.699v1.476c0 .641-.068 1.194-.205 1.659-.137.461-.334.84-.592 1.136a2.34 2.34 0 0 1-.908.651c-.352.14-.742.211-1.172.211a3.44 3.44 0 0 1-.96-.129 2.43 2.43 0 0 1-.803-.416 2.653 2.653 0 0 1-.61-.709 3.637 3.637 0 0 1-.387-1.031 6.276 6.276 0 0 1-.134-1.372v-1.476c0-.641.068-1.19.205-1.647.14-.461.338-.837.591-1.13.258-.293.563-.508.915-.645a3.122 3.122 0 0 1 1.171-.211c.344 0 .662.045.956.135.296.086.564.221.802.404.239.184.442.42.61.709.168.285.297.627.386 1.026.09.394.135.847.135 1.359Zm-1.693 1.699v-1.928c0-.308-.018-.578-.053-.808a2.364 2.364 0 0 0-.147-.586 1.245 1.245 0 0 0-.246-.399.903.903 0 0 0-.334-.222 1.174 1.174 0 0 0-.416-.071c-.191 0-.36.038-.51.112a.945.945 0 0 0-.368.357c-.102.16-.18.375-.235.645-.05.265-.076.59-.076.972v1.928c0 .309.016.58.047.815.035.234.086.435.152.603.07.164.152.299.246.404a.893.893 0 0 0 .334.223c.13.047.27.07.422.07.188 0 .354-.037.498-.111a.979.979 0 0 0 .375-.363c.106-.168.184-.387.235-.656.05-.27.076-.598.076-.985Z" fill="#000"/><rect x="86.5" y="193.436" width="50" height="16" rx="2" fill="#D9D9D9"/><path d="M95.133 201.315h-1.826l-.01-1.005h1.533c.27 0 .492-.035.664-.103a.804.804 0 0 0 .386-.308.898.898 0 0 0 .132-.498c0-.221-.043-.4-.127-.537a.702.702 0 0 0-.386-.298 2.042 2.042 0 0 0-.669-.092h-1.016v5.962H92.35v-7.11h2.48c.413 0 .783.039 1.109.117.328.078.607.197.834.357.228.159.403.361.523.605.12.241.18.528.18.86 0 .293-.066.563-.2.81-.13.248-.337.449-.62.606-.28.156-.646.242-1.098.258l-.425.376Zm-.064 3.121h-2.163l.572-1.143h1.591c.257 0 .468-.041.63-.122a.84.84 0 0 0 .362-.342c.078-.143.117-.308.117-.493a1.27 1.27 0 0 0-.108-.542.728.728 0 0 0-.332-.352c-.153-.084-.355-.127-.605-.127h-1.411l.01-1.005h1.757l.337.395c.433-.006.781.07 1.045.23.267.156.46.359.581.61.124.251.186.519.186.806 0 .455-.1.839-.298 1.152-.199.309-.49.542-.874.698-.381.156-.846.235-1.397.235Zm6.704-1.265v-4.019h1.407v5.284h-1.324l-.083-1.265Zm.157-1.084.415-.01c0 .352-.041.679-.122.982a2.358 2.358 0 0 1-.367.781 1.704 1.704 0 0 1-.615.513c-.247.12-.539.18-.874.18a2.29 2.29 0 0 1-.713-.107 1.456 1.456 0 0 1-.556-.347 1.677 1.677 0 0 1-.362-.61 2.843 2.843 0 0 1-.127-.904v-3.413h1.407v3.423c0 .156.018.288.053.396a.71.71 0 0 0 .161.263.588.588 0 0 0 .24.147c.094.029.198.044.312.044.29 0 .518-.059.684-.176a.927.927 0 0 0 .356-.478c.072-.206.108-.433.108-.684Zm3.891 1.753 1.402-4.688h1.508l-2.124 6.079a3.2 3.2 0 0 1-.185.43 1.758 1.758 0 0 1-.308.435c-.127.14-.288.254-.483.342a1.712 1.712 0 0 1-.708.131c-.134 0-.243-.008-.327-.024a5.625 5.625 0 0 1-.303-.068v-1.031h.112c.039.004.077.005.113.005.185 0 .336-.021.454-.063a.642.642 0 0 0 .283-.196.95.95 0 0 0 .171-.332l.395-1.02Zm-.586-4.688 1.148 3.828.2 1.49-.957.102-1.899-5.42h1.508Zm12.422-1.826v7.11h-1.465l-2.856-4.766v4.766h-1.465v-7.11h1.465l2.861 4.771v-4.771h1.46Zm.962 4.522v-.103c0-.387.055-.744.166-1.069.111-.329.272-.614.484-.855.211-.241.472-.428.781-.561a2.603 2.603 0 0 1 1.064-.205c.401 0 .757.068 1.07.205.312.133.574.32.786.561.215.241.377.526.488.855.111.325.166.682.166 1.069v.103c0 .384-.055.74-.166 1.069-.111.326-.273.61-.488.854a2.16 2.16 0 0 1-.782.562 2.67 2.67 0 0 1-1.064.2c-.4 0-.757-.067-1.069-.2a2.193 2.193 0 0 1-.786-.562 2.527 2.527 0 0 1-.484-.854 3.322 3.322 0 0 1-.166-1.069Zm1.406-.103v.103c0 .221.02.428.059.62.039.192.101.361.186.508a.954.954 0 0 0 .341.336 1 1 0 0 0 .513.123.98.98 0 0 0 .503-.123.928.928 0 0 0 .337-.336 1.67 1.67 0 0 0 .185-.508c.043-.192.064-.399.064-.62v-.103c0-.215-.021-.417-.064-.605a1.59 1.59 0 0 0-.19-.508.95.95 0 0 0-.337-.352.97.97 0 0 0-.508-.127.972.972 0 0 0-.508.127.997.997 0 0 0-.336.352 1.662 1.662 0 0 0-.186.508c-.039.188-.059.39-.059.605Zm5.972 1.323 1.099-3.916h.893l-.288 1.538-1.098 3.746h-.748l.142-1.368Zm-.557-3.916.787 3.911.073 1.373h-.879l-1.338-5.284h1.357Zm3.555 3.848.767-3.848h1.362l-1.338 5.284h-.874l.083-1.436Zm-.884-3.848 1.094 3.887.151 1.397h-.752l-1.098-3.741-.278-1.543h.883Z" fill="#000"/></g><path d="M177.035 229.807c0-.5.172-.918.516-1.254.351-.336.816-.504 1.394-.504s1.039.168 1.383.504c.352.336.527.754.527 1.254s-.175.918-.527 1.254c-.344.335-.805.503-1.383.503s-1.043-.168-1.394-.503a1.682 1.682 0 0 1-.516-1.254ZM183.996 229.807c0-.5.172-.918.516-1.254.351-.336.816-.504 1.394-.504s1.039.168 1.383.504c.352.336.527.754.527 1.254s-.175.918-.527 1.254c-.344.335-.805.503-1.383.503s-1.043-.168-1.394-.503a1.682 1.682 0 0 1-.516-1.254ZM190.957 229.807c0-.5.172-.918.516-1.254.351-.336.816-.504 1.394-.504s1.039.168 1.383.504c.352.336.527.754.527 1.254s-.175.918-.527 1.254c-.344.335-.805.503-1.383.503s-1.043-.168-1.394-.503a1.682 1.682 0 0 1-.516-1.254Z" fill="#1C4F4A"/><path stroke="#505050" stroke-opacity=".5" d="M178.5 83.936h-15M207.5 135.936h-15M178.5 190.936h-15M186 54.435v163.001"/><rect x="251.5" y="97.436" width="72" height="20" rx="2" fill="#4AD594"/><path d="M265.166 109.293v1.143h-3.784v-1.143h3.784Zm-3.306-5.967v7.11h-1.464v-7.11h1.464Zm2.813 2.896v1.113h-3.291v-1.113h3.291Zm.488-2.896v1.148h-3.779v-1.148h3.779Zm1.904 1.826.874 1.607.899-1.607h1.499l-1.494 2.583 1.562 2.701h-1.504l-.952-1.7-.952 1.7h-1.504l1.563-2.701-1.494-2.583h1.503Zm6.807 4.092v-2.353c0-.17-.028-.315-.083-.435a.614.614 0 0 0-.259-.288.858.858 0 0 0-.444-.103.923.923 0 0 0-.405.083.594.594 0 0 0-.264.23.634.634 0 0 0-.093.347h-1.406c0-.225.052-.438.156-.64.104-.202.256-.379.454-.532.199-.157.435-.279.708-.366.277-.088.586-.132.928-.132.41 0 .775.068 1.094.205.319.136.569.342.752.615.185.273.278.615.278 1.025v2.261c0 .29.018.527.054.713.036.182.088.342.156.479v.083h-1.421a2.067 2.067 0 0 1-.156-.538 4.363 4.363 0 0 1-.049-.654Zm.186-2.026.009.796h-.786c-.185 0-.346.021-.483.063a.896.896 0 0 0-.337.181.699.699 0 0 0-.195.263.917.917 0 0 0-.059.333.589.589 0 0 0 .322.551.813.813 0 0 0 .367.078c.211 0 .395-.042.551-.127a.997.997 0 0 0 .362-.312.654.654 0 0 0 .136-.352l.371.596a2.381 2.381 0 0 1-.214.415 1.72 1.72 0 0 1-.831.713 1.807 1.807 0 0 1-.683.117 2.06 2.06 0 0 1-.913-.2 1.671 1.671 0 0 1-.645-.562 1.473 1.473 0 0 1-.234-.82c0-.277.052-.522.156-.737a1.43 1.43 0 0 1 .459-.542c.205-.15.461-.262.767-.337a4.334 4.334 0 0 1 1.064-.117h.816Zm4.497 2.217c.172 0 .325-.033.459-.098a.778.778 0 0 0 .312-.283.83.83 0 0 0 .122-.435h1.323a1.758 1.758 0 0 1-.297.991 2.055 2.055 0 0 1-.786.679 2.452 2.452 0 0 1-1.104.244c-.41 0-.768-.068-1.074-.205a2.098 2.098 0 0 1-.757-.566 2.483 2.483 0 0 1-.454-.85 3.506 3.506 0 0 1-.152-1.045v-.141c0-.375.051-.723.152-1.045a2.42 2.42 0 0 1 .454-.85c.202-.244.454-.435.757-.571.302-.137.657-.205 1.064-.205.433 0 .812.083 1.138.249.329.166.586.403.771.713.189.306.285.669.288 1.088h-1.323a1.092 1.092 0 0 0-.112-.478.842.842 0 0 0-.786-.474.88.88 0 0 0-.503.132.849.849 0 0 0-.303.352 1.755 1.755 0 0 0-.151.503 4.219 4.219 0 0 0-.039.586v.141c0 .205.013.402.039.591.026.189.075.356.146.503a.894.894 0 0 0 .308.347c.13.084.299.127.508.127Zm5.62-4.283v.996h-3.076v-.996h3.076Zm-2.315-1.303h1.407v4.995c0 .153.019.27.058.351a.348.348 0 0 0 .186.171c.081.03.184.044.307.044.088 0 .166-.003.235-.01.071-.009.132-.019.18-.029l.005 1.035a2.654 2.654 0 0 1-.854.127c-.309 0-.58-.05-.811-.151a1.115 1.115 0 0 1-.527-.498c-.124-.228-.186-.528-.186-.899v-5.136Zm6.363-.523h1.24l1.826 5.22 1.826-5.22h1.24l-2.568 7.11h-.996l-2.568-7.11Zm-.669 0h1.235l.225 5.088v2.022h-1.46v-7.11Zm6.235 0h1.24v7.11h-1.465v-2.022l.225-5.088Zm5.288 5.918v-2.353c0-.17-.028-.315-.083-.435a.61.61 0 0 0-.259-.288.858.858 0 0 0-.444-.103.923.923 0 0 0-.405.083.594.594 0 0 0-.264.23.634.634 0 0 0-.093.347h-1.406c0-.225.052-.438.156-.64.104-.202.256-.379.454-.532.199-.157.435-.279.708-.366.277-.088.586-.132.928-.132.41 0 .775.068 1.094.205.319.136.57.342.752.615.185.273.278.615.278 1.025v2.261c0 .29.018.527.054.713.036.182.088.342.156.479v.083h-1.421a2.067 2.067 0 0 1-.156-.538 4.363 4.363 0 0 1-.049-.654Zm.186-2.026.009.796h-.786c-.185 0-.346.021-.483.063a.896.896 0 0 0-.337.181.699.699 0 0 0-.195.263.917.917 0 0 0-.059.333.589.589 0 0 0 .322.551.816.816 0 0 0 .367.078c.211 0 .395-.042.551-.127a.997.997 0 0 0 .362-.312.646.646 0 0 0 .136-.352l.371.596a2.381 2.381 0 0 1-.214.415 1.727 1.727 0 0 1-.83.713c-.192.078-.42.117-.684.117a2.06 2.06 0 0 1-.913-.2 1.671 1.671 0 0 1-.645-.562 1.473 1.473 0 0 1-.234-.82c0-.277.052-.522.156-.737a1.43 1.43 0 0 1 .459-.542c.205-.15.461-.262.767-.337a4.334 4.334 0 0 1 1.064-.117h.816Zm4.902-2.066v.996h-3.076v-.996h3.076Zm-2.314-1.303h1.406v4.995c0 .153.019.27.058.351a.352.352 0 0 0 .186.171.9.9 0 0 0 .308.044c.087 0 .166-.003.234-.01.072-.009.132-.019.181-.029l.005 1.035a2.699 2.699 0 0 1-.855.127c-.309 0-.579-.05-.811-.151a1.12 1.12 0 0 1-.527-.498c-.124-.228-.185-.528-.185-.899v-5.136Zm5.297 5.586c.173 0 .326-.033.459-.098a.774.774 0 0 0 .313-.283.83.83 0 0 0 .122-.435h1.323a1.751 1.751 0 0 1-.298.991 2.04 2.04 0 0 1-.786.679 2.448 2.448 0 0 1-1.103.244c-.41 0-.768-.068-1.074-.205a2.098 2.098 0 0 1-.757-.566 2.466 2.466 0 0 1-.454-.85 3.506 3.506 0 0 1-.152-1.045v-.141c0-.375.051-.723.152-1.045.1-.326.252-.609.454-.85.202-.244.454-.435.757-.571.302-.137.657-.205 1.064-.205.433 0 .812.083 1.138.249.328.166.586.403.771.713.189.306.285.669.288 1.088h-1.323a1.106 1.106 0 0 0-.112-.478.842.842 0 0 0-.786-.474.878.878 0 0 0-.503.132.841.841 0 0 0-.303.352 1.724 1.724 0 0 0-.151.503c-.027.185-.04.381-.04.586v.141c0 .205.013.402.04.591.026.189.074.356.146.503a.886.886 0 0 0 .308.347.92.92 0 0 0 .507.127Zm4.405-6.499v7.5h-1.407v-7.5h1.407Zm-.2 4.672h-.386a3.58 3.58 0 0 1 .146-1.015 2.5 2.5 0 0 1 .406-.811c.175-.231.385-.41.629-.537.248-.127.521-.19.821-.19.26 0 .496.037.708.112.215.072.399.189.552.352.156.159.276.369.361.629.084.261.127.577.127.948v3.34h-1.416v-3.35c0-.234-.034-.418-.103-.552a.562.562 0 0 0-.288-.288 1.08 1.08 0 0 0-.459-.088 1.1 1.1 0 0 0-.517.113.88.88 0 0 0-.337.312c-.085.13-.147.283-.186.459a2.616 2.616 0 0 0-.058.566Z" fill="#000"/><defs><filter id="a" x="130" y=".436" width="111" height="52" filterUnits="userSpaceOnUse" color-interpolation-filters="sRGB"><feFlood flood-opacity="0" result="BackgroundImageFix"/><feColorMatrix in="SourceAlpha" values="0 0 0 0 0 0 0 0 0 0 0 0 0 0 0 0 0 0 127 0" result="hardAlpha"/><feOffset dy="4"/><feGaussianBlur stdDeviation="5"/><feColorMatrix values="0 0 0 0 0 0 0 0 0 0 0 0 0 0 0 0 0 0 0.25 0"/><feBlend mode="multiply" in2="BackgroundImageFix" result="effect1_dropShadow_7771_10544"/><feBlend in="SourceGraphic" in2="effect1_dropShadow_7771_10544" result="shape"/></filter><filter id="b" x=".5" y="52.435" width="158" height="73" filterUnits="userSpaceOnUse" color-interpolation-filters="sRGB"><feFlood flood-opacity="0" result="BackgroundImageFix"/><feColorMatrix in="SourceAlpha" values="0 0 0 0 0 0 0 0 0 0 0 0 0 0 0 0 0 0 127 0" result="hardAlpha"/><feOffset dy="4"/><feGaussianBlur stdDeviation="5"/><feColorMatrix values="0 0 0 0 0 0 0 0 0 0 0 0 0 0 0 0 0 0 0.25 0"/><feBlend mode="multiply" in2="BackgroundImageFix" result="effect1_dropShadow_7771_10544"/><feBlend in="SourceGraphic" in2="effect1_dropShadow_7771_10544" result="shape"/></filter><filter id="c" x="204.5" y="105.436" width="166" height="73" filterUnits="userSpaceOnUse" color-interpolation-filters="sRGB"><feFlood flood-opacity="0" result="BackgroundImageFix"/><feColorMatrix in="SourceAlpha" values="0 0 0 0 0 0 0 0 0 0 0 0 0 0 0 0 0 0 127 0" result="hardAlpha"/><feOffset dy="4"/><feGaussianBlur stdDeviation="5"/><feColorMatrix values="0 0 0 0 0 0 0 0 0 0 0 0 0 0 0 0 0 0 0.25 0"/><feBlend mode="multiply" in2="BackgroundImageFix" result="effect1_dropShadow_7771_10544"/><feBlend in="SourceGraphic" in2="effect1_dropShadow_7771_10544" result="shape"/></filter><filter id="d" x=".5" y="158.436" width="159" height="73" filterUnits="userSpaceOnUse" color-interpolation-filters="sRGB"><feFlood flood-opacity="0" result="BackgroundImageFix"/><feColorMatrix in="SourceAlpha" values="0 0 0 0 0 0 0 0 0 0 0 0 0 0 0 0 0 0 127 0" result="hardAlpha"/><feOffset dy="4"/><feGaussianBlur stdDeviation="5"/><feColorMatrix values="0 0 0 0 0 0 0 0 0 0 0 0 0 0 0 0 0 0 0.25 0"/><feBlend mode="multiply" in2="BackgroundImageFix" result="effect1_dropShadow_7771_10544"/><feBlend in="SourceGraphic" in2="effect1_dropShadow_7771_10544" result="shape"/></filter></defs></svg>