<svg width="416" height="200" viewBox="0 0 416 200" fill="none" xmlns="http://www.w3.org/2000/svg"><g clip-path="url(#a)"><rect x="-99.5" y="28.5" width="274" height="143" rx="71.5" stroke="url(#b)" stroke-opacity=".15"/><rect x="246.5" y="28.5" width="274" height="143" rx="71.5" stroke="url(#c)" stroke-opacity=".15"/><g filter="url(#d)"><rect x="88" y="67" width="64" height="64" rx="24" fill="#F36056"/><path d="M105.333 89.222c0-3.436 2.704-6.222 6.039-6.222 3.336 0 6.039 2.786 6.039 6.222v3.556c0 .982-.772 1.778-1.725 1.778-.953 0-1.726-.796-1.726-1.778v-3.556c0-1.472-1.158-2.666-2.588-2.666-1.429 0-2.588 1.194-2.588 2.666v19.556c0 1.473 1.159 2.666 2.588 2.666 1.43 0 2.588-1.193 2.588-2.666v-2.667c0-.982.773-1.778 1.726-1.778s1.725.796 1.725 1.778v2.667c0 3.436-2.703 6.222-6.039 6.222-3.335 0-6.039-2.786-6.039-6.222V89.222Z" fill="#fff"/><path d="M134.666 89.222c0-3.436-2.704-6.222-6.039-6.222-3.335 0-6.039 2.786-6.039 6.222v3.556c0 .982.772 1.778 1.725 1.778.953 0 1.726-.796 1.726-1.778v-3.556c0-1.472 1.159-2.666 2.588-2.666 1.43 0 2.588 1.194 2.588 2.666v19.556c0 1.473-1.158 2.666-2.588 2.666-1.429 0-2.588-1.193-2.588-2.666v-2.667c0-4.909-3.863-8.889-8.628-8.889h-3.451c-.953 0-1.725.796-1.725 1.778s.772 1.778 1.725 1.778h3.451c2.859 0 5.177 2.388 5.177 5.333v2.667c0 3.436 2.704 6.222 6.039 6.222 3.335 0 6.039-2.786 6.039-6.222V89.222Z" fill="#fff"/><rect x="85.5" y="64.5" width="69" height="69" rx="26.5" stroke="#fff" stroke-width="5"/></g><g filter="url(#e)"><rect x="268" y="67" width="64" height="64" rx="24" fill="#1C4DA9"/><path d="M315.223 110.842a5.338 5.338 0 0 0 .777-2.811V86.269h-4.142v21.765a1.227 1.227 0 0 1-.396.904 1.613 1.613 0 0 1-2.099 0 1.222 1.222 0 0 1-.393-.904V91.647a5.115 5.115 0 0 0-.378-2.076 5.178 5.178 0 0 0-1.183-1.757 5.482 5.482 0 0 0-2.808-1.506 5.523 5.523 0 0 0-3.18.304 5.444 5.444 0 0 0-2.464 2.009 5.346 5.346 0 0 0-.904 3.026v16.387a1.228 1.228 0 0 1-.374.904 1.431 1.431 0 0 1-1.049.388 1.401 1.401 0 0 1-1.05-.388 1.223 1.223 0 0 1-.396-.904V91.647a5.145 5.145 0 0 0-.377-2.075 5.198 5.198 0 0 0-1.181-1.758 5.315 5.315 0 0 0-1.797-1.172 5.382 5.382 0 0 0-2.121-.373 5.8 5.8 0 0 0-4.015 1.545 5.007 5.007 0 0 0-1.272 1.734 4.945 4.945 0 0 0-.42 2.1v21.747h4.146V91.647a1.228 1.228 0 0 1 .374-.903 1.613 1.613 0 0 1 2.099 0 1.238 1.238 0 0 1 .396.903v16.387c-.019.71.109 1.417.377 2.076s.67 1.257 1.18 1.757a5.329 5.329 0 0 0 1.791 1.161c.67.263 1.388.389 2.109.37a5.818 5.818 0 0 0 4.03-1.531 5.008 5.008 0 0 0 1.271-1.733 4.966 4.966 0 0 0 .425-2.1V91.647c.034-.318.187-.613.428-.827a1.323 1.323 0 0 1 1.758 0c.241.214.394.509.428.827v16.387a5.293 5.293 0 0 0 .781 2.812 4.954 4.954 0 0 0 2.077 1.914c.847.42 1.782.638 2.73.638s1.883-.218 2.73-.638a4.952 4.952 0 0 0 2.092-1.918Z" fill="#fff"/><rect x="265.5" y="64.5" width="69" height="69" rx="26.5" stroke="#fff" stroke-width="5"/></g><g filter="url(#f)"><rect x="268" y="67" width="64" height="64" rx="24" fill="#1C4DA9"/><path d="M315.223 110.842a5.338 5.338 0 0 0 .777-2.811V86.269h-4.142v21.765a1.227 1.227 0 0 1-.396.904 1.613 1.613 0 0 1-2.099 0 1.222 1.222 0 0 1-.393-.904V91.647a5.115 5.115 0 0 0-.378-2.076 5.178 5.178 0 0 0-1.183-1.757 5.482 5.482 0 0 0-2.808-1.506 5.523 5.523 0 0 0-3.18.304 5.444 5.444 0 0 0-2.464 2.009 5.346 5.346 0 0 0-.904 3.026v16.387a1.228 1.228 0 0 1-.374.904 1.431 1.431 0 0 1-1.049.388 1.401 1.401 0 0 1-1.05-.388 1.223 1.223 0 0 1-.396-.904V91.647a5.145 5.145 0 0 0-.377-2.075 5.198 5.198 0 0 0-1.181-1.758 5.315 5.315 0 0 0-1.797-1.172 5.382 5.382 0 0 0-2.121-.373 5.8 5.8 0 0 0-4.015 1.545 5.007 5.007 0 0 0-1.272 1.734 4.945 4.945 0 0 0-.42 2.1v21.747h4.146V91.647a1.228 1.228 0 0 1 .374-.903 1.613 1.613 0 0 1 2.099 0 1.238 1.238 0 0 1 .396.903v16.387c-.019.71.109 1.417.377 2.076s.67 1.257 1.18 1.757a5.329 5.329 0 0 0 1.791 1.161c.67.263 1.388.389 2.109.37a5.818 5.818 0 0 0 4.03-1.531 5.008 5.008 0 0 0 1.271-1.733 4.966 4.966 0 0 0 .425-2.1V91.647c.034-.318.187-.613.428-.827a1.323 1.323 0 0 1 1.758 0c.241.214.394.509.428.827v16.387a5.293 5.293 0 0 0 .781 2.812 4.954 4.954 0 0 0 2.077 1.914c.847.42 1.782.638 2.73.638s1.883-.218 2.73-.638a4.952 4.952 0 0 0 2.092-1.918Z" fill="#fff"/><rect x="265.5" y="64.5" width="69" height="69" rx="26.5" stroke="#fff" stroke-width="5"/></g><circle cx="173.5" cy="99.5" r="8.5" stroke="#18BB4B" stroke-width="2"/><circle cx="209.5" cy="99.5" r="8.5" stroke="#18BB4B" stroke-width="2"/><circle cx="246.5" cy="99.5" r="8.5" stroke="#18BB4B" stroke-width="2"/></g><defs><filter id="d" x="73" y="56" width="94" height="94" filterUnits="userSpaceOnUse" color-interpolation-filters="sRGB"><feFlood flood-opacity="0" result="BackgroundImageFix"/><feColorMatrix in="SourceAlpha" values="0 0 0 0 0 0 0 0 0 0 0 0 0 0 0 0 0 0 127 0" result="hardAlpha"/><feOffset dy="4"/><feGaussianBlur stdDeviation="5"/><feComposite in2="hardAlpha" operator="out"/><feColorMatrix values="0 0 0 0 0 0 0 0 0 0 0 0 0 0 0 0 0 0 0.25 0"/><feBlend in2="BackgroundImageFix" result="effect1_dropShadow_1275_15487"/><feBlend in="SourceGraphic" in2="effect1_dropShadow_1275_15487" result="shape"/></filter><filter id="e" x="253" y="56" width="94" height="94" filterUnits="userSpaceOnUse" color-interpolation-filters="sRGB"><feFlood flood-opacity="0" result="BackgroundImageFix"/><feColorMatrix in="SourceAlpha" values="0 0 0 0 0 0 0 0 0 0 0 0 0 0 0 0 0 0 127 0" result="hardAlpha"/><feOffset dy="4"/><feGaussianBlur stdDeviation="5"/><feComposite in2="hardAlpha" operator="out"/><feColorMatrix values="0 0 0 0 0 0 0 0 0 0 0 0 0 0 0 0 0 0 0.25 0"/><feBlend in2="BackgroundImageFix" result="effect1_dropShadow_1275_15487"/><feBlend in="SourceGraphic" in2="effect1_dropShadow_1275_15487" result="shape"/></filter><filter id="f" x="253" y="56" width="94" height="94" filterUnits="userSpaceOnUse" color-interpolation-filters="sRGB"><feFlood flood-opacity="0" result="BackgroundImageFix"/><feColorMatrix in="SourceAlpha" values="0 0 0 0 0 0 0 0 0 0 0 0 0 0 0 0 0 0 127 0" result="hardAlpha"/><feOffset dy="4"/><feGaussianBlur stdDeviation="5"/><feComposite in2="hardAlpha" operator="out"/><feColorMatrix values="0 0 0 0 0 0 0 0 0 0 0 0 0 0 0 0 0 0 0.25 0"/><feBlend in2="BackgroundImageFix" result="effect1_dropShadow_1275_15487"/><feBlend in="SourceGraphic" in2="effect1_dropShadow_1275_15487" result="shape"/></filter><linearGradient id="b" x1="175" y1="96" x2="-12" y2="96" gradientUnits="userSpaceOnUse"><stop/><stop offset="1" stop-opacity="0"/></linearGradient><linearGradient id="c" x1="246" y1="100" x2="433" y2="100" gradientUnits="userSpaceOnUse"><stop/><stop offset="1" stop-opacity="0"/></linearGradient><clipPath id="a"><path fill="#fff" d="M0 0h416v200H0z"/></clipPath></defs></svg>