<svg width="24" height="24" viewBox="0 0 24 24" fill="none" xmlns="http://www.w3.org/2000/svg"><path fill-rule="evenodd" clip-rule="evenodd" d="M2.65 12a9.35 9.35 0 1 1 18.7 0 9.35 9.35 0 0 1-18.7 0ZM12 1C5.925 1 1 5.925 1 12s4.925 11 11 11 11-4.925 11-11S18.075 1 12 1Zm2.956 15.97c.319.16.67.243 1.027.242.356 0 .708-.082 1.027-.242.325-.162.595-.414.778-.727.193-.322.294-.691.29-1.067V6.787h-1.5v8.389a.516.516 0 0 1-.164.38.655.655 0 0 1-.865 0 .518.518 0 0 1-.162-.38V8.824a1.973 1.973 0 0 0-.582-1.454 2.13 2.13 0 0 0-2.925 0 1.975 1.975 0 0 0-.58 1.454v6.352a.52.52 0 0 1-.165.38.655.655 0 0 1-.865 0 .515.515 0 0 1-.164-.38V8.824A1.993 1.993 0 0 0 8.06 6.789c-.561-.01-1.104.199-1.514.581a1.89 1.89 0 0 0-.633 1.454v8.388h1.488V8.824a.52.52 0 0 1 .164-.381.573.573 0 0 1 .436-.163.581.581 0 0 1 .557.336.519.519 0 0 1 .042.208v6.352a1.993 1.993 0 0 0 2.047 2.035c.56.009 1.103-.2 1.513-.582a1.901 1.901 0 0 0 .634-1.453V8.824a.546.546 0 0 1 .929-.381.519.519 0 0 1 .164.38v6.353a2.02 2.02 0 0 0 .29 1.067c.183.313.454.565.778.727Z" fill="#1A1A1A"/></svg>